<?xml version="1.0" encoding="UTF-8"?>
<!DOCTYPE svg PUBLIC "-//W3C//DTD SVG 1.1//EN" "http://www.w3.org/Graphics/SVG/1.1/DTD/svg11.dtd">
<svg xmlns="http://www.w3.org/2000/svg" version="1.1" width="7500px" height="5000px" style="shape-rendering:geometricPrecision; text-rendering:geometricPrecision; image-rendering:optimizeQuality; fill-rule:evenodd; clip-rule:evenodd" xmlns:xlink="http://www.w3.org/1999/xlink">
<g><path style="opacity:0.099" fill="#fefefe" d="M -0.5,-0.5 C 2499.5,-0.5 4999.5,-0.5 7499.5,-0.5C 7499.5,1666.17 7499.5,3332.83 7499.5,4999.5C 4999.5,4999.5 2499.5,4999.5 -0.5,4999.5C -0.5,3332.83 -0.5,1666.17 -0.5,-0.5 Z"/></g>
<g><path style="opacity:1" fill="#f67d48" d="M 4223.5,535.5 C 4184.8,623.186 4146.13,710.853 4107.5,798.5C 4106.96,798.56 4106.62,798.893 4106.5,799.5C 4169.16,800.5 4231.83,800.833 4294.5,800.5C 4320.37,805.535 4331.53,821.201 4328,847.5C 4326.19,852.446 4323.86,857.112 4321,861.5C 4298.95,887.284 4277.61,913.617 4257,940.5C 4189.28,1032.55 4121.95,1124.89 4055,1217.5C 4027.1,1254.74 3998.43,1291.41 3969,1327.5C 3957.58,1336.55 3947.58,1335.22 3939,1323.5C 3937,1317.5 3937,1311.5 3939,1305.5C 3980.49,1192.83 4021.65,1080.17 4062.5,967.5C 3992.07,975.116 3921.57,983.449 3851,992.5C 3838.93,992.096 3831.26,986.096 3828,974.5C 3827.25,969.428 3827.58,964.428 3829,959.5C 3934.51,817.804 4040.01,676.137 4145.5,534.5C 4181.65,486.235 4217.81,437.901 4254,389.5C 4262.21,381.755 4270.54,381.755 4279,389.5C 4281.59,393.852 4282.59,398.519 4282,403.5C 4262.21,447.408 4242.71,491.408 4223.5,535.5 Z"/></g>
<g><path style="opacity:1" fill="#e9f2f9" d="M 4145.5,534.5 C 4040.01,676.137 3934.51,817.804 3829,959.5C 3827.58,964.428 3827.25,969.428 3828,974.5C 3831.26,986.096 3838.93,992.096 3851,992.5C 3921.57,983.449 3992.07,975.116 4062.5,967.5C 4021.65,1080.17 3980.49,1192.83 3939,1305.5C 3937,1311.5 3937,1317.5 3939,1323.5C 3947.58,1335.22 3957.58,1336.55 3969,1327.5C 3998.43,1291.41 4027.1,1254.74 4055,1217.5C 4121.95,1124.89 4189.28,1032.55 4257,940.5C 4277.61,913.617 4298.95,887.284 4321,861.5C 4323.86,857.112 4326.19,852.446 4328,847.5C 4331.53,821.201 4320.37,805.535 4294.5,800.5C 4232.17,799.833 4169.83,799.167 4107.5,798.5C 4146.13,710.853 4184.8,623.186 4223.5,535.5C 4402.98,541.549 4578.98,569.049 4751.5,618C 4911.19,663.617 5063.69,726.117 5209,805.5C 5307.02,859.263 5398.85,922.096 5484.5,994C 5530.99,1033.15 5574.15,1075.65 5614,1121.5C 5709.19,1237.84 5770.86,1370.51 5799,1519.5C 5820.46,1646.73 5812.8,1772.06 5776,1895.5C 5758.43,1952.64 5736.76,2007.97 5711,2061.5C 5693.71,2113.25 5693.05,2165.25 5709,2217.5C 5724.71,2262.93 5746.71,2304.93 5775,2343.5C 5797.52,2374.02 5821.52,2403.35 5847,2431.5C 5881.14,2467.97 5916.3,2503.47 5952.5,2538C 6023.17,2602.67 6093.83,2667.33 6164.5,2732C 6222.42,2785.26 6277.59,2841.09 6330,2899.5C 6372.06,2947.64 6409.73,2998.97 6443,3053.5C 6485.92,3125.81 6524.59,3200.48 6559,3277.5C 6619.6,3414.98 6659.27,3558.31 6678,3707.5C 6709.11,3988.3 6653.11,4249.64 6510,4491.5C 6488.4,4525.7 6465.57,4559.03 6441.5,4591.5C 6319.67,4591.83 6198,4591.5 6076.5,4590.5C 6083.68,4585.48 6088.85,4578.81 6092,4570.5C 6093.1,4557.32 6097.76,4545.65 6106,4535.5C 6116.24,4526.27 6124.58,4515.6 6131,4503.5C 6132.01,4496.96 6131.34,4490.63 6129,4484.5C 6121.16,4471.16 6111.66,4459.16 6100.5,4448.5C 6104.61,4444.91 6106.61,4440.41 6106.5,4435C 6094.9,4332.33 6076.73,4230.83 6052,4130.5C 6043.18,4094.69 6031.18,4060.02 6016,4026.5C 6009.16,4012.81 6000.82,4000.14 5991,3988.5C 5971.33,3955.82 5955.33,3921.48 5943,3885.5C 5930.02,3849.22 5919.69,3812.22 5912,3774.5C 5910.07,3748.85 5906.24,3723.52 5900.5,3698.5C 5906.31,3694.22 5910.15,3688.55 5912,3681.5C 5913.55,3671.69 5913.71,3662.03 5912.5,3652.5C 5906.08,3585.37 5909.08,3518.71 5921.5,3452.5C 5936.13,3471.42 5947.97,3492.08 5957,3514.5C 5957.12,3593.64 5960.46,3672.64 5967,3751.5C 5968.02,3753.69 5969.52,3755.35 5971.5,3756.5C 5968.61,3772.35 5964.44,3788.01 5959,3803.5C 5958.33,3807.17 5958.33,3810.83 5959,3814.5C 5961.74,3823.06 5965.08,3831.39 5969,3839.5C 5971.84,3843.74 5973.84,3843.4 5975,3838.5C 5975.59,3832.82 5976.26,3827.16 5977,3821.5C 5978,3820.17 5979,3820.17 5980,3821.5C 5983.24,3836.38 5985.9,3851.38 5988,3866.5C 5989.94,3872.8 5992.6,3873.14 5996,3867.5C 6004.45,3849.81 6011.12,3831.47 6016,3812.5C 6015.88,3800.08 6014.54,3787.74 6012,3775.5C 6011.01,3772 6009.85,3768.66 6008.5,3765.5C 6012.49,3765.01 6014.65,3762.68 6015,3758.5C 6027.51,3694.98 6039.17,3631.32 6050,3567.5C 6053.67,3543.95 6056.17,3520.28 6057.5,3496.5C 6056.41,3478.24 6053.58,3460.24 6049,3442.5C 6028.39,3366.06 6008.39,3289.39 5989,3212.5C 5979.43,3176.46 5964.43,3142.79 5944,3111.5C 5932.67,3096.26 5918.51,3084.42 5901.5,3076C 5875.21,3062.18 5847.54,3052.35 5818.5,3046.5C 5812.26,3018.51 5809.43,2990.18 5810,2961.5C 5811.74,2958.69 5812.91,2955.69 5813.5,2952.5C 5823.92,2946.86 5833.42,2939.86 5842,2931.5C 5860.51,2904.99 5873.85,2875.99 5882,2844.5C 5882.66,2837.81 5882.5,2831.14 5881.5,2824.5C 5884.19,2824.66 5886.85,2824.5 5889.5,2824C 5886.44,2822.48 5883.78,2820.48 5881.5,2818C 5881.48,2808.26 5877.81,2800.26 5870.5,2794C 5869.83,2793.33 5869.17,2793.33 5868.5,2794C 5871.82,2796.79 5873.32,2800.29 5873,2804.5C 5863.71,2793.59 5852.21,2785.76 5838.5,2781C 5801.6,2769.16 5763.77,2762.32 5725,2760.5C 5707.66,2759.84 5691.5,2763.68 5676.5,2772C 5665.22,2780.66 5659.55,2792.16 5659.5,2806.5C 5659.62,2817.29 5662.46,2827.29 5668,2836.5C 5669.94,2839.11 5672.44,2840.94 5675.5,2842C 5682.16,2842.5 5688.83,2842.67 5695.5,2842.5C 5694.43,2843.43 5693.1,2843.77 5691.5,2843.5C 5680.88,2874.93 5674.88,2907.26 5673.5,2940.5C 5672.42,2951.7 5674.26,2962.37 5679,2972.5C 5680.56,2974.36 5682.39,2975.86 5684.5,2977C 5697.61,2980.69 5710.61,2984.19 5723.5,2987.5C 5723.01,2999.18 5722.34,3010.84 5721.5,3022.5C 5721.5,3033.17 5721.5,3043.83 5721.5,3054.5C 5707.43,3057.19 5694.1,3062.02 5681.5,3069C 5668.62,3076.55 5656.29,3084.88 5644.5,3094C 5627.46,3108.53 5610.79,3123.53 5594.5,3139C 5577.5,3156.67 5560.5,3174.33 5543.5,3192C 5537.08,3198.42 5530.08,3204.09 5522.5,3209C 5520.17,3209.67 5517.83,3209.67 5515.5,3209C 5512.07,3205.96 5509.23,3202.46 5507,3198.5C 5489.76,3166.02 5474.76,3132.69 5462,3098.5C 5454.7,3078.12 5446.86,3057.96 5438.5,3038C 5435.85,3037.5 5433.19,3037.34 5430.5,3037.5C 5433.82,3020.26 5435.16,3002.93 5434.5,2985.5C 5432.71,2985.37 5431.04,2985.7 5429.5,2986.5C 5433.11,2966.43 5437.11,2946.43 5441.5,2926.5C 5454.24,2927.6 5466.9,2929.27 5479.5,2931.5C 5480.42,2931.46 5481.08,2931.12 5481.5,2930.5C 5482.49,2930.33 5483.16,2930.66 5483.5,2931.5C 5491.27,2933.58 5499.27,2935.25 5507.5,2936.5C 5508.42,2936.46 5509.08,2936.12 5509.5,2935.5C 5524.84,2940.01 5540.17,2940.18 5555.5,2936C 5568.14,2930.53 5576.81,2921.36 5581.5,2908.5C 5586.83,2893.19 5587.67,2877.53 5584,2861.5C 5581.31,2854.14 5576.48,2848.64 5569.5,2845C 5554.19,2839.05 5538.86,2833.05 5523.5,2827C 5519.3,2825.32 5514.96,2824.15 5510.5,2823.5C 5486.26,2809.71 5461.93,2795.87 5437.5,2782C 5387.05,2752.27 5340.39,2717.44 5297.5,2677.5C 5297.54,2676.42 5297.87,2675.42 5298.5,2674.5C 5287.21,2669.92 5279.04,2673.26 5274,2684.5C 5251.06,2749.99 5227.73,2815.32 5204,2880.5C 5200.41,2888.63 5199.74,2896.96 5202,2905.5C 5204.79,2911.45 5209.29,2915.45 5215.5,2917.5C 5217.11,2916.68 5217.78,2915.35 5217.5,2913.5C 5235.17,2913.5 5252.83,2913.5 5270.5,2913.5C 5309.44,2913.89 5348.11,2916.22 5386.5,2920.5C 5384.83,2920.5 5383.17,2920.5 5381.5,2920.5C 5379.42,2931.91 5377.08,2943.25 5374.5,2954.5C 5365.62,2961.95 5361.28,2971.62 5361.5,2983.5C 5360.91,2988.13 5362.58,2991.46 5366.5,2993.5C 5362.66,3015.21 5358.49,3036.88 5354,3058.5C 5352.65,3084.15 5364.81,3095.98 5390.5,3094C 5392.02,3092.99 5393.69,3092.49 5395.5,3092.5C 5399.06,3144.29 5405.89,3195.62 5416,3246.5C 5419.9,3262.46 5424.57,3278.12 5430,3293.5C 5435.57,3309.15 5444.07,3322.98 5455.5,3335C 5459.61,3338.39 5464.28,3340.72 5469.5,3342C 5476.49,3342.5 5483.49,3342.67 5490.5,3342.5C 5522.69,3339.53 5554.35,3333.86 5585.5,3325.5C 5571.66,3421.98 5565.49,3518.98 5567,3616.5C 5567.66,3617.98 5568.5,3619.32 5569.5,3620.5C 5567.72,3673.46 5567.06,3726.46 5567.5,3779.5C 5568.33,3805.51 5569.5,3831.51 5571,3857.5C 5585.94,4018.86 5596.27,4180.52 5602,4342.5C 5606.68,4401.32 5612.68,4459.99 5620,4518.5C 5621.04,4519.37 5621.88,4520.37 5622.5,4521.5C 5616.72,4533.89 5608.06,4543.73 5596.5,4551C 5577.27,4561.93 5556.6,4568.93 5534.5,4572C 5524.11,4575.22 5517.78,4582.05 5515.5,4592.5C 5242.67,4592.83 4970,4592.5 4697.5,4591.5C 4705.37,4582.77 4709.87,4572.43 4711,4560.5C 4712.61,4555.67 4714.61,4551 4717,4546.5C 4725.62,4535.54 4734.62,4524.87 4744,4514.5C 4752.29,4502.41 4752.63,4490.07 4745,4477.5C 4741.67,4472.83 4738.33,4468.17 4735,4463.5C 4727.13,4456.07 4719.97,4448.07 4713.5,4439.5C 4713.14,4363.18 4705.81,4287.51 4691.5,4212.5C 4789.83,4210.67 4888.49,4209.84 4987.5,4210C 5010.9,4196.64 5033.9,4182.81 5056.5,4168.5C 5027.35,4054.92 4997.35,3941.58 4966.5,3828.5C 5076.17,3808.65 5152.34,3747.32 5195,3644.5C 5226.15,3556.02 5218.48,3471.35 5172,3390.5C 5047.92,3204.6 4924.09,3018.6 4800.5,2832.5C 4819.1,2821.86 4837.44,2810.69 4855.5,2799C 4862.68,2793.97 4869.68,2788.8 4876.5,2783.5C 5010,2686.78 5101.17,2559.45 5150,2401.5C 5164.38,2351.81 5173.88,2301.15 5178.5,2249.5C 5182.23,2198.68 5180.9,2148.01 5174.5,2097.5C 5158.64,1977.87 5115.98,1869.2 5046.5,1771.5C 4964.97,1655.83 4858.64,1571 4727.5,1517C 4590.26,1462.36 4449.26,1449.52 4304.5,1478.5C 4189.44,1502.82 4086.11,1551.49 3994.5,1624.5C 3976.53,1598.34 3958.7,1572.01 3941,1545.5C 3875.98,1464.09 3791.14,1426.25 3686.5,1432C 3582.27,1442.3 3504.44,1492.8 3453,1583.5C 3358.02,1795.03 3263.18,2006.36 3168.5,2217.5C 3039.5,2217.5 2910.5,2217.5 2781.5,2217.5C 2754.61,2171.39 2726.44,2126.06 2697,2081.5C 2681.19,2058.18 2663.69,2036.18 2644.5,2015.5C 2648.02,2014.83 2651.69,2014.17 2655.5,2013.5C 2683.05,1945.51 2710.38,1877.51 2737.5,1809.5C 2646.17,1809.33 2554.83,1809.5 2463.5,1810C 2460.54,1817.04 2457.54,1823.87 2454.5,1830.5C 2448.03,1790.02 2441.03,1749.68 2433.5,1709.5C 2443.47,1689.25 2448.14,1667.75 2447.5,1645C 2445.21,1577.15 2427.71,1513.65 2395,1454.5C 2391.25,1448.74 2386.75,1443.58 2381.5,1439C 2375.74,1435.78 2369.74,1433.12 2363.5,1431C 2347.87,1429.65 2332.2,1428.49 2316.5,1427.5C 2302.63,1426.96 2289.97,1430.46 2278.5,1438C 2258.98,1451.53 2243.48,1468.7 2232,1489.5C 2221.37,1508.39 2213.7,1528.39 2209,1549.5C 2208.83,1576.33 2199,1598.83 2179.5,1617C 2165.19,1628.82 2150.53,1640.15 2135.5,1651C 2111.71,1669.79 2093.54,1692.96 2081,1720.5C 2067.39,1759.53 2073.23,1795.19 2098.5,1827.5C 2087.78,1861.49 2079.94,1896.16 2075,1931.5C 2073.54,1945.81 2073.2,1960.14 2074,1974.5C 2074.82,1983.64 2077.99,1991.81 2083.5,1999C 2091.87,2004.35 2100.87,2008.35 2110.5,2011C 2138.9,2016.37 2167.57,2018.54 2196.5,2017.5C 2194.59,2018.97 2193.42,2020.97 2193,2023.5C 2181.08,2060.72 2174.58,2098.89 2173.5,2138C 2172.88,2161.43 2177.04,2183.93 2186,2205.5C 2188.67,2209.33 2191.83,2212.67 2195.5,2215.5C 2112.83,2216.17 2030.17,2216.83 1947.5,2217.5C 1935.95,2221.63 1924.28,2225.46 1912.5,2229C 1910.15,2229.71 1908.15,2230.88 1906.5,2232.5C 1978.18,2533.24 2049.85,2833.91 2121.5,3134.5C 2085.63,3114.41 2051.3,3092.07 2018.5,3067.5C 2014.7,3055.6 2011.2,3043.6 2008,3031.5C 2005.16,3021.8 2001.66,3012.46 1997.5,3003.5C 1991.29,2990.63 1981.96,2980.63 1969.5,2973.5C 1970.69,2960.68 1970.69,2948.01 1969.5,2935.5C 1969.1,2929.17 1968.77,2922.84 1968.5,2916.5C 1973.92,2914.78 1979.59,2913.61 1985.5,2913C 1995.17,2912.31 2001.67,2907.48 2005,2898.5C 2007.23,2892.36 2008.56,2886.03 2009,2879.5C 2011.19,2835.92 2005.19,2793.58 1991,2752.5C 1989.3,2749.08 1987.13,2746.08 1984.5,2743.5C 1990.96,2734.58 1994.62,2724.58 1995.5,2713.5C 1994.96,2702.58 1989.96,2694.42 1980.5,2689C 1968.15,2682.24 1954.81,2678.91 1940.5,2679C 1897.87,2677.21 1857.87,2686.55 1820.5,2707C 1804.64,2716.19 1792.14,2728.69 1783,2744.5C 1782.14,2758.81 1783.81,2772.81 1788,2786.5C 1798.28,2818.39 1813.28,2847.72 1833,2874.5C 1838.47,2880.97 1844.3,2887.14 1850.5,2893C 1856.93,2898.21 1863.93,2902.38 1871.5,2905.5C 1871.76,2915.87 1871.43,2926.21 1870.5,2936.5C 1866.57,2938.59 1863.41,2941.59 1861,2945.5C 1856.47,2953.9 1851.97,2962.23 1847.5,2970.5C 1834.88,2975.61 1824.38,2983.61 1816,2994.5C 1802.01,3015.15 1790.67,3037.15 1782,3060.5C 1770.9,3093.35 1761.57,3126.69 1754,3160.5C 1724.69,3304.36 1712.03,3449.69 1716,3596.5C 1716.47,3605.57 1719.14,3613.91 1724,3621.5C 1727.37,3624.7 1730.54,3628.04 1733.5,3631.5C 1739.03,3718.08 1740.86,3804.75 1739,3891.5C 1737.65,3938.48 1733.31,3985.15 1726,4031.5C 1723.59,4043.99 1720.76,4056.32 1717.5,4068.5C 1715.54,4073.98 1713.7,4079.65 1712,4085.5C 1702.89,4126.83 1695.89,4168.49 1691,4210.5C 1680.76,4313.91 1675.59,4417.57 1675.5,4521.5C 1677.9,4521.26 1679.9,4521.93 1681.5,4523.5C 1682.72,4546.51 1687.05,4568.84 1694.5,4590.5C 1621.34,4591.5 1548,4591.83 1474.5,4591.5C 1476.98,4585.96 1477.15,4580.3 1475,4574.5C 1465.36,4559.9 1451.69,4552.57 1434,4552.5C 1424,4552.73 1414.17,4554.06 1404.5,4556.5C 1403.5,4556.17 1402.5,4555.83 1401.5,4555.5C 1397.36,4507.96 1389.86,4460.96 1379,4414.5C 1373.11,4392.5 1365.44,4371.16 1356,4350.5C 1348.99,4335.99 1338.82,4324.16 1325.5,4315C 1307.9,4308.24 1290.9,4309.57 1274.5,4319C 1265.83,4326.95 1262.99,4336.78 1266,4348.5C 1269.62,4360.07 1274.62,4371.07 1281,4381.5C 1294.58,4401.66 1307.92,4422 1321,4442.5C 1340.09,4481.76 1356.59,4522.1 1370.5,4563.5C 1363.54,4565.09 1356.54,4566.42 1349.5,4567.5C 1339.72,4536.26 1326.88,4506.26 1311,4477.5C 1301.71,4461.55 1290.21,4447.38 1276.5,4435C 1257.01,4421.75 1237.01,4421.08 1216.5,4433C 1207.65,4438.88 1204.49,4447.04 1207,4457.5C 1208.56,4463.95 1211.22,4469.95 1215,4475.5C 1222.5,4484.33 1230.67,4492.5 1239.5,4500C 1274.03,4521.76 1307.7,4544.76 1340.5,4569C 1332.05,4571.14 1323.38,4572.48 1314.5,4573C 1294.75,4572.86 1275.08,4573.86 1255.5,4576C 1242.33,4578.76 1230.33,4583.92 1219.5,4591.5C 1183.83,4591.5 1148.17,4591.5 1112.5,4591.5C 1092.66,4590.83 1072.66,4590.17 1052.5,4589.5C 943.315,4440.06 870.149,4274.06 833,4091.5C 788.187,3850.66 818.52,3619.99 924,3399.5C 978.824,3289.17 1046.16,3187.17 1126,3093.5C 1161.56,3052.93 1198.23,3013.27 1236,2974.5C 1306.82,2893.04 1338.82,2798.04 1332,2689.5C 1329.45,2649.19 1323.12,2609.52 1313,2570.5C 1303.78,2537.27 1293.78,2504.27 1283,2471.5C 1254.16,2394.31 1224.16,2317.65 1193,2241.5C 1166.87,2175.76 1145.53,2108.43 1129,2039.5C 1118.35,1990.06 1113.35,1940.06 1114,1889.5C 1117.43,1800.55 1145.09,1720.21 1197,1648.5C 1270.05,1554.28 1352.55,1468.95 1444.5,1392.5C 1603.13,1263.49 1784.47,1184.66 1988.5,1156C 2077.61,1144.48 2167.11,1138.98 2257,1139.5C 2345.33,1141.04 2433.66,1142.37 2522,1143.5C 2608.31,1145.02 2694.14,1139.52 2779.5,1127C 2926.92,1103.77 3056.59,1043.77 3168.5,947C 3198.07,921.764 3226.07,894.764 3252.5,866C 3360.7,760.704 3485.7,681.371 3627.5,628C 3772.86,574.128 3923.19,543.795 4078.5,537C 4100.83,536.035 4123.17,535.202 4145.5,534.5 Z"/></g>
<g><path style="opacity:1" fill="#f0b7a1" d="M 4107.5,798.5 C 4169.83,799.167 4232.17,799.833 4294.5,800.5C 4231.83,800.833 4169.16,800.5 4106.5,799.5C 4106.62,798.893 4106.96,798.56 4107.5,798.5 Z"/></g>
<g><path style="opacity:1" fill="#afc3fe" d="M 2943.5,1288.5 C 2948.73,1287.83 2953.57,1288.83 2958,1291.5C 2958.86,1293.09 2959.53,1294.75 2960,1296.5C 2970.8,1405.83 2981.47,1515.16 2992,1624.5C 2992.33,1624.83 2992.67,1625.17 2993,1625.5C 3035.29,1601.27 3077.79,1577.44 3120.5,1554C 3137.95,1550.97 3150.11,1557.47 3157,1573.5C 3157.67,1578.5 3157.67,1583.5 3157,1588.5C 3150.68,1625.06 3145.01,1661.73 3140,1698.5C 3129.94,1790.94 3118.94,1883.27 3107,1975.5C 3104.09,1994.23 3100.76,2012.9 3097,2031.5C 3089.2,2040.15 3081.2,2040.48 3073,2032.5C 3072.14,2030.91 3071.47,2029.25 3071,2027.5C 3056.17,1936.04 3040.84,1844.71 3025,1753.5C 2981.83,1785.33 2938.67,1817.17 2895.5,1849C 2882.26,1854.96 2873.09,1851.13 2868,1837.5C 2868.17,1826.12 2869.17,1814.79 2871,1803.5C 2893.32,1636.24 2914.99,1468.91 2936,1301.5C 2936,1295.61 2938.5,1291.27 2943.5,1288.5 Z"/></g>
<g><path style="opacity:1" fill="#233863" d="M 2433.5,1709.5 C 2427.36,1698.52 2418.69,1690.02 2407.5,1684C 2387.7,1673.68 2366.7,1666.84 2344.5,1663.5C 2343.17,1660.5 2343.17,1657.5 2344.5,1654.5C 2345.25,1650.19 2345.91,1645.85 2346.5,1641.5C 2347.42,1641.02 2348.42,1640.69 2349.5,1640.5C 2359.61,1644.81 2368.11,1642.81 2375,1634.5C 2393.59,1608.06 2401.59,1578.73 2399,1546.5C 2397.93,1535.2 2394.26,1524.87 2388,1515.5C 2386.87,1513.79 2385.37,1513.29 2383.5,1514C 2365.21,1527.65 2345.54,1538.98 2324.5,1548C 2309.54,1552.79 2294.21,1554.62 2278.5,1553.5C 2277.5,1562.3 2276.84,1571.13 2276.5,1580C 2276.35,1585.47 2277.01,1590.81 2278.5,1596C 2276.11,1611.87 2272.27,1627.37 2267,1642.5C 2264.78,1647.65 2261.61,1651.98 2257.5,1655.5C 2227.13,1657 2198.8,1665.17 2172.5,1680C 2159.49,1689.18 2149.66,1701.02 2143,1715.5C 2125.63,1751.89 2110.8,1789.23 2098.5,1827.5C 2073.23,1795.19 2067.39,1759.53 2081,1720.5C 2093.54,1692.96 2111.71,1669.79 2135.5,1651C 2150.53,1640.15 2165.19,1628.82 2179.5,1617C 2199,1598.83 2208.83,1576.33 2209,1549.5C 2213.7,1528.39 2221.37,1508.39 2232,1489.5C 2243.48,1468.7 2258.98,1451.53 2278.5,1438C 2289.97,1430.46 2302.63,1426.96 2316.5,1427.5C 2332.2,1428.49 2347.87,1429.65 2363.5,1431C 2369.74,1433.12 2375.74,1435.78 2381.5,1439C 2386.75,1443.58 2391.25,1448.74 2395,1454.5C 2427.71,1513.65 2445.21,1577.15 2447.5,1645C 2448.14,1667.75 2443.47,1689.25 2433.5,1709.5 Z"/></g>
<g><path style="opacity:1" fill="#f67d48" d="M 3994.5,1624.5 C 4037.47,1689.15 4080.47,1753.82 4123.5,1818.5C 4212.18,1951.2 4300.85,2083.87 4389.5,2216.5C 4389.33,2217.49 4389.66,2218.16 4390.5,2218.5C 4471.93,2341.04 4553.6,2463.38 4635.5,2585.5C 4690.14,2668.13 4745.14,2750.46 4800.5,2832.5C 4924.09,3018.6 5047.92,3204.6 5172,3390.5C 5218.48,3471.35 5226.15,3556.02 5195,3644.5C 5152.34,3747.32 5076.17,3808.65 4966.5,3828.5C 4852.87,3838.55 4739.21,3848.22 4625.5,3857.5C 4625.74,3856.21 4625.4,3855.21 4624.5,3854.5C 4622.44,3802.15 4620.11,3749.82 4617.5,3697.5C 4723.86,3688.94 4830.19,3680.11 4936.5,3671C 4999.63,3660.53 5038.13,3624.03 5052,3561.5C 5056.99,3527.45 5049.99,3496.11 5031,3467.5C 4625.75,2860.67 4220.75,2253.67 3816,1646.5C 3779.37,1599.46 3731.87,1582.62 3673.5,1596C 3640.51,1605.74 3615.01,1625.24 3597,1654.5C 3413.32,2064.83 3229.82,2474.83 3046.5,2884.5C 3012.48,2838.8 2970.48,2802.47 2920.5,2775.5C 2965.25,2673.26 3010.58,2571.26 3056.5,2469.5C 3081.18,2413.79 3105.84,2358.13 3130.5,2302.5C 3131.34,2302.16 3131.67,2301.49 3131.5,2300.5C 3144.64,2273.22 3156.97,2245.56 3168.5,2217.5C 3263.18,2006.36 3358.02,1795.03 3453,1583.5C 3504.44,1492.8 3582.27,1442.3 3686.5,1432C 3791.14,1426.25 3875.98,1464.09 3941,1545.5C 3958.7,1572.01 3976.53,1598.34 3994.5,1624.5 Z"/></g>
<g><path style="opacity:1" fill="#dbe7fd" d="M 5046.5,1771.5 C 5042.2,1770.87 5037.86,1770.37 5033.5,1770C 5014.71,1760.14 4994.71,1754.64 4973.5,1753.5C 4960.17,1753.33 4948.17,1757.16 4937.5,1765C 4927.23,1779.47 4913.23,1787.81 4895.5,1790C 4878.14,1791.02 4860.81,1792.35 4843.5,1794C 4819.62,1798.05 4805.62,1811.88 4801.5,1835.5C 4801.2,1845.06 4805.53,1851.56 4814.5,1855C 4821.78,1857.54 4829.12,1859.87 4836.5,1862C 4861.59,1865.37 4885.92,1871.37 4909.5,1880C 4928,1887.83 4941.17,1901 4949,1919.5C 4951.66,1926.82 4954.33,1934.16 4957,1941.5C 4960.07,1957.53 4964.41,1973.2 4970,1988.5C 4973.92,1995.56 4979.75,2000.39 4987.5,2003C 4994.56,2004.76 5001.73,2005.59 5009,2005.5C 5036.43,2001.1 5058.76,2009.77 5076,2031.5C 5085,2043.5 5094,2055.5 5103,2067.5C 5111.79,2078.3 5122.29,2086.8 5134.5,2093C 5147.48,2097.98 5160.81,2099.48 5174.5,2097.5C 5180.9,2148.01 5182.23,2198.68 5178.5,2249.5C 5173.87,2245.18 5168.53,2241.84 5162.5,2239.5C 5162.04,2235.39 5160.54,2231.72 5158,2228.5C 5144.95,2218.22 5130.45,2210.39 5114.5,2205C 5099.56,2200.13 5084.56,2195.46 5069.5,2191C 5049.43,2182.55 5034.26,2168.71 5024,2149.5C 5016.12,2132.75 5009.12,2115.75 5003,2098.5C 4987.73,2061.42 4959.9,2041.92 4919.5,2040C 4902.11,2038.14 4885.11,2039.81 4868.5,2045C 4851.72,2052.78 4834.05,2056.94 4815.5,2057.5C 4810.12,2057.46 4804.79,2056.96 4799.5,2056C 4778.58,2049.98 4757.24,2046.48 4735.5,2045.5C 4681.26,2046.45 4660.92,2073.28 4674.5,2126C 4674.2,2136.25 4671.03,2145.42 4665,2153.5C 4655.64,2163.2 4645.97,2172.53 4636,2181.5C 4624.09,2197.57 4620.09,2215.57 4624,2235.5C 4629.62,2266.27 4646.46,2288.44 4674.5,2302C 4692.49,2309.6 4711.16,2314.93 4730.5,2318C 4755.8,2320.75 4781.13,2323.09 4806.5,2325C 4822.55,2329.6 4827.39,2339.77 4821,2355.5C 4814.72,2372.36 4808.05,2389.03 4801,2405.5C 4794.22,2424.42 4792.55,2443.76 4796,2463.5C 4802.6,2480.45 4812.77,2494.95 4826.5,2507C 4835.47,2514.82 4844.8,2522.15 4854.5,2529C 4870.17,2538.5 4885.51,2548.5 4900.5,2559C 4903.33,2561.83 4906.17,2564.67 4909,2567.5C 4912.33,2572.83 4912.33,2578.17 4909,2583.5C 4906.83,2585.67 4904.67,2587.83 4902.5,2590C 4881.28,2603.78 4860.94,2618.78 4841.5,2635C 4824.17,2649.65 4810.67,2667.15 4801,2687.5C 4793.77,2706.96 4795.44,2725.63 4806,2743.5C 4823.1,2768.13 4846.6,2781.47 4876.5,2783.5C 4869.68,2788.8 4862.68,2793.97 4855.5,2799C 4837.44,2810.69 4819.1,2821.86 4800.5,2832.5C 4745.14,2750.46 4690.14,2668.13 4635.5,2585.5C 4603.1,2462.56 4570.1,2339.9 4536.5,2217.5C 4487.67,2216.5 4438.67,2216.17 4389.5,2216.5C 4300.85,2083.87 4212.18,1951.2 4123.5,1818.5C 4138.93,1822.71 4153.6,1828.88 4167.5,1837C 4192,1852.08 4216.34,1867.42 4240.5,1883C 4261.71,1893.64 4278.21,1888.8 4290,1868.5C 4298.3,1849.9 4307.63,1831.9 4318,1814.5C 4333.47,1794.57 4353.64,1787.74 4378.5,1794C 4384.8,1795.44 4391.14,1796.77 4397.5,1798C 4420.36,1805.4 4443.36,1812.4 4466.5,1819C 4472.78,1820.42 4479.11,1820.76 4485.5,1820C 4488.33,1819.17 4490.17,1817.33 4491,1814.5C 4493.59,1800.52 4489.09,1789.35 4477.5,1781C 4470.5,1776.16 4463.16,1771.83 4455.5,1768C 4436.39,1760.72 4417.05,1754.05 4397.5,1748C 4383.26,1742.61 4375.26,1732.44 4373.5,1717.5C 4374.59,1707.46 4377.09,1697.8 4381,1688.5C 4389,1672.5 4397,1656.5 4405,1640.5C 4408.5,1631.68 4409.17,1622.68 4407,1613.5C 4396.7,1599.19 4386.36,1584.85 4376,1570.5C 4369.23,1557.63 4363.56,1544.3 4359,1530.5C 4349.03,1508.19 4333.19,1491.36 4311.5,1480C 4309.26,1479.02 4306.93,1478.52 4304.5,1478.5C 4449.26,1449.52 4590.26,1462.36 4727.5,1517C 4858.64,1571 4964.97,1655.83 5046.5,1771.5 Z"/></g>
<g><path style="opacity:1" fill="#bacdfe" d="M 4304.5,1478.5 C 4306.93,1478.52 4309.26,1479.02 4311.5,1480C 4333.19,1491.36 4349.03,1508.19 4359,1530.5C 4363.56,1544.3 4369.23,1557.63 4376,1570.5C 4386.36,1584.85 4396.7,1599.19 4407,1613.5C 4409.17,1622.68 4408.5,1631.68 4405,1640.5C 4397,1656.5 4389,1672.5 4381,1688.5C 4377.09,1697.8 4374.59,1707.46 4373.5,1717.5C 4375.26,1732.44 4383.26,1742.61 4397.5,1748C 4417.05,1754.05 4436.39,1760.72 4455.5,1768C 4463.16,1771.83 4470.5,1776.16 4477.5,1781C 4489.09,1789.35 4493.59,1800.52 4491,1814.5C 4490.17,1817.33 4488.33,1819.17 4485.5,1820C 4479.11,1820.76 4472.78,1820.42 4466.5,1819C 4443.36,1812.4 4420.36,1805.4 4397.5,1798C 4391.14,1796.77 4384.8,1795.44 4378.5,1794C 4353.64,1787.74 4333.47,1794.57 4318,1814.5C 4307.63,1831.9 4298.3,1849.9 4290,1868.5C 4278.21,1888.8 4261.71,1893.64 4240.5,1883C 4216.34,1867.42 4192,1852.08 4167.5,1837C 4153.6,1828.88 4138.93,1822.71 4123.5,1818.5C 4080.47,1753.82 4037.47,1689.15 3994.5,1624.5C 4086.11,1551.49 4189.44,1502.82 4304.5,1478.5 Z"/></g>
<g><path style="opacity:1" fill="#feb17d" d="M 2346.5,1641.5 C 2346.53,1640.5 2346.03,1639.84 2345,1639.5C 2323.02,1634.26 2303.85,1624.6 2287.5,1610.5C 2298.93,1634.93 2317.93,1649.6 2344.5,1654.5C 2343.17,1657.5 2343.17,1660.5 2344.5,1663.5C 2341.42,1667.75 2337.76,1671.58 2333.5,1675C 2324.68,1678.5 2315.68,1679.17 2306.5,1677C 2289.17,1672 2272.83,1664.83 2257.5,1655.5C 2261.61,1651.98 2264.78,1647.65 2267,1642.5C 2272.27,1627.37 2276.11,1611.87 2278.5,1596C 2277.01,1590.81 2276.35,1585.47 2276.5,1580C 2276.84,1571.13 2277.5,1562.3 2278.5,1553.5C 2294.21,1554.62 2309.54,1552.79 2324.5,1548C 2345.54,1538.98 2365.21,1527.65 2383.5,1514C 2385.37,1513.29 2386.87,1513.79 2388,1515.5C 2394.26,1524.87 2397.93,1535.2 2399,1546.5C 2401.59,1578.73 2393.59,1608.06 2375,1634.5C 2368.11,1642.81 2359.61,1644.81 2349.5,1640.5C 2348.42,1640.69 2347.42,1641.02 2346.5,1641.5 Z"/></g>
<g><path style="opacity:1" fill="#bacdfe" d="M 4481.5,1548.5 C 4491.75,1547.73 4501.75,1548.9 4511.5,1552C 4533.46,1563.26 4556.79,1569.59 4581.5,1571C 4605.08,1578.61 4625.58,1591.11 4643,1608.5C 4654.39,1625.88 4653.72,1642.88 4641,1659.5C 4636.5,1665.33 4631.33,1670.5 4625.5,1675C 4609.81,1671.21 4595.81,1674.54 4583.5,1685C 4567.6,1702.25 4549.93,1717.25 4530.5,1730C 4515.11,1738.65 4502.94,1735.49 4494,1720.5C 4492.32,1717.14 4490.65,1713.8 4489,1710.5C 4482.52,1689.72 4476.85,1668.72 4472,1647.5C 4467.57,1631.97 4462.57,1616.64 4457,1601.5C 4454.76,1590.41 4455.1,1579.41 4458,1568.5C 4462.7,1557.93 4470.53,1551.27 4481.5,1548.5 Z"/></g>
<g><path style="opacity:1" fill="#e6eefe" d="M 4617.5,3697.5 C 4615.79,3670.55 4613.96,3643.55 4612,3616.5C 4609.84,3603.51 4606.5,3590.85 4602,3578.5C 4584.84,3536.18 4563.01,3496.51 4536.5,3459.5C 4536.5,3455.5 4536.5,3451.5 4536.5,3447.5C 4535.17,3447.5 4533.83,3447.5 4532.5,3447.5C 4576.52,3445.94 4619.52,3438.11 4661.5,3424C 4674.53,3418.65 4686.86,3411.99 4698.5,3404C 4705.04,3395.85 4707.71,3386.52 4706.5,3376C 4706.51,3369.79 4706.01,3363.62 4705,3357.5C 4700.59,3338.74 4694.92,3320.41 4688,3302.5C 4668.71,3256.58 4646.71,3211.92 4622,3168.5C 4601.65,3133.15 4572.82,3107.32 4535.5,3091C 4528.43,3088.26 4521.09,3086.6 4513.5,3086C 4498.16,3085.09 4482.83,3084.26 4467.5,3083.5C 4466.6,3082.79 4466.26,3081.79 4466.5,3080.5C 4491.81,3082.28 4516.14,3078.45 4539.5,3069C 4567.53,3054.44 4581.2,3031.27 4580.5,2999.5C 4579.57,2979.57 4575.74,2960.24 4569,2941.5C 4549.32,2891.65 4519.82,2848.48 4480.5,2812C 4465.91,2798.54 4448.91,2789.54 4429.5,2785C 4412.9,2782.75 4396.9,2784.75 4381.5,2791C 4322.19,2794.65 4288.02,2825.82 4279,2884.5C 4277.51,2897.47 4277.17,2910.47 4278,2923.5C 4280.95,2938.4 4283.45,2953.4 4285.5,2968.5C 4284.66,2977.19 4283.5,2985.86 4282,2994.5C 4279.08,3004.44 4276.41,3014.44 4274,3024.5C 4270.68,3038.26 4273.85,3050.1 4283.5,3060C 4297.53,3069.12 4312.86,3075.12 4329.5,3078C 4342.77,3080.16 4356.1,3081.66 4369.5,3082.5C 4369.5,3083.83 4369.5,3085.17 4369.5,3086.5C 4342.31,3087.81 4315.98,3092.97 4290.5,3102C 4279.26,3106.87 4269.1,3113.37 4260,3121.5C 4254.44,3131.28 4249.44,3141.28 4245,3151.5C 4229.19,3191.45 4213.69,3231.45 4198.5,3271.5C 4172.49,3271.3 4146.49,3271.8 4120.5,3273C 4126.92,3287.01 4132.92,3301.18 4138.5,3315.5C 4134.98,3329.11 4138.31,3340.95 4148.5,3351C 4150.47,3351.5 4152.47,3351.66 4154.5,3351.5C 4180.09,3411.69 4205.43,3472.02 4230.5,3532.5C 4237.5,3532.5 4244.5,3532.5 4251.5,3532.5C 4261.23,3531.86 4270.56,3532.53 4279.5,3534.5C 4268.45,3572.03 4259.29,3610.03 4252,3648.5C 4251.31,3655.65 4250.81,3662.82 4250.5,3670C 4251.86,3689.5 4253.2,3709 4254.5,3728.5C 3775.35,3768.92 3296.18,3809.25 2817,3849.5C 2753.6,3845.41 2711.6,3813.41 2691,3753.5C 2683.95,3725.73 2685.28,3698.4 2695,3671.5C 2723.98,3607.38 2752.48,3543.05 2780.5,3478.5C 2901.75,3464.32 2995.58,3406.32 3062,3304.5C 3113.15,3219.29 3129.48,3127.63 3111,3029.5C 3099.24,2976.66 3077.74,2928.33 3046.5,2884.5C 3229.82,2474.83 3413.32,2064.83 3597,1654.5C 3615.01,1625.24 3640.51,1605.74 3673.5,1596C 3731.87,1582.62 3779.37,1599.46 3816,1646.5C 4220.75,2253.67 4625.75,2860.67 5031,3467.5C 5049.99,3496.11 5056.99,3527.45 5052,3561.5C 5038.13,3624.03 4999.63,3660.53 4936.5,3671C 4830.19,3680.11 4723.86,3688.94 4617.5,3697.5 Z"/></g>
<g><path style="opacity:1" fill="#ec975d" d="M 2346.5,1641.5 C 2345.91,1645.85 2345.25,1650.19 2344.5,1654.5C 2317.93,1649.6 2298.93,1634.93 2287.5,1610.5C 2303.85,1624.6 2323.02,1634.26 2345,1639.5C 2346.03,1639.84 2346.53,1640.5 2346.5,1641.5 Z"/></g>
<g><path style="opacity:1" fill="#f99646" d="M 2257.5,1655.5 C 2272.83,1664.83 2289.17,1672 2306.5,1677C 2315.68,1679.17 2324.68,1678.5 2333.5,1675C 2337.76,1671.58 2341.42,1667.75 2344.5,1663.5C 2366.7,1666.84 2387.7,1673.68 2407.5,1684C 2418.69,1690.02 2427.36,1698.52 2433.5,1709.5C 2441.03,1749.68 2448.03,1790.02 2454.5,1830.5C 2434.38,1881.55 2413.72,1932.21 2392.5,1982.5C 2382.75,1977.12 2372.75,1971.96 2362.5,1967C 2350.18,1965.83 2337.85,1966.33 2325.5,1968.5C 2302.66,1958.09 2279.66,1947.59 2256.5,1937C 2246.22,1932.05 2237.06,1925.55 2229,1917.5C 2223.34,1908.17 2219.34,1898.17 2217,1887.5C 2214.31,1872.28 2212.65,1856.95 2212,1841.5C 2203.92,1854.67 2195.58,1867.67 2187,1880.5C 2184.37,1884.07 2184.2,1887.57 2186.5,1891C 2185.62,1891.71 2184.95,1892.54 2184.5,1893.5C 2183.69,1891.71 2183.19,1889.71 2183,1887.5C 2173.85,1900.8 2166.02,1914.8 2159.5,1929.5C 2168.91,1934.02 2178.91,1937.02 2189.5,1938.5C 2215.23,1943.88 2240.9,1949.71 2266.5,1956C 2276.64,1958.93 2286.64,1962.27 2296.5,1966C 2299.36,1967.69 2301.69,1969.86 2303.5,1972.5C 2304.39,1981.8 2304.72,1991.13 2304.5,2000.5C 2310.17,2000.5 2315.83,2000.5 2321.5,2000.5C 2316.02,2001.49 2310.36,2001.82 2304.5,2001.5C 2304.5,2003.17 2304.5,2004.83 2304.5,2006.5C 2301.5,2006.5 2298.5,2006.5 2295.5,2006.5C 2295.5,2008.17 2295.5,2009.83 2295.5,2011.5C 2262.55,2014.21 2229.55,2016.21 2196.5,2017.5C 2167.57,2018.54 2138.9,2016.37 2110.5,2011C 2100.87,2008.35 2091.87,2004.35 2083.5,1999C 2077.99,1991.81 2074.82,1983.64 2074,1974.5C 2073.2,1960.14 2073.54,1945.81 2075,1931.5C 2079.94,1896.16 2087.78,1861.49 2098.5,1827.5C 2110.8,1789.23 2125.63,1751.89 2143,1715.5C 2149.66,1701.02 2159.49,1689.18 2172.5,1680C 2198.8,1665.17 2227.13,1657 2257.5,1655.5 Z"/></g>
<g><path style="opacity:1" fill="#bacdfe" d="M 5046.5,1771.5 C 5115.98,1869.2 5158.64,1977.87 5174.5,2097.5C 5160.81,2099.48 5147.48,2097.98 5134.5,2093C 5122.29,2086.8 5111.79,2078.3 5103,2067.5C 5094,2055.5 5085,2043.5 5076,2031.5C 5058.76,2009.77 5036.43,2001.1 5009,2005.5C 5001.73,2005.59 4994.56,2004.76 4987.5,2003C 4979.75,2000.39 4973.92,1995.56 4970,1988.5C 4964.41,1973.2 4960.07,1957.53 4957,1941.5C 4954.33,1934.16 4951.66,1926.82 4949,1919.5C 4941.17,1901 4928,1887.83 4909.5,1880C 4885.92,1871.37 4861.59,1865.37 4836.5,1862C 4829.12,1859.87 4821.78,1857.54 4814.5,1855C 4805.53,1851.56 4801.2,1845.06 4801.5,1835.5C 4805.62,1811.88 4819.62,1798.05 4843.5,1794C 4860.81,1792.35 4878.14,1791.02 4895.5,1790C 4913.23,1787.81 4927.23,1779.47 4937.5,1765C 4948.17,1757.16 4960.17,1753.33 4973.5,1753.5C 4994.71,1754.64 5014.71,1760.14 5033.5,1770C 5037.86,1770.37 5042.2,1770.87 5046.5,1771.5 Z"/></g>
<g><path style="opacity:1" fill="#233863" d="M 2644.5,2015.5 C 2528.17,2015.5 2411.83,2015.5 2295.5,2015.5C 2295.5,2014.17 2295.5,2012.83 2295.5,2011.5C 2295.5,2009.83 2295.5,2008.17 2295.5,2006.5C 2298.5,2006.5 2301.5,2006.5 2304.5,2006.5C 2323.17,2006.5 2341.83,2006.5 2360.5,2006.5C 2368.2,2006.83 2375.86,2006.5 2383.5,2005.5C 2383.86,2004.82 2384.2,2004.15 2384.5,2003.5C 2387.91,1996.97 2390.57,1989.97 2392.5,1982.5C 2413.72,1932.21 2434.38,1881.55 2454.5,1830.5C 2457.54,1823.87 2460.54,1817.04 2463.5,1810C 2554.83,1809.5 2646.17,1809.33 2737.5,1809.5C 2710.38,1877.51 2683.05,1945.51 2655.5,2013.5C 2651.69,2014.17 2648.02,2014.83 2644.5,2015.5 Z"/></g>
<g><path style="opacity:1" fill="#ed7d2b" d="M 2325.5,1968.5 C 2318.32,1969.99 2310.99,1971.32 2303.5,1972.5C 2301.69,1969.86 2299.36,1967.69 2296.5,1966C 2286.64,1962.27 2276.64,1958.93 2266.5,1956C 2240.9,1949.71 2215.23,1943.88 2189.5,1938.5C 2189.06,1923.34 2187.4,1908.34 2184.5,1893.5C 2184.95,1892.54 2185.62,1891.71 2186.5,1891C 2184.2,1887.57 2184.37,1884.07 2187,1880.5C 2195.58,1867.67 2203.92,1854.67 2212,1841.5C 2212.65,1856.95 2214.31,1872.28 2217,1887.5C 2219.34,1898.17 2223.34,1908.17 2229,1917.5C 2237.06,1925.55 2246.22,1932.05 2256.5,1937C 2279.66,1947.59 2302.66,1958.09 2325.5,1968.5 Z"/></g>
<g><path style="opacity:1" fill="#f9f9fa" d="M 2572.5,1898.5 C 2584.48,1898.46 2588.64,1904.13 2585,1915.5C 2580.25,1923.12 2573.42,1926.29 2564.5,1925C 2558.35,1921.31 2556.85,1916.15 2560,1909.5C 2563.12,1904.54 2567.29,1900.87 2572.5,1898.5 Z"/></g>
<g><path style="opacity:1" fill="#ebf1f6" d="M 2184.5,1893.5 C 2187.4,1908.34 2189.06,1923.34 2189.5,1938.5C 2178.91,1937.02 2168.91,1934.02 2159.5,1929.5C 2166.02,1914.8 2173.85,1900.8 2183,1887.5C 2183.19,1889.71 2183.69,1891.71 2184.5,1893.5 Z"/></g>
<g><path style="opacity:1" fill="#feb17c" d="M 2392.5,1982.5 C 2390.57,1989.97 2387.91,1996.97 2384.5,2003.5C 2379.47,1999.66 2374.47,1995.49 2369.5,1991C 2364.59,1990.37 2359.93,1990.87 2355.5,1992.5C 2344.39,1996.11 2333.06,1998.78 2321.5,2000.5C 2315.83,2000.5 2310.17,2000.5 2304.5,2000.5C 2304.72,1991.13 2304.39,1981.8 2303.5,1972.5C 2310.99,1971.32 2318.32,1969.99 2325.5,1968.5C 2337.85,1966.33 2350.18,1965.83 2362.5,1967C 2372.75,1971.96 2382.75,1977.12 2392.5,1982.5 Z"/></g>
<g><path style="opacity:1" fill="#f99746" d="M 2384.5,2003.5 C 2384.2,2004.15 2383.86,2004.82 2383.5,2005.5C 2375.86,2006.5 2368.2,2006.83 2360.5,2006.5C 2359.41,2001.64 2357.74,1996.98 2355.5,1992.5C 2359.93,1990.87 2364.59,1990.37 2369.5,1991C 2374.47,1995.49 2379.47,1999.66 2384.5,2003.5 Z"/></g>
<g><path style="opacity:1" fill="#ed7d2b" d="M 2355.5,1992.5 C 2357.74,1996.98 2359.41,2001.64 2360.5,2006.5C 2341.83,2006.5 2323.17,2006.5 2304.5,2006.5C 2304.5,2004.83 2304.5,2003.17 2304.5,2001.5C 2310.36,2001.82 2316.02,2001.49 2321.5,2000.5C 2333.06,1998.78 2344.39,1996.11 2355.5,1992.5 Z"/></g>
<g><path style="opacity:1" fill="#2a4f96" d="M 2295.5,2011.5 C 2295.5,2012.83 2295.5,2014.17 2295.5,2015.5C 2411.83,2015.5 2528.17,2015.5 2644.5,2015.5C 2663.69,2036.18 2681.19,2058.18 2697,2081.5C 2726.44,2126.06 2754.61,2171.39 2781.5,2217.5C 2796.06,2245.61 2811.39,2273.28 2827.5,2300.5C 2827.5,2300.83 2827.5,2301.17 2827.5,2301.5C 2850.18,2343.52 2872.35,2385.86 2894,2428.5C 2894.67,2429.5 2894.67,2430.5 2894,2431.5C 2892.62,2432.71 2891.46,2434.04 2890.5,2435.5C 2886.19,2437.66 2881.86,2439.82 2877.5,2442C 2865.67,2444.89 2853.67,2446.06 2841.5,2445.5C 2839.01,2445.7 2836.68,2445.2 2834.5,2444C 2781.77,2398.1 2730.43,2350.6 2680.5,2301.5C 2667.79,2289.03 2655.79,2276.03 2644.5,2262.5C 2638.38,2255.53 2633.21,2247.87 2629,2239.5C 2620.6,2220.29 2612.6,2200.96 2605,2181.5C 2601.12,2172.24 2595.62,2164.08 2588.5,2157C 2585.83,2155.44 2582.99,2154.28 2580,2153.5C 2571.37,2156.31 2563.2,2159.98 2555.5,2164.5C 2527.65,2177.95 2499.31,2190.11 2470.5,2201C 2454.74,2206.38 2438.74,2210.88 2422.5,2214.5C 2419.14,2215.04 2415.8,2215.71 2412.5,2216.5C 2403.93,2218.21 2395.26,2219.38 2386.5,2220C 2327.17,2220.67 2267.83,2220.67 2208.5,2220C 2204.46,2219.89 2200.8,2218.72 2197.5,2216.5C 2196.83,2216.17 2196.17,2215.83 2195.5,2215.5C 2191.83,2212.67 2188.67,2209.33 2186,2205.5C 2177.04,2183.93 2172.88,2161.43 2173.5,2138C 2174.58,2098.89 2181.08,2060.72 2193,2023.5C 2193.42,2020.97 2194.59,2018.97 2196.5,2017.5C 2229.55,2016.21 2262.55,2014.21 2295.5,2011.5 Z"/></g>
<g><path style="opacity:1" fill="#f67d48" d="M 3926.5,2024.5 C 3927.83,2024.5 3929.17,2024.5 3930.5,2024.5C 3944.78,2371.18 3959.45,2717.85 3974.5,3064.5C 3873.16,3073.38 3772,3081.71 3671,3089.5C 3627.75,2745.81 3584.25,2402.14 3540.5,2058.5C 3669.26,2046.83 3797.92,2035.49 3926.5,2024.5 Z"/></g>
<g><path style="opacity:1" fill="#bacdfe" d="M 5178.5,2249.5 C 5173.88,2301.15 5164.38,2351.81 5150,2401.5C 5101.17,2559.45 5010,2686.78 4876.5,2783.5C 4846.6,2781.47 4823.1,2768.13 4806,2743.5C 4795.44,2725.63 4793.77,2706.96 4801,2687.5C 4810.67,2667.15 4824.17,2649.65 4841.5,2635C 4860.94,2618.78 4881.28,2603.78 4902.5,2590C 4904.67,2587.83 4906.83,2585.67 4909,2583.5C 4912.33,2578.17 4912.33,2572.83 4909,2567.5C 4906.17,2564.67 4903.33,2561.83 4900.5,2559C 4885.51,2548.5 4870.17,2538.5 4854.5,2529C 4844.8,2522.15 4835.47,2514.82 4826.5,2507C 4812.77,2494.95 4802.6,2480.45 4796,2463.5C 4792.55,2443.76 4794.22,2424.42 4801,2405.5C 4808.05,2389.03 4814.72,2372.36 4821,2355.5C 4827.39,2339.77 4822.55,2329.6 4806.5,2325C 4781.13,2323.09 4755.8,2320.75 4730.5,2318C 4711.16,2314.93 4692.49,2309.6 4674.5,2302C 4646.46,2288.44 4629.62,2266.27 4624,2235.5C 4620.09,2215.57 4624.09,2197.57 4636,2181.5C 4645.97,2172.53 4655.64,2163.2 4665,2153.5C 4671.03,2145.42 4674.2,2136.25 4674.5,2126C 4660.92,2073.28 4681.26,2046.45 4735.5,2045.5C 4757.24,2046.48 4778.58,2049.98 4799.5,2056C 4804.79,2056.96 4810.12,2057.46 4815.5,2057.5C 4834.05,2056.94 4851.72,2052.78 4868.5,2045C 4885.11,2039.81 4902.11,2038.14 4919.5,2040C 4959.9,2041.92 4987.73,2061.42 5003,2098.5C 5009.12,2115.75 5016.12,2132.75 5024,2149.5C 5034.26,2168.71 5049.43,2182.55 5069.5,2191C 5084.56,2195.46 5099.56,2200.13 5114.5,2205C 5130.45,2210.39 5144.95,2218.22 5158,2228.5C 5160.54,2231.72 5162.04,2235.39 5162.5,2239.5C 5168.53,2241.84 5173.87,2245.18 5178.5,2249.5 Z"/></g>
<g><path style="opacity:1" fill="#233863" d="M 2644.5,2262.5 C 2639.47,2274.92 2634.81,2287.59 2630.5,2300.5C 2627.44,2307.33 2624.78,2314.33 2622.5,2321.5C 2596.83,2278.47 2571.5,2235.13 2546.5,2191.5C 2549.04,2182.31 2552.04,2173.31 2555.5,2164.5C 2563.2,2159.98 2571.37,2156.31 2580,2153.5C 2582.99,2154.28 2585.83,2155.44 2588.5,2157C 2595.62,2164.08 2601.12,2172.24 2605,2181.5C 2612.6,2200.96 2620.6,2220.29 2629,2239.5C 2633.21,2247.87 2638.38,2255.53 2644.5,2262.5 Z"/></g>
<g><path style="opacity:1" fill="#e8f1f9" d="M 2555.5,2164.5 C 2552.04,2173.31 2549.04,2182.31 2546.5,2191.5C 2543.67,2199.25 2541.34,2207.25 2539.5,2215.5C 2500.24,2216.66 2460.9,2216.83 2421.5,2216C 2422.06,2215.62 2422.39,2215.12 2422.5,2214.5C 2438.74,2210.88 2454.74,2206.38 2470.5,2201C 2499.31,2190.11 2527.65,2177.95 2555.5,2164.5 Z"/></g>
<g><path style="opacity:1" fill="#2a4f96" d="M 2546.5,2191.5 C 2571.5,2235.13 2596.83,2278.47 2622.5,2321.5C 2603.76,2370.73 2585.42,2420.07 2567.5,2469.5C 2565.67,2474.15 2563.84,2478.81 2562,2483.5C 2558.95,2484.61 2555.78,2485.28 2552.5,2485.5C 2535.98,2485.21 2520.64,2480.88 2506.5,2472.5C 2505.1,2471.11 2503.43,2470.11 2501.5,2469.5C 2500.83,2468.73 2499.99,2468.07 2499,2467.5C 2498.83,2465.33 2498.67,2463.17 2498.5,2461C 2504.48,2407.63 2511.82,2354.46 2520.5,2301.5C 2521.34,2301.16 2521.67,2300.49 2521.5,2299.5C 2526.39,2272.03 2532.06,2244.69 2538.5,2217.5C 2539.34,2217.16 2539.67,2216.49 2539.5,2215.5C 2541.34,2207.25 2543.67,2199.25 2546.5,2191.5 Z"/></g>
<g><path style="opacity:1" fill="#ccdbfc" d="M 2195.5,2215.5 C 2196.17,2215.83 2196.83,2216.17 2197.5,2216.5C 2114.67,2217.5 2031.67,2217.83 1948.5,2217.5C 1948.17,2217.5 1947.83,2217.5 1947.5,2217.5C 2030.17,2216.83 2112.83,2216.17 2195.5,2215.5 Z"/></g>
<g><path style="opacity:1" fill="#cbdafa" d="M 2422.5,2214.5 C 2422.39,2215.12 2422.06,2215.62 2421.5,2216C 2460.9,2216.83 2500.24,2216.66 2539.5,2215.5C 2539.67,2216.49 2539.34,2217.16 2538.5,2217.5C 2496.33,2217.83 2454.33,2217.5 2412.5,2216.5C 2415.8,2215.71 2419.14,2215.04 2422.5,2214.5 Z"/></g>
<g><path style="opacity:1" fill="#c5d6fe" d="M 4389.5,2216.5 C 4438.67,2216.17 4487.67,2216.5 4536.5,2217.5C 4487.66,2217.17 4439,2217.5 4390.5,2218.5C 4389.66,2218.16 4389.33,2217.49 4389.5,2216.5 Z"/></g>
<g><path style="opacity:1" fill="#aec2fe" d="M 2197.5,2216.5 C 2200.8,2218.72 2204.46,2219.89 2208.5,2220C 2267.83,2220.67 2327.17,2220.67 2386.5,2220C 2395.26,2219.38 2403.93,2218.21 2412.5,2216.5C 2454.33,2217.5 2496.33,2217.83 2538.5,2217.5C 2532.06,2244.69 2526.39,2272.03 2521.5,2299.5C 2366.07,2300.17 2210.74,2300.83 2055.5,2301.5C 2069.55,2357.69 2083.88,2413.69 2098.5,2469.5C 2154.24,2694.69 2210.58,2919.86 2267.5,3145C 2267.84,3146.03 2268.5,3146.53 2269.5,3146.5C 2249.1,3152.27 2228.43,3157.43 2207.5,3162C 2197.45,3162.99 2187.79,3161.82 2178.5,3158.5C 2179.83,3158.5 2181.17,3158.5 2182.5,3158.5C 2104.66,2844.82 2026.66,2531.15 1948.5,2217.5C 2031.67,2217.83 2114.67,2217.5 2197.5,2216.5 Z"/></g>
<g><path style="opacity:1" fill="#91aff4" d="M 1947.5,2217.5 C 1947.83,2217.5 1948.17,2217.5 1948.5,2217.5C 2026.66,2531.15 2104.66,2844.82 2182.5,3158.5C 2181.17,3158.5 2179.83,3158.5 2178.5,3158.5C 2158.43,3152.96 2139.43,3144.96 2121.5,3134.5C 2049.85,2833.91 1978.18,2533.24 1906.5,2232.5C 1908.15,2230.88 1910.15,2229.71 1912.5,2229C 1924.28,2225.46 1935.95,2221.63 1947.5,2217.5 Z"/></g>
<g><path style="opacity:1" fill="#afc2fe" d="M 4536.5,2217.5 C 4570.1,2339.9 4603.1,2462.56 4635.5,2585.5C 4553.6,2463.38 4471.93,2341.04 4390.5,2218.5C 4439,2217.5 4487.66,2217.17 4536.5,2217.5 Z"/></g>
<g><path style="opacity:1" fill="#aec2fe" d="M 2781.5,2217.5 C 2910.5,2217.5 3039.5,2217.5 3168.5,2217.5C 3156.97,2245.56 3144.64,2273.22 3131.5,2300.5C 3030.17,2300.5 2928.83,2300.5 2827.5,2300.5C 2811.39,2273.28 2796.06,2245.61 2781.5,2217.5 Z"/></g>
<g><path style="opacity:1" fill="#abc0fd" d="M 2644.5,2262.5 C 2655.79,2276.03 2667.79,2289.03 2680.5,2301.5C 2663.66,2301.83 2646.99,2301.5 2630.5,2300.5C 2634.81,2287.59 2639.47,2274.92 2644.5,2262.5 Z"/></g>
<g><path style="opacity:1" fill="#869ff9" d="M 2521.5,2299.5 C 2521.67,2300.49 2521.34,2301.16 2520.5,2301.5C 2365.5,2301.5 2210.5,2301.5 2055.5,2301.5C 2210.74,2300.83 2366.07,2300.17 2521.5,2299.5 Z"/></g>
<g><path style="opacity:1" fill="#879ff9" d="M 2827.5,2301.5 C 2827.5,2301.17 2827.5,2300.83 2827.5,2300.5C 2928.83,2300.5 3030.17,2300.5 3131.5,2300.5C 3131.67,2301.49 3131.34,2302.16 3130.5,2302.5C 3029.67,2301.5 2928.67,2301.17 2827.5,2301.5 Z"/></g>
<g><path style="opacity:1" fill="#5f7cf3" d="M 2055.5,2301.5 C 2210.5,2301.5 2365.5,2301.5 2520.5,2301.5C 2511.82,2354.46 2504.48,2407.63 2498.5,2461C 2498.67,2463.17 2498.83,2465.33 2499,2467.5C 2499.99,2468.07 2500.83,2468.73 2501.5,2469.5C 2367.17,2469.5 2232.83,2469.5 2098.5,2469.5C 2083.88,2413.69 2069.55,2357.69 2055.5,2301.5 Z"/></g>
<g><path style="opacity:1" fill="#5f7bf3" d="M 2630.5,2300.5 C 2646.99,2301.5 2663.66,2301.83 2680.5,2301.5C 2730.43,2350.6 2781.77,2398.1 2834.5,2444C 2836.68,2445.2 2839.01,2445.7 2841.5,2445.5C 2846.37,2453.25 2850.71,2461.25 2854.5,2469.5C 2758.83,2469.5 2663.17,2469.5 2567.5,2469.5C 2585.42,2420.07 2603.76,2370.73 2622.5,2321.5C 2624.78,2314.33 2627.44,2307.33 2630.5,2300.5 Z"/></g>
<g><path style="opacity:1" fill="#5f7bf3" d="M 2827.5,2301.5 C 2928.67,2301.17 3029.67,2301.5 3130.5,2302.5C 3105.84,2358.13 3081.18,2413.79 3056.5,2469.5C 3014.83,2469.5 2973.17,2469.5 2931.5,2469.5C 2922.19,2464.18 2913.19,2458.34 2904.5,2452C 2898.99,2447.09 2894.32,2441.59 2890.5,2435.5C 2891.46,2434.04 2892.62,2432.71 2894,2431.5C 2894.67,2430.5 2894.67,2429.5 2894,2428.5C 2872.35,2385.86 2850.18,2343.52 2827.5,2301.5 Z"/></g>
<g><path style="opacity:1" fill="#e7f1fd" d="M 2166.5,2355.5 C 2181.43,2355.6 2191.59,2362.6 2197,2376.5C 2198.52,2392.31 2191.35,2399.48 2175.5,2398C 2159.03,2392.54 2152.2,2381.37 2155,2364.5C 2157.68,2359.92 2161.52,2356.92 2166.5,2355.5 Z"/></g>
<g><path style="opacity:1" fill="#e7f1fd" d="M 2235.5,2355.5 C 2251.8,2355.31 2262.3,2362.97 2267,2378.5C 2268.28,2389.97 2263.28,2396.63 2252,2398.5C 2232.64,2396.48 2223.31,2385.81 2224,2366.5C 2226.44,2361.23 2230.27,2357.56 2235.5,2355.5 Z"/></g>
<g><path style="opacity:1" fill="#e7f1fd" d="M 2307.5,2356.5 C 2323.27,2354.13 2334.43,2360.13 2341,2374.5C 2344.19,2391.98 2337.02,2399.81 2319.5,2398C 2302.29,2391.74 2296.12,2379.9 2301,2362.5C 2303.06,2360.27 2305.23,2358.27 2307.5,2356.5 Z"/></g>
<g><path style="opacity:1" fill="#fdb17d" d="M 2890.5,2435.5 C 2894.32,2441.59 2898.99,2447.09 2904.5,2452C 2913.19,2458.34 2922.19,2464.18 2931.5,2469.5C 2944.61,2479.39 2959.28,2485.39 2975.5,2487.5C 2955.39,2499.96 2933.39,2505.13 2909.5,2503C 2892.27,2500.24 2874.93,2498.4 2857.5,2497.5C 2857.67,2490.49 2857.5,2483.49 2857,2476.5C 2856.26,2474.1 2855.42,2471.77 2854.5,2469.5C 2850.71,2461.25 2846.37,2453.25 2841.5,2445.5C 2853.67,2446.06 2865.67,2444.89 2877.5,2442C 2881.86,2439.82 2886.19,2437.66 2890.5,2435.5 Z"/></g>
<g><path style="opacity:1" fill="#7498f0" d="M 2098.5,2469.5 C 2232.83,2469.5 2367.17,2469.5 2501.5,2469.5C 2503.43,2470.11 2505.1,2471.11 2506.5,2472.5C 2503.61,2481.34 2500.78,2490.34 2498,2499.5C 2495.09,2509.52 2489.59,2517.69 2481.5,2524C 2476,2526.46 2470.34,2528.46 2464.5,2530C 2461.13,2531.34 2458.13,2533.18 2455.5,2535.5C 2435.87,2545.27 2433.21,2558.6 2447.5,2575.5C 2458.18,2585.35 2469.02,2595.02 2480,2604.5C 2492.98,2626.82 2510.15,2645.32 2531.5,2660C 2539.99,2665.69 2549.16,2667.52 2559,2665.5C 2559.67,2663.17 2559.67,2660.83 2559,2658.5C 2554.31,2649.11 2549.15,2640.11 2543.5,2631.5C 2540.36,2625.89 2537.19,2620.22 2534,2614.5C 2531.25,2607.78 2529.75,2600.78 2529.5,2593.5C 2530.45,2580.1 2531.95,2566.77 2534,2553.5C 2539.47,2530.6 2545.63,2507.94 2552.5,2485.5C 2555.78,2485.28 2558.95,2484.61 2562,2483.5C 2563.84,2478.81 2565.67,2474.15 2567.5,2469.5C 2663.17,2469.5 2758.83,2469.5 2854.5,2469.5C 2855.42,2471.77 2856.26,2474.1 2857,2476.5C 2857.5,2483.49 2857.67,2490.49 2857.5,2497.5C 2857.33,2503.84 2857.5,2510.18 2858,2516.5C 2859.53,2520.69 2862.36,2523.53 2866.5,2525C 2883.15,2526.85 2899.48,2525.19 2915.5,2520C 2934.52,2519.82 2953.52,2519.16 2972.5,2518C 2984.74,2515.81 2996.07,2511.48 3006.5,2505C 3009.87,2502.07 3012.04,2498.57 3013,2494.5C 3008.01,2491.35 3002.51,2489.52 2996.5,2489C 2989.54,2487.91 2982.54,2487.41 2975.5,2487.5C 2959.28,2485.39 2944.61,2479.39 2931.5,2469.5C 2973.17,2469.5 3014.83,2469.5 3056.5,2469.5C 3010.58,2571.26 2965.25,2673.26 2920.5,2775.5C 2834.32,2731.57 2743.98,2721.07 2649.5,2744C 2558.4,2769.11 2486.24,2820.61 2433,2898.5C 2397.64,2951.74 2377.47,3010.41 2372.5,3074.5C 2368.43,3080.43 2364.93,3086.77 2362,3093.5C 2353.2,3102.75 2346.7,3113.42 2342.5,3125.5C 2318.19,3132.71 2293.86,3139.71 2269.5,3146.5C 2268.5,3146.53 2267.84,3146.03 2267.5,3145C 2210.58,2919.86 2154.24,2694.69 2098.5,2469.5 Z"/></g>
<g><path style="opacity:1" fill="#feb17d" d="M 2506.5,2472.5 C 2520.64,2480.88 2535.98,2485.21 2552.5,2485.5C 2545.63,2507.94 2539.47,2530.6 2534,2553.5C 2531.95,2566.77 2530.45,2580.1 2529.5,2593.5C 2529.75,2600.78 2531.25,2607.78 2534,2614.5C 2537.19,2620.22 2540.36,2625.89 2543.5,2631.5C 2519.1,2621.37 2499.94,2605.04 2486,2582.5C 2477.35,2567.2 2468.68,2551.87 2460,2536.5C 2458.64,2535.62 2457.14,2535.29 2455.5,2535.5C 2458.13,2533.18 2461.13,2531.34 2464.5,2530C 2470.34,2528.46 2476,2526.46 2481.5,2524C 2489.59,2517.69 2495.09,2509.52 2498,2499.5C 2500.78,2490.34 2503.61,2481.34 2506.5,2472.5 Z"/></g>
<g><path style="opacity:1" fill="#233863" d="M 2975.5,2487.5 C 2982.54,2487.41 2989.54,2487.91 2996.5,2489C 3002.51,2489.52 3008.01,2491.35 3013,2494.5C 3012.04,2498.57 3009.87,2502.07 3006.5,2505C 2996.07,2511.48 2984.74,2515.81 2972.5,2518C 2953.52,2519.16 2934.52,2519.82 2915.5,2520C 2899.48,2525.19 2883.15,2526.85 2866.5,2525C 2862.36,2523.53 2859.53,2520.69 2858,2516.5C 2857.5,2510.18 2857.33,2503.84 2857.5,2497.5C 2874.93,2498.4 2892.27,2500.24 2909.5,2503C 2933.39,2505.13 2955.39,2499.96 2975.5,2487.5 Z"/></g>
<g><path style="opacity:1" fill="#243863" d="M 2455.5,2535.5 C 2457.14,2535.29 2458.64,2535.62 2460,2536.5C 2468.68,2551.87 2477.35,2567.2 2486,2582.5C 2499.94,2605.04 2519.1,2621.37 2543.5,2631.5C 2549.15,2640.11 2554.31,2649.11 2559,2658.5C 2559.67,2660.83 2559.67,2663.17 2559,2665.5C 2549.16,2667.52 2539.99,2665.69 2531.5,2660C 2510.15,2645.32 2492.98,2626.82 2480,2604.5C 2469.02,2595.02 2458.18,2585.35 2447.5,2575.5C 2433.21,2558.6 2435.87,2545.27 2455.5,2535.5 Z"/></g>
<g><path style="opacity:1" fill="#f99747" d="M 5297.5,2677.5 C 5271.47,2755.63 5245.14,2833.63 5218.5,2911.5C 5216.89,2912.01 5216.56,2912.67 5217.5,2913.5C 5217.78,2915.35 5217.11,2916.68 5215.5,2917.5C 5209.29,2915.45 5204.79,2911.45 5202,2905.5C 5199.74,2896.96 5200.41,2888.63 5204,2880.5C 5227.73,2815.32 5251.06,2749.99 5274,2684.5C 5279.04,2673.26 5287.21,2669.92 5298.5,2674.5C 5297.87,2675.42 5297.54,2676.42 5297.5,2677.5 Z"/></g>
<g><path style="opacity:1" fill="#163561" d="M 1984.5,2743.5 C 1982.58,2767.03 1978.08,2790.03 1971,2812.5C 1969.58,2816.87 1967.08,2820.37 1963.5,2823C 1961.83,2823.17 1960.17,2823.33 1958.5,2823.5C 1951.58,2821.92 1944.58,2820.58 1937.5,2819.5C 1932.3,2819.68 1928.46,2822.01 1926,2826.5C 1928.1,2850.29 1922.43,2871.96 1909,2891.5C 1904.45,2896.72 1899.28,2901.22 1893.5,2905C 1886.18,2906.75 1878.85,2906.92 1871.5,2905.5C 1863.93,2902.38 1856.93,2898.21 1850.5,2893C 1844.3,2887.14 1838.47,2880.97 1833,2874.5C 1813.28,2847.72 1798.28,2818.39 1788,2786.5C 1783.81,2772.81 1782.14,2758.81 1783,2744.5C 1792.14,2728.69 1804.64,2716.19 1820.5,2707C 1857.87,2686.55 1897.87,2677.21 1940.5,2679C 1954.81,2678.91 1968.15,2682.24 1980.5,2689C 1989.96,2694.42 1994.96,2702.58 1995.5,2713.5C 1994.62,2724.58 1990.96,2734.58 1984.5,2743.5 Z"/></g>
<g><path style="opacity:1" fill="#aec2fe" d="M 5297.5,2677.5 C 5340.39,2717.44 5387.05,2752.27 5437.5,2782C 5461.93,2795.87 5486.26,2809.71 5510.5,2823.5C 5504.62,2844.89 5498.62,2866.22 5492.5,2887.5C 5421.73,2881.99 5351.39,2885.49 5281.5,2898C 5260.36,2901.91 5239.36,2906.41 5218.5,2911.5C 5245.14,2833.63 5271.47,2755.63 5297.5,2677.5 Z"/></g>
<g><path style="opacity:1" fill="#214d84" d="M 2920.5,2775.5 C 2970.48,2802.47 3012.48,2838.8 3046.5,2884.5C 3077.74,2928.33 3099.24,2976.66 3111,3029.5C 3129.48,3127.63 3113.15,3219.29 3062,3304.5C 2995.58,3406.32 2901.75,3464.32 2780.5,3478.5C 2723.58,3483.77 2668.25,3476.77 2614.5,3457.5C 2570.75,3440.54 2531.25,3416.54 2496,3385.5C 2460,3419.5 2424,3453.5 2388,3487.5C 2387.72,3486.58 2387.22,3485.92 2386.5,3485.5C 2386.64,3480.81 2384.3,3478.64 2379.5,3479C 2366.53,3477.31 2353.53,3477.14 2340.5,3478.5C 2341.81,3472.87 2343.98,3467.54 2347,3462.5C 2347.82,3459.88 2348.32,3457.22 2348.5,3454.5C 2385.96,3419.54 2423.3,3384.37 2460.5,3349C 2412.48,3292.47 2383.48,3227.31 2373.5,3153.5C 2371.14,3138.86 2370.97,3124.2 2373,3109.5C 2375.48,3100.89 2377.65,3092.22 2379.5,3083.5C 2380.25,3077.96 2377.91,3074.96 2372.5,3074.5C 2377.47,3010.41 2397.64,2951.74 2433,2898.5C 2486.24,2820.61 2558.4,2769.11 2649.5,2744C 2743.98,2721.07 2834.32,2731.57 2920.5,2775.5 Z"/></g>
<g><path style="opacity:1" fill="#feb17d" d="M 1984.5,2743.5 C 1987.13,2746.08 1989.3,2749.08 1991,2752.5C 2005.19,2793.58 2011.19,2835.92 2009,2879.5C 2008.56,2886.03 2007.23,2892.36 2005,2898.5C 2001.67,2907.48 1995.17,2912.31 1985.5,2913C 1979.59,2913.61 1973.92,2914.78 1968.5,2916.5C 1950.56,2918.47 1932.56,2918.97 1914.5,2918C 1905.47,2916.54 1896.81,2914.2 1888.5,2911C 1912.89,2929.7 1939.89,2943.54 1969.5,2952.5C 1969.5,2946.83 1969.5,2941.17 1969.5,2935.5C 1970.69,2948.01 1970.69,2960.68 1969.5,2973.5C 1940.85,2960.02 1911.51,2948.19 1881.5,2938C 1877.91,2936.89 1874.25,2936.39 1870.5,2936.5C 1871.43,2926.21 1871.76,2915.87 1871.5,2905.5C 1878.85,2906.92 1886.18,2906.75 1893.5,2905C 1899.28,2901.22 1904.45,2896.72 1909,2891.5C 1922.43,2871.96 1928.1,2850.29 1926,2826.5C 1928.46,2822.01 1932.3,2819.68 1937.5,2819.5C 1944.58,2820.58 1951.58,2821.92 1958.5,2823.5C 1960.17,2823.33 1961.83,2823.17 1963.5,2823C 1967.08,2820.37 1969.58,2816.87 1971,2812.5C 1978.08,2790.03 1982.58,2767.03 1984.5,2743.5 Z"/></g>
<g><path style="opacity:1" fill="#2d3a64" d="M 5813.5,2952.5 C 5809.05,2945.32 5806.05,2937.49 5804.5,2929C 5805.31,2922.54 5807.15,2916.37 5810,2910.5C 5811.72,2904.47 5811.72,2898.47 5810,2892.5C 5807.44,2889.65 5804.27,2888.82 5800.5,2890C 5796.5,2891.34 5793.17,2893.67 5790.5,2897C 5785.51,2899.4 5782.01,2897.9 5780,2892.5C 5777.33,2883.17 5774.67,2873.83 5772,2864.5C 5765.06,2845.75 5751.56,2837.42 5731.5,2839.5C 5719.46,2840.06 5707.46,2841.06 5695.5,2842.5C 5688.83,2842.67 5682.16,2842.5 5675.5,2842C 5672.44,2840.94 5669.94,2839.11 5668,2836.5C 5662.46,2827.29 5659.62,2817.29 5659.5,2806.5C 5659.55,2792.16 5665.22,2780.66 5676.5,2772C 5691.5,2763.68 5707.66,2759.84 5725,2760.5C 5763.77,2762.32 5801.6,2769.16 5838.5,2781C 5852.21,2785.76 5863.71,2793.59 5873,2804.5C 5873.32,2800.29 5871.82,2796.79 5868.5,2794C 5869.17,2793.33 5869.83,2793.33 5870.5,2794C 5877.81,2800.26 5881.48,2808.26 5881.5,2818C 5883.78,2820.48 5886.44,2822.48 5889.5,2824C 5886.85,2824.5 5884.19,2824.66 5881.5,2824.5C 5882.5,2831.14 5882.66,2837.81 5882,2844.5C 5873.85,2875.99 5860.51,2904.99 5842,2931.5C 5833.42,2939.86 5823.92,2946.86 5813.5,2952.5 Z"/></g>
<g><path style="opacity:1" fill="#92b4f4" d="M 2908.5,2803.5 C 2907.12,2804.57 2905.95,2805.91 2905,2807.5C 2812.68,3015.13 2720.18,3222.46 2627.5,3429.5C 2535.7,3395.2 2469.54,3333.53 2429,3244.5C 2385.47,3136.7 2391.81,3032.04 2448,2930.5C 2505.82,2837.48 2588.98,2782.32 2697.5,2765C 2772.09,2755.29 2842.42,2768.12 2908.5,2803.5 Z"/></g>
<g><path style="opacity:1" fill="#163561" d="M 4466.5,3080.5 C 4461.71,3059.36 4457.87,3038.03 4455,3016.5C 4453.33,3003.78 4454.66,2991.45 4459,2979.5C 4459.86,2967.05 4459.03,2954.72 4456.5,2942.5C 4456.5,2941.5 4456.5,2940.5 4456.5,2939.5C 4454.26,2939.21 4452.26,2939.54 4450.5,2940.5C 4431.49,2942.49 4413.82,2938.66 4397.5,2929C 4388.41,2922.58 4379.91,2915.42 4372,2907.5C 4361.9,2896.07 4352.57,2884.07 4344,2871.5C 4328.96,2881.56 4319.96,2895.56 4317,2913.5C 4313.38,2931.31 4314.05,2948.98 4319,2966.5C 4325,2988.83 4334,3009.83 4346,3029.5C 4348.21,3031.37 4350.04,3033.54 4351.5,3036C 4356.98,3041.11 4363.32,3042.61 4370.5,3040.5C 4370.5,3045.83 4370.5,3051.17 4370.5,3056.5C 4369.62,3065.13 4369.29,3073.8 4369.5,3082.5C 4356.1,3081.66 4342.77,3080.16 4329.5,3078C 4312.86,3075.12 4297.53,3069.12 4283.5,3060C 4273.85,3050.1 4270.68,3038.26 4274,3024.5C 4276.41,3014.44 4279.08,3004.44 4282,2994.5C 4283.5,2985.86 4284.66,2977.19 4285.5,2968.5C 4283.45,2953.4 4280.95,2938.4 4278,2923.5C 4277.17,2910.47 4277.51,2897.47 4279,2884.5C 4288.02,2825.82 4322.19,2794.65 4381.5,2791C 4396.9,2784.75 4412.9,2782.75 4429.5,2785C 4448.91,2789.54 4465.91,2798.54 4480.5,2812C 4519.82,2848.48 4549.32,2891.65 4569,2941.5C 4575.74,2960.24 4579.57,2979.57 4580.5,2999.5C 4581.2,3031.27 4567.53,3054.44 4539.5,3069C 4516.14,3078.45 4491.81,3082.28 4466.5,3080.5 Z"/></g>
<g><path style="opacity:1" fill="#d5a6a2" d="M 2908.5,2803.5 C 2958.77,2831.1 2999.77,2868.77 3031.5,2916.5C 2953.42,3093.34 2874.75,3270 2795.5,3446.5C 2737.98,3454.81 2681.98,3449.15 2627.5,3429.5C 2720.18,3222.46 2812.68,3015.13 2905,2807.5C 2905.95,2805.91 2907.12,2804.57 2908.5,2803.5 Z"/></g>
<g><path style="opacity:1" fill="#f99746" d="M 5510.5,2823.5 C 5514.96,2824.15 5519.3,2825.32 5523.5,2827C 5538.86,2833.05 5554.19,2839.05 5569.5,2845C 5576.48,2848.64 5581.31,2854.14 5584,2861.5C 5587.67,2877.53 5586.83,2893.19 5581.5,2908.5C 5569.63,2901.74 5556.96,2896.9 5543.5,2894C 5526.63,2890.91 5509.63,2888.75 5492.5,2887.5C 5498.62,2866.22 5504.62,2844.89 5510.5,2823.5 Z"/></g>
<g><path style="opacity:1" fill="#feb17d" d="M 5813.5,2952.5 C 5812.91,2955.69 5811.74,2958.69 5810,2961.5C 5809.43,2990.18 5812.26,3018.51 5818.5,3046.5C 5819.03,3051.08 5817.36,3054.58 5813.5,3057C 5784.16,3073.35 5754.16,3074.68 5723.5,3061C 5721.98,3059.1 5721.32,3056.94 5721.5,3054.5C 5721.5,3043.83 5721.5,3033.17 5721.5,3022.5C 5753.16,3016.16 5779.16,3000.33 5799.5,2975C 5795.26,2977.18 5790.93,2979.51 5786.5,2982C 5773.49,2986.97 5759.99,2989.14 5746,2988.5C 5739.4,2988.68 5732.9,2988.02 5726.5,2986.5C 5725.42,2986.69 5724.42,2987.02 5723.5,2987.5C 5710.61,2984.19 5697.61,2980.69 5684.5,2977C 5682.39,2975.86 5680.56,2974.36 5679,2972.5C 5674.26,2962.37 5672.42,2951.7 5673.5,2940.5C 5674.88,2907.26 5680.88,2874.93 5691.5,2843.5C 5693.1,2843.77 5694.43,2843.43 5695.5,2842.5C 5707.46,2841.06 5719.46,2840.06 5731.5,2839.5C 5751.56,2837.42 5765.06,2845.75 5772,2864.5C 5774.67,2873.83 5777.33,2883.17 5780,2892.5C 5782.01,2897.9 5785.51,2899.4 5790.5,2897C 5793.17,2893.67 5796.5,2891.34 5800.5,2890C 5804.27,2888.82 5807.44,2889.65 5810,2892.5C 5811.72,2898.47 5811.72,2904.47 5810,2910.5C 5807.15,2916.37 5805.31,2922.54 5804.5,2929C 5806.05,2937.49 5809.05,2945.32 5813.5,2952.5 Z"/></g>
<g><path style="opacity:1" fill="#feb17d" d="M 4450.5,2940.5 C 4452.89,2940.26 4454.89,2940.93 4456.5,2942.5C 4459.03,2954.72 4459.86,2967.05 4459,2979.5C 4454.66,2991.45 4453.33,3003.78 4455,3016.5C 4457.87,3038.03 4461.71,3059.36 4466.5,3080.5C 4466.26,3081.79 4466.6,3082.79 4467.5,3083.5C 4468.3,3087.59 4466.96,3090.76 4463.5,3093C 4453.3,3097.88 4442.64,3101.22 4431.5,3103C 4417.79,3103.91 4404.12,3103.57 4390.5,3102C 4384.67,3100.46 4379.01,3098.46 4373.5,3096C 4370.38,3093.59 4369.05,3090.43 4369.5,3086.5C 4369.5,3085.17 4369.5,3083.83 4369.5,3082.5C 4369.29,3073.8 4369.62,3065.13 4370.5,3056.5C 4391.31,3055.01 4408.81,3046.68 4423,3031.5C 4428.07,3025.68 4432.91,3019.68 4437.5,3013.5C 4417.24,3026.54 4394.91,3035.54 4370.5,3040.5C 4363.32,3042.61 4356.98,3041.11 4351.5,3036C 4350.04,3033.54 4348.21,3031.37 4346,3029.5C 4334,3009.83 4325,2988.83 4319,2966.5C 4314.05,2948.98 4313.38,2931.31 4317,2913.5C 4319.96,2895.56 4328.96,2881.56 4344,2871.5C 4352.57,2884.07 4361.9,2896.07 4372,2907.5C 4379.91,2915.42 4388.41,2922.58 4397.5,2929C 4413.82,2938.66 4431.49,2942.49 4450.5,2940.5 Z"/></g>
<g><path style="opacity:1" fill="#7499f0" d="M 5492.5,2887.5 C 5488.69,2901.39 5484.69,2915.22 5480.5,2929C 5480.57,2929.76 5480.9,2930.26 5481.5,2930.5C 5481.08,2931.12 5480.42,2931.46 5479.5,2931.5C 5466.9,2929.27 5454.24,2927.6 5441.5,2926.5C 5423.21,2924.21 5404.88,2922.21 5386.5,2920.5C 5348.11,2916.22 5309.44,2913.89 5270.5,2913.5C 5253.17,2912.83 5235.83,2912.17 5218.5,2911.5C 5239.36,2906.41 5260.36,2901.91 5281.5,2898C 5351.39,2885.49 5421.73,2881.99 5492.5,2887.5 Z"/></g>
<g><path style="opacity:1" fill="#ec7d2b" d="M 5492.5,2887.5 C 5509.63,2888.75 5526.63,2890.91 5543.5,2894C 5556.96,2896.9 5569.63,2901.74 5581.5,2908.5C 5576.81,2921.36 5568.14,2930.53 5555.5,2936C 5540.17,2940.18 5524.84,2940.01 5509.5,2935.5C 5500.9,2933.78 5492.24,2932.45 5483.5,2931.5C 5483.16,2930.66 5482.49,2930.33 5481.5,2930.5C 5480.9,2930.26 5480.57,2929.76 5480.5,2929C 5484.69,2915.22 5488.69,2901.39 5492.5,2887.5 Z"/></g>
<g><path style="opacity:1" fill="#afc5f4" d="M 5218.5,2911.5 C 5235.83,2912.17 5253.17,2912.83 5270.5,2913.5C 5252.83,2913.5 5235.17,2913.5 5217.5,2913.5C 5216.56,2912.67 5216.89,2912.01 5218.5,2911.5 Z"/></g>
<g><path style="opacity:1" fill="#fba56a" d="M 1968.5,2916.5 C 1968.77,2922.84 1969.1,2929.17 1969.5,2935.5C 1969.5,2941.17 1969.5,2946.83 1969.5,2952.5C 1939.89,2943.54 1912.89,2929.7 1888.5,2911C 1896.81,2914.2 1905.47,2916.54 1914.5,2918C 1932.56,2918.97 1950.56,2918.47 1968.5,2916.5 Z"/></g>
<g><path style="opacity:1" fill="#cbdefc" d="M 3031.5,2916.5 C 3064.72,2966.32 3083.55,3021.32 3088,3081.5C 3093.35,3191.56 3056.51,3284.39 2977.5,3360C 2925.57,3406.51 2864.91,3435.35 2795.5,3446.5C 2874.75,3270 2953.42,3093.34 3031.5,2916.5 Z"/></g>
<g><path style="opacity:1" fill="#f99746" d="M 5386.5,2920.5 C 5404.88,2922.21 5423.21,2924.21 5441.5,2926.5C 5437.11,2946.43 5433.11,2966.43 5429.5,2986.5C 5427.32,2991.86 5425.82,2997.53 5425,3003.5C 5423.69,3014.93 5421.85,3026.27 5419.5,3037.5C 5416.58,3049.28 5414.08,3061.28 5412,3073.5C 5409.1,3082.22 5403.6,3088.56 5395.5,3092.5C 5393.69,3092.49 5392.02,3092.99 5390.5,3094C 5364.81,3095.98 5352.65,3084.15 5354,3058.5C 5358.49,3036.88 5362.66,3015.21 5366.5,2993.5C 5379.65,2991.51 5390.48,2985.51 5399,2975.5C 5400.34,2970.99 5399.17,2967.33 5395.5,2964.5C 5389.37,2959.27 5382.37,2955.94 5374.5,2954.5C 5377.08,2943.25 5379.42,2931.91 5381.5,2920.5C 5383.17,2920.5 5384.83,2920.5 5386.5,2920.5 Z"/></g>
<g><path style="opacity:1" fill="#a7a9d2" d="M 5483.5,2931.5 C 5492.24,2932.45 5500.9,2933.78 5509.5,2935.5C 5509.08,2936.12 5508.42,2936.46 5507.5,2936.5C 5499.27,2935.25 5491.27,2933.58 5483.5,2931.5 Z"/></g>
<g><path style="opacity:1" fill="#87716e" d="M 4450.5,2940.5 C 4452.26,2939.54 4454.26,2939.21 4456.5,2939.5C 4456.5,2940.5 4456.5,2941.5 4456.5,2942.5C 4454.89,2940.93 4452.89,2940.26 4450.5,2940.5 Z"/></g>
<g><path style="opacity:1" fill="#ed7d2b" d="M 1870.5,2936.5 C 1874.25,2936.39 1877.91,2936.89 1881.5,2938C 1911.51,2948.19 1940.85,2960.02 1969.5,2973.5C 1981.96,2980.63 1991.29,2990.63 1997.5,3003.5C 1997.08,3004.12 1996.42,3004.46 1995.5,3004.5C 1946.06,2993.08 1896.73,2981.75 1847.5,2970.5C 1851.97,2962.23 1856.47,2953.9 1861,2945.5C 1863.41,2941.59 1866.57,2938.59 1870.5,2936.5 Z"/></g>
<g><path style="opacity:1" fill="#feb17d" d="M 5374.5,2954.5 C 5382.37,2955.94 5389.37,2959.27 5395.5,2964.5C 5399.17,2967.33 5400.34,2970.99 5399,2975.5C 5390.48,2985.51 5379.65,2991.51 5366.5,2993.5C 5362.58,2991.46 5360.91,2988.13 5361.5,2983.5C 5361.28,2971.62 5365.62,2961.95 5374.5,2954.5 Z"/></g>
<g><path style="opacity:1" fill="#f99746" d="M 1847.5,2970.5 C 1896.73,2981.75 1946.06,2993.08 1995.5,3004.5C 1996.42,3004.46 1997.08,3004.12 1997.5,3003.5C 2001.66,3012.46 2005.16,3021.8 2008,3031.5C 2011.2,3043.6 2014.7,3055.6 2018.5,3067.5C 2023.83,3086.96 2028.33,3106.63 2032,3126.5C 2034.91,3161.79 2037.08,3197.12 2038.5,3232.5C 2038.85,3242.84 2039.35,3253.17 2040,3263.5C 2043.85,3274.57 2047.85,3285.57 2052,3296.5C 2055.46,3304.75 2059.46,3312.75 2064,3320.5C 2104.97,3346.4 2145.14,3373.4 2184.5,3401.5C 2208.17,3418.17 2231.83,3434.83 2255.5,3451.5C 2265.41,3459.47 2275.75,3466.97 2286.5,3474C 2288.55,3475.97 2290.22,3478.13 2291.5,3480.5C 2293.03,3492.92 2289.36,3503.59 2280.5,3512.5C 2278.48,3514.35 2276.32,3516.01 2274,3517.5C 2252.53,3510.97 2231.03,3504.64 2209.5,3498.5C 2154.77,3482.08 2101.11,3463.08 2048.5,3441.5C 2023.95,3432.06 2000.61,3420.22 1978.5,3406C 1971.07,3400.57 1964.24,3394.41 1958,3387.5C 1920.16,3345.68 1886.16,3301.01 1856,3253.5C 1837.28,3223.05 1822.61,3190.71 1812,3156.5C 1817.78,3234.49 1840.44,3307.16 1880,3374.5C 1924.63,3447.63 1982.13,3508.63 2052.5,3557.5C 2052.67,3579.84 2052.5,3602.17 2052,3624.5C 2050.96,3625.37 2050.12,3626.37 2049.5,3627.5C 2023.55,3645.99 1994.55,3657.16 1962.5,3661C 1916.6,3667.55 1870.6,3668.22 1824.5,3663C 1810.68,3660.77 1797.02,3657.93 1783.5,3654.5C 1765.45,3649.92 1748.79,3642.26 1733.5,3631.5C 1730.54,3628.04 1727.37,3624.7 1724,3621.5C 1719.14,3613.91 1716.47,3605.57 1716,3596.5C 1712.03,3449.69 1724.69,3304.36 1754,3160.5C 1761.57,3126.69 1770.9,3093.35 1782,3060.5C 1790.67,3037.15 1802.01,3015.15 1816,2994.5C 1824.38,2983.61 1834.88,2975.61 1847.5,2970.5 Z"/></g>
<g><path style="opacity:1" fill="#ed985f" d="M 5721.5,3022.5 C 5722.34,3010.84 5723.01,2999.18 5723.5,2987.5C 5724.42,2987.02 5725.42,2986.69 5726.5,2986.5C 5732.9,2988.02 5739.4,2988.68 5746,2988.5C 5759.99,2989.14 5773.49,2986.97 5786.5,2982C 5790.93,2979.51 5795.26,2977.18 5799.5,2975C 5779.16,3000.33 5753.16,3016.16 5721.5,3022.5 Z"/></g>
<g><path style="opacity:1" fill="#feb17d" d="M 5430.5,3037.5 C 5426.83,3036.17 5423.17,3036.17 5419.5,3037.5C 5421.85,3026.27 5423.69,3014.93 5425,3003.5C 5425.82,2997.53 5427.32,2991.86 5429.5,2986.5C 5431.04,2985.7 5432.71,2985.37 5434.5,2985.5C 5435.16,3002.93 5433.82,3020.26 5430.5,3037.5 Z"/></g>
<g><path style="opacity:1" fill="#e8945b" d="M 4370.5,3056.5 C 4370.5,3051.17 4370.5,3045.83 4370.5,3040.5C 4394.91,3035.54 4417.24,3026.54 4437.5,3013.5C 4432.91,3019.68 4428.07,3025.68 4423,3031.5C 4408.81,3046.68 4391.31,3055.01 4370.5,3056.5 Z"/></g>
<g><path style="opacity:1" fill="#7499f0" d="M 5430.5,3037.5 C 5433.19,3037.34 5435.85,3037.5 5438.5,3038C 5446.86,3057.96 5454.7,3078.12 5462,3098.5C 5474.76,3132.69 5489.76,3166.02 5507,3198.5C 5509.23,3202.46 5512.07,3205.96 5515.5,3209C 5517.83,3209.67 5520.17,3209.67 5522.5,3209C 5530.08,3204.09 5537.08,3198.42 5543.5,3192C 5560.5,3174.33 5577.5,3156.67 5594.5,3139C 5610.79,3123.53 5627.46,3108.53 5644.5,3094C 5656.29,3084.88 5668.62,3076.55 5681.5,3069C 5694.1,3062.02 5707.43,3057.19 5721.5,3054.5C 5721.32,3056.94 5721.98,3059.1 5723.5,3061C 5754.16,3074.68 5784.16,3073.35 5813.5,3057C 5817.36,3054.58 5819.03,3051.08 5818.5,3046.5C 5847.54,3052.35 5875.21,3062.18 5901.5,3076C 5918.51,3084.42 5932.67,3096.26 5944,3111.5C 5964.43,3142.79 5979.43,3176.46 5989,3212.5C 6008.39,3289.39 6028.39,3366.06 6049,3442.5C 6053.58,3460.24 6056.41,3478.24 6057.5,3496.5C 6056.17,3520.28 6053.67,3543.95 6050,3567.5C 6039.17,3631.32 6027.51,3694.98 6015,3758.5C 6014.65,3762.68 6012.49,3765.01 6008.5,3765.5C 5994.86,3767.29 5982.53,3764.29 5971.5,3756.5C 5969.52,3755.35 5968.02,3753.69 5967,3751.5C 5960.46,3672.64 5957.12,3593.64 5957,3514.5C 5947.97,3492.08 5936.13,3471.42 5921.5,3452.5C 5899.09,3419.05 5874.25,3387.38 5847,3357.5C 5846.16,3430.12 5855.16,3501.45 5874,3571.5C 5882.6,3600.69 5895.43,3627.69 5912.5,3652.5C 5913.71,3662.03 5913.55,3671.69 5912,3681.5C 5910.15,3688.55 5906.31,3694.22 5900.5,3698.5C 5885.29,3707.97 5868.63,3713.14 5850.5,3714C 5805.56,3716.74 5761.23,3712.74 5717.5,3702C 5679.17,3691.3 5643.5,3675.13 5610.5,3653.5C 5596.32,3643.23 5582.66,3632.23 5569.5,3620.5C 5568.5,3619.32 5567.66,3617.98 5567,3616.5C 5565.49,3518.98 5571.66,3421.98 5585.5,3325.5C 5588.76,3305.73 5592.26,3286.06 5596,3266.5C 5586.42,3279.32 5577.09,3292.32 5568,3305.5C 5556.92,3317.26 5543.75,3325.76 5528.5,3331C 5515.81,3335.17 5503.15,3339 5490.5,3342.5C 5483.49,3342.67 5476.49,3342.5 5469.5,3342C 5464.28,3340.72 5459.61,3338.39 5455.5,3335C 5444.07,3322.98 5435.57,3309.15 5430,3293.5C 5424.57,3278.12 5419.9,3262.46 5416,3246.5C 5405.89,3195.62 5399.06,3144.29 5395.5,3092.5C 5403.6,3088.56 5409.1,3082.22 5412,3073.5C 5414.08,3061.28 5416.58,3049.28 5419.5,3037.5C 5423.17,3036.17 5426.83,3036.17 5430.5,3037.5 Z"/></g>
<g><path style="opacity:1" fill="#ec7d2b" d="M 2018.5,3067.5 C 2051.3,3092.07 2085.63,3114.41 2121.5,3134.5C 2139.43,3144.96 2158.43,3152.96 2178.5,3158.5C 2187.79,3161.82 2197.45,3162.99 2207.5,3162C 2228.43,3157.43 2249.1,3152.27 2269.5,3146.5C 2293.86,3139.71 2318.19,3132.71 2342.5,3125.5C 2351.86,3134.89 2357.53,3146.22 2359.5,3159.5C 2359.94,3166.1 2357.6,3171.6 2352.5,3176C 2331.51,3193.84 2309.84,3210.68 2287.5,3226.5C 2261.95,3243.28 2234.61,3256.28 2205.5,3265.5C 2188.27,3268.61 2170.94,3269.27 2153.5,3267.5C 2112.33,3264.74 2073.99,3253.08 2038.5,3232.5C 2037.08,3197.12 2034.91,3161.79 2032,3126.5C 2028.33,3106.63 2023.83,3086.96 2018.5,3067.5 Z"/></g>
<g><path style="opacity:1" fill="#fdb17d" d="M 2372.5,3074.5 C 2377.91,3074.96 2380.25,3077.96 2379.5,3083.5C 2377.65,3092.22 2375.48,3100.89 2373,3109.5C 2370.97,3124.2 2371.14,3138.86 2373.5,3153.5C 2369.1,3156.03 2364.43,3158.03 2359.5,3159.5C 2357.53,3146.22 2351.86,3134.89 2342.5,3125.5C 2346.7,3113.42 2353.2,3102.75 2362,3093.5C 2364.93,3086.77 2368.43,3080.43 2372.5,3074.5 Z"/></g>
<g><path style="opacity:1" fill="#f99646" d="M 4467.5,3083.5 C 4482.83,3084.26 4498.16,3085.09 4513.5,3086C 4521.09,3086.6 4528.43,3088.26 4535.5,3091C 4572.82,3107.32 4601.65,3133.15 4622,3168.5C 4646.71,3211.92 4668.71,3256.58 4688,3302.5C 4694.92,3320.41 4700.59,3338.74 4705,3357.5C 4706.01,3363.62 4706.51,3369.79 4706.5,3376C 4707.71,3386.52 4705.04,3395.85 4698.5,3404C 4686.86,3411.99 4674.53,3418.65 4661.5,3424C 4619.52,3438.11 4576.52,3445.94 4532.5,3447.5C 4495.65,3448.57 4458.98,3446.57 4422.5,3441.5C 4415.68,3440.15 4408.68,3439.15 4401.5,3438.5C 4402.95,3424.47 4408.62,3412.47 4418.5,3402.5C 4411.99,3392.66 4403.33,3385.33 4392.5,3380.5C 4377.09,3344.12 4361.75,3307.79 4346.5,3271.5C 4297.17,3270.53 4247.84,3270.53 4198.5,3271.5C 4213.69,3231.45 4229.19,3191.45 4245,3151.5C 4249.44,3141.28 4254.44,3131.28 4260,3121.5C 4269.1,3113.37 4279.26,3106.87 4290.5,3102C 4315.98,3092.97 4342.31,3087.81 4369.5,3086.5C 4369.05,3090.43 4370.38,3093.59 4373.5,3096C 4379.01,3098.46 4384.67,3100.46 4390.5,3102C 4404.12,3103.57 4417.79,3103.91 4431.5,3103C 4442.64,3101.22 4453.3,3097.88 4463.5,3093C 4466.96,3090.76 4468.3,3087.59 4467.5,3083.5 Z"/></g>
<g><path style="opacity:1" fill="#7399f0" d="M 2373.5,3153.5 C 2383.48,3227.31 2412.48,3292.47 2460.5,3349C 2423.3,3384.37 2385.96,3419.54 2348.5,3454.5C 2347.76,3452.77 2346.43,3451.77 2344.5,3451.5C 2325.61,3376.39 2306.61,3301.39 2287.5,3226.5C 2309.84,3210.68 2331.51,3193.84 2352.5,3176C 2357.6,3171.6 2359.94,3166.1 2359.5,3159.5C 2364.43,3158.03 2369.1,3156.03 2373.5,3153.5 Z"/></g>
<g><path style="opacity:1" fill="#ed7d2b" d="M 2048.5,3441.5 C 2049.58,3480.18 2050.91,3518.85 2052.5,3557.5C 1982.13,3508.63 1924.63,3447.63 1880,3374.5C 1840.44,3307.16 1817.78,3234.49 1812,3156.5C 1822.61,3190.71 1837.28,3223.05 1856,3253.5C 1886.16,3301.01 1920.16,3345.68 1958,3387.5C 1964.24,3394.41 1971.07,3400.57 1978.5,3406C 2000.61,3420.22 2023.95,3432.06 2048.5,3441.5 Z"/></g>
<g><path style="opacity:1" fill="#aec2fe" d="M 2287.5,3226.5 C 2306.61,3301.39 2325.61,3376.39 2344.5,3451.5C 2339.65,3456.51 2334.32,3461.01 2328.5,3465C 2315.84,3469.49 2303.51,3474.66 2291.5,3480.5C 2290.22,3478.13 2288.55,3475.97 2286.5,3474C 2275.75,3466.97 2265.41,3459.47 2255.5,3451.5C 2240.7,3389.99 2225.2,3328.65 2209,3267.5C 2207.89,3266.69 2206.72,3266.03 2205.5,3265.5C 2234.61,3256.28 2261.95,3243.28 2287.5,3226.5 Z"/></g>
<g><path style="opacity:1" fill="#eaf2f9" d="M 2038.5,3232.5 C 2073.99,3253.08 2112.33,3264.74 2153.5,3267.5C 2163.83,3312.16 2174.17,3356.83 2184.5,3401.5C 2145.14,3373.4 2104.97,3346.4 2064,3320.5C 2059.46,3312.75 2055.46,3304.75 2052,3296.5C 2047.85,3285.57 2043.85,3274.57 2040,3263.5C 2039.35,3253.17 2038.85,3242.84 2038.5,3232.5 Z"/></g>
<g><path style="opacity:1" fill="#f67d48" d="M 3845.5,3238.5 C 3903.79,3234.42 3955.13,3250.92 3999.5,3288C 4043.75,3331.75 4062.92,3384.91 4057,3447.5C 4048.69,3515.99 4013.52,3565.16 3951.5,3595C 3910.46,3613 3867.46,3620 3822.5,3616C 3755.2,3610.12 3704.37,3578.29 3670,3520.5C 3646.64,3472.3 3641.97,3422.3 3656,3370.5C 3671.53,3323.59 3701.03,3288.42 3744.5,3265C 3776.25,3248.81 3809.91,3239.98 3845.5,3238.5 Z"/></g>
<g><path style="opacity:1" fill="#91aff4" d="M 2205.5,3265.5 C 2206.72,3266.03 2207.89,3266.69 2209,3267.5C 2225.2,3328.65 2240.7,3389.99 2255.5,3451.5C 2231.83,3434.83 2208.17,3418.17 2184.5,3401.5C 2174.17,3356.83 2163.83,3312.16 2153.5,3267.5C 2170.94,3269.27 2188.27,3268.61 2205.5,3265.5 Z"/></g>
<g><path style="opacity:1" fill="#b5453c" d="M 4392.5,3380.5 C 4383.58,3377.97 4374.75,3374.97 4366,3371.5C 4365.17,3371.83 4364.33,3372.17 4363.5,3372.5C 4366.64,3380.13 4370.81,3387.13 4376,3393.5C 4376.62,3394.45 4376.45,3395.28 4375.5,3396C 4371.68,3397.83 4367.68,3399.17 4363.5,3400C 4347.15,3400.47 4330.82,3400.47 4314.5,3400C 4313.58,3400.37 4312.75,3400.87 4312,3401.5C 4310.97,3406.32 4311.97,3410.65 4315,3414.5C 4324.1,3425.94 4335.27,3434.77 4348.5,3441C 4355.22,3443.72 4362.22,3445.22 4369.5,3445.5C 4380.27,3443.57 4390.94,3441.24 4401.5,3438.5C 4408.68,3439.15 4415.68,3440.15 4422.5,3441.5C 4421.5,3441.5 4420.5,3441.5 4419.5,3441.5C 4423.46,3454.06 4428.46,3466.06 4434.5,3477.5C 4441.69,3495.08 4448.69,3512.74 4455.5,3530.5C 4412.83,3530.38 4370.16,3530.71 4327.5,3531.5C 4311.83,3531.5 4296.17,3531.5 4280.5,3531.5C 4270.65,3531.17 4260.99,3531.51 4251.5,3532.5C 4244.5,3532.5 4237.5,3532.5 4230.5,3532.5C 4205.43,3472.02 4180.09,3411.69 4154.5,3351.5C 4162.81,3338.97 4165.31,3325.3 4162,3310.5C 4159.09,3307.61 4155.59,3306.77 4151.5,3308C 4146.52,3309.5 4142.19,3312 4138.5,3315.5C 4132.92,3301.18 4126.92,3287.01 4120.5,3273C 4146.49,3271.8 4172.49,3271.3 4198.5,3271.5C 4247.84,3270.53 4297.17,3270.53 4346.5,3271.5C 4361.75,3307.79 4377.09,3344.12 4392.5,3380.5 Z"/></g>
<g><path style="opacity:1" fill="#6385db" d="M 5585.5,3325.5 C 5554.35,3333.86 5522.69,3339.53 5490.5,3342.5C 5503.15,3339 5515.81,3335.17 5528.5,3331C 5543.75,3325.76 5556.92,3317.26 5568,3305.5C 5577.09,3292.32 5586.42,3279.32 5596,3266.5C 5592.26,3286.06 5588.76,3305.73 5585.5,3325.5 Z"/></g>
<g><path style="opacity:1" fill="#ed7d2b" d="M 4536.5,3284.5 C 4553.11,3297.73 4566.94,3313.39 4578,3331.5C 4579.28,3335.1 4579.61,3338.76 4579,3342.5C 4575.08,3345.37 4570.91,3347.87 4566.5,3350C 4526.06,3366.48 4485.06,3381.14 4443.5,3394C 4469.31,3382.84 4491.47,3366.68 4510,3345.5C 4524.54,3327.72 4533.38,3307.38 4536.5,3284.5 Z"/></g>
<g><path style="opacity:1" fill="#feb17d" d="M 4154.5,3351.5 C 4152.47,3351.66 4150.47,3351.5 4148.5,3351C 4138.31,3340.95 4134.98,3329.11 4138.5,3315.5C 4142.19,3312 4146.52,3309.5 4151.5,3308C 4155.59,3306.77 4159.09,3307.61 4162,3310.5C 4165.31,3325.3 4162.81,3338.97 4154.5,3351.5 Z"/></g>
<g><path style="opacity:1" fill="#6385db" d="M 5921.5,3452.5 C 5909.08,3518.71 5906.08,3585.37 5912.5,3652.5C 5895.43,3627.69 5882.6,3600.69 5874,3571.5C 5855.16,3501.45 5846.16,3430.12 5847,3357.5C 5874.25,3387.38 5899.09,3419.05 5921.5,3452.5 Z"/></g>
<g><path style="opacity:1" fill="#feb17d" d="M 4392.5,3380.5 C 4403.33,3385.33 4411.99,3392.66 4418.5,3402.5C 4408.62,3412.47 4402.95,3424.47 4401.5,3438.5C 4390.94,3441.24 4380.27,3443.57 4369.5,3445.5C 4362.22,3445.22 4355.22,3443.72 4348.5,3441C 4335.27,3434.77 4324.1,3425.94 4315,3414.5C 4311.97,3410.65 4310.97,3406.32 4312,3401.5C 4312.75,3400.87 4313.58,3400.37 4314.5,3400C 4330.82,3400.47 4347.15,3400.47 4363.5,3400C 4367.68,3399.17 4371.68,3397.83 4375.5,3396C 4376.45,3395.28 4376.62,3394.45 4376,3393.5C 4370.81,3387.13 4366.64,3380.13 4363.5,3372.5C 4364.33,3372.17 4365.17,3371.83 4366,3371.5C 4374.75,3374.97 4383.58,3377.97 4392.5,3380.5 Z"/></g>
<g><path style="opacity:1" fill="#7499f0" d="M 2614.5,3457.5 C 2590.36,3512.46 2566.19,3567.46 2542,3622.5C 2533.43,3648.51 2528.26,3675.18 2526.5,3702.5C 2525.51,3707.31 2525.18,3712.31 2525.5,3717.5C 2487.09,3717.83 2448.76,3717.49 2410.5,3716.5C 2394.42,3651.11 2378.09,3585.78 2361.5,3520.5C 2369.55,3517.3 2376.72,3512.64 2383,3506.5C 2386.21,3499.91 2387.38,3492.91 2386.5,3485.5C 2387.22,3485.92 2387.72,3486.58 2388,3487.5C 2424,3453.5 2460,3419.5 2496,3385.5C 2531.25,3416.54 2570.75,3440.54 2614.5,3457.5 Z"/></g>
<g><path style="opacity:1" fill="#233862" d="M 4422.5,3441.5 C 4458.98,3446.57 4495.65,3448.57 4532.5,3447.5C 4533.83,3447.5 4535.17,3447.5 4536.5,3447.5C 4536.5,3451.5 4536.5,3455.5 4536.5,3459.5C 4503.87,3468.08 4470.54,3473.58 4436.5,3476C 4435.58,3476.28 4434.92,3476.78 4434.5,3477.5C 4428.46,3466.06 4423.46,3454.06 4419.5,3441.5C 4420.5,3441.5 4421.5,3441.5 4422.5,3441.5 Z"/></g>
<g><path style="opacity:1" fill="#e9f2f9" d="M 2048.5,3441.5 C 2101.11,3463.08 2154.77,3482.08 2209.5,3498.5C 2208.96,3498.56 2208.62,3498.89 2208.5,3499.5C 2213.95,3522.89 2219.62,3546.22 2225.5,3569.5C 2215.5,3579.5 2205.5,3589.5 2195.5,3599.5C 2145.53,3645.47 2095.87,3691.8 2046.5,3738.5C 2048,3701.51 2049,3664.51 2049.5,3627.5C 2050.12,3626.37 2050.96,3625.37 2052,3624.5C 2052.5,3602.17 2052.67,3579.84 2052.5,3557.5C 2050.91,3518.85 2049.58,3480.18 2048.5,3441.5 Z"/></g>
<g><path style="opacity:1" fill="#f67d48" d="M 2614.5,3457.5 C 2668.25,3476.77 2723.58,3483.77 2780.5,3478.5C 2752.48,3543.05 2723.98,3607.38 2695,3671.5C 2685.28,3698.4 2683.95,3725.73 2691,3753.5C 2711.6,3813.41 2753.6,3845.41 2817,3849.5C 3296.18,3809.25 3775.35,3768.92 4254.5,3728.5C 4260.76,3781.47 4267.09,3834.47 4273.5,3887.5C 3787.86,3928.44 3302.19,3969.11 2816.5,4009.5C 2708.15,4005.9 2624.98,3958.56 2567,3867.5C 2536.93,3816.68 2523.43,3761.68 2526.5,3702.5C 2528.26,3675.18 2533.43,3648.51 2542,3622.5C 2566.19,3567.46 2590.36,3512.46 2614.5,3457.5 Z"/></g>
<g><path style="opacity:1" fill="#2a4f95" d="M 4536.5,3459.5 C 4563.01,3496.51 4584.84,3536.18 4602,3578.5C 4606.5,3590.85 4609.84,3603.51 4612,3616.5C 4613.96,3643.55 4615.79,3670.55 4617.5,3697.5C 4620.11,3749.82 4622.44,3802.15 4624.5,3854.5C 4626.74,3904.01 4630.91,3953.34 4637,4002.5C 4638.86,4012.94 4641.19,4023.28 4644,4033.5C 4657.93,4078.23 4670.76,4123.23 4682.5,4168.5C 4684.9,4183.4 4687.9,4198.07 4691.5,4212.5C 4705.81,4287.51 4713.14,4363.18 4713.5,4439.5C 4707.82,4447.34 4700.49,4453.17 4691.5,4457C 4680.76,4460.93 4669.76,4463.77 4658.5,4465.5C 4646.38,4464.35 4636.88,4458.69 4630,4448.5C 4590.74,4369.65 4552.91,4290.32 4516.5,4210.5C 4509.77,4196.63 4503.44,4182.63 4497.5,4168.5C 4491.11,4152.82 4484.61,4137.16 4478,4121.5C 4477.82,4125.36 4477.32,4129.02 4476.5,4132.5C 4476.83,4125.76 4476.33,4119.09 4475,4112.5C 4462.59,4083.14 4455.26,4052.48 4453,4020.5C 4438.14,3933.88 4416.81,3848.88 4389,3765.5C 4373.42,3719.04 4353.42,3674.71 4329,3632.5C 4327.2,3628.32 4325.87,3623.98 4325,3619.5C 4323.61,3608.88 4322.78,3598.22 4322.5,3587.5C 4323.44,3568.75 4325.1,3550.08 4327.5,3531.5C 4370.16,3530.71 4412.83,3530.38 4455.5,3530.5C 4448.69,3512.74 4441.69,3495.08 4434.5,3477.5C 4434.92,3476.78 4435.58,3476.28 4436.5,3476C 4470.54,3473.58 4503.87,3468.08 4536.5,3459.5 Z"/></g>
<g><path style="opacity:1" fill="#feb17d" d="M 2344.5,3451.5 C 2346.43,3451.77 2347.76,3452.77 2348.5,3454.5C 2348.32,3457.22 2347.82,3459.88 2347,3462.5C 2343.98,3467.54 2341.81,3472.87 2340.5,3478.5C 2353.53,3477.14 2366.53,3477.31 2379.5,3479C 2384.3,3478.64 2386.64,3480.81 2386.5,3485.5C 2387.38,3492.91 2386.21,3499.91 2383,3506.5C 2376.72,3512.64 2369.55,3517.3 2361.5,3520.5C 2356.16,3522.5 2350.83,3524.5 2345.5,3526.5C 2324.38,3527.58 2304.38,3523.58 2285.5,3514.5C 2284.07,3513.46 2282.4,3512.8 2280.5,3512.5C 2289.36,3503.59 2293.03,3492.92 2291.5,3480.5C 2303.51,3474.66 2315.84,3469.49 2328.5,3465C 2334.32,3461.01 2339.65,3456.51 2344.5,3451.5 Z"/></g>
<g><path style="opacity:1" fill="#91aff4" d="M 2209.5,3498.5 C 2231.03,3504.64 2252.53,3510.97 2274,3517.5C 2276.32,3516.01 2278.48,3514.35 2280.5,3512.5C 2282.4,3512.8 2284.07,3513.46 2285.5,3514.5C 2265.5,3532.83 2245.5,3551.17 2225.5,3569.5C 2219.62,3546.22 2213.95,3522.89 2208.5,3499.5C 2208.62,3498.89 2208.96,3498.56 2209.5,3498.5 Z"/></g>
<g><path style="opacity:1" fill="#204d84" d="M 2285.5,3514.5 C 2304.38,3523.58 2324.38,3527.58 2345.5,3526.5C 2326.8,3545.2 2307.8,3563.53 2288.5,3581.5C 2271.81,3597.19 2255.14,3612.86 2238.5,3628.5C 2235.5,3631.17 2232.5,3633.83 2229.5,3636.5C 2218.17,3624.17 2206.83,3611.83 2195.5,3599.5C 2205.5,3589.5 2215.5,3579.5 2225.5,3569.5C 2245.5,3551.17 2265.5,3532.83 2285.5,3514.5 Z"/></g>
<g><path style="opacity:1" fill="#afc2fe" d="M 2361.5,3520.5 C 2378.09,3585.78 2394.42,3651.11 2410.5,3716.5C 2429.32,3717.83 2448.49,3718.5 2468,3718.5C 2487.34,3718.5 2506.5,3718.17 2525.5,3717.5C 2525.18,3712.31 2525.51,3707.31 2526.5,3702.5C 2523.43,3761.68 2536.93,3816.68 2567,3867.5C 2624.98,3958.56 2708.15,4005.9 2816.5,4009.5C 3302.19,3969.11 3787.86,3928.44 4273.5,3887.5C 4286.28,3979.65 4298.62,4071.98 4310.5,4164.5C 4310.5,4165.83 4310.5,4167.17 4310.5,4168.5C 3685.17,4168.5 3059.83,4168.5 2434.5,4168.5C 2386.24,3972.45 2337.57,3776.78 2288.5,3581.5C 2307.8,3563.53 2326.8,3545.2 2345.5,3526.5C 2350.83,3524.5 2356.16,3522.5 2361.5,3520.5 Z"/></g>
<g><path style="opacity:1" fill="#c9999f" d="M 4251.5,3532.5 C 4260.99,3531.51 4270.65,3531.17 4280.5,3531.5C 4280.74,3532.79 4280.4,3533.79 4279.5,3534.5C 4270.56,3532.53 4261.23,3531.86 4251.5,3532.5 Z"/></g>
<g><path style="opacity:1" fill="#233863" d="M 4280.5,3531.5 C 4296.17,3531.5 4311.83,3531.5 4327.5,3531.5C 4325.1,3550.08 4323.44,3568.75 4322.5,3587.5C 4322.78,3598.22 4323.61,3608.88 4325,3619.5C 4325.87,3623.98 4327.2,3628.32 4329,3632.5C 4353.42,3674.71 4373.42,3719.04 4389,3765.5C 4416.81,3848.88 4438.14,3933.88 4453,4020.5C 4455.26,4052.48 4462.59,4083.14 4475,4112.5C 4476.33,4119.09 4476.83,4125.76 4476.5,4132.5C 4475.92,4144.49 4475.59,4156.49 4475.5,4168.5C 4475.21,4182.53 4474.54,4196.53 4473.5,4210.5C 4469.21,4306.42 4463.21,4402.09 4455.5,4497.5C 4437.45,4510.78 4417.12,4516.28 4394.5,4514C 4392.15,4513.15 4389.81,4512.32 4387.5,4511.5C 4374.24,4504.07 4363.74,4493.74 4356,4480.5C 4342.28,4390.99 4329.45,4301.33 4317.5,4211.5C 4315.34,4195.68 4313.01,4180.01 4310.5,4164.5C 4298.62,4071.98 4286.28,3979.65 4273.5,3887.5C 4267.09,3834.47 4260.76,3781.47 4254.5,3728.5C 4253.2,3709 4251.86,3689.5 4250.5,3670C 4250.81,3662.82 4251.31,3655.65 4252,3648.5C 4259.29,3610.03 4268.45,3572.03 4279.5,3534.5C 4280.4,3533.79 4280.74,3532.79 4280.5,3531.5 Z"/></g>
<g><path style="opacity:1" fill="#91aff4" d="M 2288.5,3581.5 C 2337.57,3776.78 2386.24,3972.45 2434.5,4168.5C 2415.59,4181.78 2397.25,4195.78 2379.5,4210.5C 2378.83,4210.17 2378.17,4209.83 2377.5,4209.5C 2332.88,4020.49 2288.05,3831.49 2243,3642.5C 2241.55,3637.7 2240.05,3633.03 2238.5,3628.5C 2255.14,3612.86 2271.81,3597.19 2288.5,3581.5 Z"/></g>
<g><path style="opacity:1" fill="#7499f0" d="M 2195.5,3599.5 C 2206.83,3611.83 2218.17,3624.17 2229.5,3636.5C 2166.53,3695.47 2103.86,3754.8 2041.5,3814.5C 2033.04,3821.79 2024.7,3829.29 2016.5,3837C 2009.84,3842.17 2002.51,3843.5 1994.5,3841C 1988.45,3834.4 1982.28,3827.9 1976,3821.5C 1974.58,3813.2 1976.58,3805.86 1982,3799.5C 2003.72,3779.27 2025.22,3758.94 2046.5,3738.5C 2095.87,3691.8 2145.53,3645.47 2195.5,3599.5 Z"/></g>
<g><path style="opacity:1" fill="#233862" d="M 5569.5,3620.5 C 5582.66,3632.23 5596.32,3643.23 5610.5,3653.5C 5661.52,3763.54 5714.18,3872.87 5768.5,3981.5C 5766.48,4023.02 5764.48,4064.69 5762.5,4106.5C 5696.72,3997.93 5631.72,3888.93 5567.5,3779.5C 5567.06,3726.46 5567.72,3673.46 5569.5,3620.5 Z"/></g>
<g><path style="opacity:1" fill="#2a4e95" d="M 2049.5,3627.5 C 2049,3664.51 2048,3701.51 2046.5,3738.5C 2025.22,3758.94 2003.72,3779.27 1982,3799.5C 1976.58,3805.86 1974.58,3813.2 1976,3821.5C 1982.28,3827.9 1988.45,3834.4 1994.5,3841C 2002.51,3843.5 2009.84,3842.17 2016.5,3837C 2024.7,3829.29 2033.04,3821.79 2041.5,3814.5C 2032.88,3935.03 2019.71,4055.03 2002,4174.5C 1992.38,4251.54 1986.05,4328.88 1983,4406.5C 1982.33,4436.83 1982.33,4467.17 1983,4497.5C 1983.29,4504.19 1983.79,4510.85 1984.5,4517.5C 1984.47,4520.18 1983.14,4521.51 1980.5,4521.5C 1952.74,4531.64 1924.4,4533.31 1895.5,4526.5C 1892.87,4525.9 1890.21,4525.4 1887.5,4525C 1885.78,4524.48 1884.44,4523.48 1883.5,4522C 1865.6,4429.87 1852.27,4337.03 1843.5,4243.5C 1840.2,4209.1 1838.2,4174.6 1837.5,4140C 1838.89,4105.31 1840.56,4070.64 1842.5,4036C 1842.12,3992.57 1838.62,3949.4 1832,3906.5C 1818.82,3822.37 1801.99,3739.04 1781.5,3656.5C 1781.75,3655.29 1782.41,3654.62 1783.5,3654.5C 1797.02,3657.93 1810.68,3660.77 1824.5,3663C 1870.6,3668.22 1916.6,3667.55 1962.5,3661C 1994.55,3657.16 2023.55,3645.99 2049.5,3627.5 Z"/></g>
<g><path style="opacity:1" fill="#233863" d="M 1733.5,3631.5 C 1748.79,3642.26 1765.45,3649.92 1783.5,3654.5C 1782.41,3654.62 1781.75,3655.29 1781.5,3656.5C 1801.99,3739.04 1818.82,3822.37 1832,3906.5C 1838.62,3949.4 1842.12,3992.57 1842.5,4036C 1840.56,4070.64 1838.89,4105.31 1837.5,4140C 1838.2,4174.6 1840.2,4209.1 1843.5,4243.5C 1842.21,4244.84 1841.37,4246.51 1841,4248.5C 1831.22,4283.59 1821.39,4318.59 1811.5,4353.5C 1780.83,4270.99 1751.99,4187.65 1725,4103.5C 1721.79,4091.96 1719.29,4080.29 1717.5,4068.5C 1720.76,4056.32 1723.59,4043.99 1726,4031.5C 1733.31,3985.15 1737.65,3938.48 1739,3891.5C 1740.86,3804.75 1739.03,3718.08 1733.5,3631.5 Z"/></g>
<g><path style="opacity:1" fill="#e9f2f9" d="M 2238.5,3628.5 C 2240.05,3633.03 2241.55,3637.7 2243,3642.5C 2288.05,3831.49 2332.88,4020.49 2377.5,4209.5C 2637.16,4211.5 2897.16,4212.17 3157.5,4211.5C 3149.5,4309.18 3141.33,4406.84 3133,4504.5C 3131.25,4522.85 3132.92,4540.85 3138,4558.5C 3144.35,4575.35 3156.18,4586.02 3173.5,4590.5C 2812,4591.5 2450.33,4591.83 2088.5,4591.5C 2085.38,4578.21 2077.04,4570.04 2063.5,4567C 2030.48,4561.82 2002.48,4547.16 1979.5,4523C 1980.06,4522.62 1980.39,4522.12 1980.5,4521.5C 1983.14,4521.51 1984.47,4520.18 1984.5,4517.5C 1983.79,4510.85 1983.29,4504.19 1983,4497.5C 1982.33,4467.17 1982.33,4436.83 1983,4406.5C 1986.05,4328.88 1992.38,4251.54 2002,4174.5C 2019.71,4055.03 2032.88,3935.03 2041.5,3814.5C 2103.86,3754.8 2166.53,3695.47 2229.5,3636.5C 2232.5,3633.83 2235.5,3631.17 2238.5,3628.5 Z"/></g>
<g><path style="opacity:1" fill="#2a4f96" d="M 5610.5,3653.5 C 5643.5,3675.13 5679.17,3691.3 5717.5,3702C 5761.23,3712.74 5805.56,3716.74 5850.5,3714C 5868.63,3713.14 5885.29,3707.97 5900.5,3698.5C 5906.24,3723.52 5910.07,3748.85 5912,3774.5C 5919.69,3812.22 5930.02,3849.22 5943,3885.5C 5955.33,3921.48 5971.33,3955.82 5991,3988.5C 6000.82,4000.14 6009.16,4012.81 6016,4026.5C 6031.18,4060.02 6043.18,4094.69 6052,4130.5C 6076.73,4230.83 6094.9,4332.33 6106.5,4435C 6106.61,4440.41 6104.61,4444.91 6100.5,4448.5C 6083.32,4460.34 6064.99,4470.01 6045.5,4477.5C 6043.76,4478.43 6042.09,4478.43 6040.5,4477.5C 5942.14,4316.95 5851.48,4151.61 5768.5,3981.5C 5714.18,3872.87 5661.52,3763.54 5610.5,3653.5 Z"/></g>
<g><path style="opacity:1" fill="#91aff7" d="M 2410.5,3716.5 C 2448.76,3717.49 2487.09,3717.83 2525.5,3717.5C 2506.5,3718.17 2487.34,3718.5 2468,3718.5C 2448.49,3718.5 2429.32,3717.83 2410.5,3716.5 Z"/></g>
<g><path style="opacity:1" fill="#feb27e" d="M 5971.5,3756.5 C 5982.53,3764.29 5994.86,3767.29 6008.5,3765.5C 6009.85,3768.66 6011.01,3772 6012,3775.5C 6014.54,3787.74 6015.88,3800.08 6016,3812.5C 6011.12,3831.47 6004.45,3849.81 5996,3867.5C 5992.6,3873.14 5989.94,3872.8 5988,3866.5C 5985.9,3851.38 5983.24,3836.38 5980,3821.5C 5979,3820.17 5978,3820.17 5977,3821.5C 5976.26,3827.16 5975.59,3832.82 5975,3838.5C 5973.84,3843.4 5971.84,3843.74 5969,3839.5C 5965.08,3831.39 5961.74,3823.06 5959,3814.5C 5958.33,3810.83 5958.33,3807.17 5959,3803.5C 5964.44,3788.01 5968.61,3772.35 5971.5,3756.5 Z"/></g>
<g><path style="opacity:1" fill="#2a4e95" d="M 5567.5,3779.5 C 5631.72,3888.93 5696.72,3997.93 5762.5,4106.5C 5759.73,4249.87 5740.23,4390.87 5704,4529.5C 5703.68,4531.06 5702.85,4532.23 5701.5,4533C 5697.96,4533.53 5694.63,4534.37 5691.5,4535.5C 5666.64,4539.52 5643.64,4534.86 5622.5,4521.5C 5621.88,4520.37 5621.04,4519.37 5620,4518.5C 5612.68,4459.99 5606.68,4401.32 5602,4342.5C 5596.27,4180.52 5585.94,4018.86 5571,3857.5C 5569.5,3831.51 5568.33,3805.51 5567.5,3779.5 Z"/></g>
<g><path style="opacity:1" fill="#afc2fe" d="M 4966.5,3828.5 C 4997.35,3941.58 5027.35,4054.92 5056.5,4168.5C 4931.83,4168.5 4807.17,4168.5 4682.5,4168.5C 4670.76,4123.23 4657.93,4078.23 4644,4033.5C 4641.19,4023.28 4638.86,4012.94 4637,4002.5C 4630.91,3953.34 4626.74,3904.01 4624.5,3854.5C 4625.4,3855.21 4625.74,3856.21 4625.5,3857.5C 4739.21,3848.22 4852.87,3838.55 4966.5,3828.5 Z"/></g>
<g><path style="opacity:1" fill="#e9f2f9" d="M 5768.5,3981.5 C 5851.48,4151.61 5942.14,4316.95 6040.5,4477.5C 6042.09,4478.43 6043.76,4478.43 6045.5,4477.5C 6044.45,4494.16 6044.29,4510.83 6045,4527.5C 6044.34,4543.05 6038.5,4556.21 6027.5,4567C 6024.63,4568.93 6021.63,4570.6 6018.5,4572C 6011.75,4572.46 6005.92,4574.96 6001,4579.5C 6000.21,4580.74 5999.71,4582.08 5999.5,4583.5C 5998.53,4585.95 5998.19,4588.61 5998.5,4591.5C 5894.5,4591.5 5790.5,4591.5 5686.5,4591.5C 5689.07,4584.47 5690.57,4577.14 5691,4569.5C 5691.5,4558.17 5691.67,4546.84 5691.5,4535.5C 5694.63,4534.37 5697.96,4533.53 5701.5,4533C 5702.85,4532.23 5703.68,4531.06 5704,4529.5C 5740.23,4390.87 5759.73,4249.87 5762.5,4106.5C 5764.48,4064.69 5766.48,4023.02 5768.5,3981.5 Z"/></g>
<g><path style="opacity:1" fill="#2a4e95" d="M 1717.5,4068.5 C 1719.29,4080.29 1721.79,4091.96 1725,4103.5C 1751.99,4187.65 1780.83,4270.99 1811.5,4353.5C 1797.14,4409.61 1785.31,4466.28 1776,4523.5C 1773.7,4524.87 1771.2,4525.53 1768.5,4525.5C 1748.13,4530.66 1727.47,4531.83 1706.5,4529C 1698.1,4527.32 1689.77,4525.48 1681.5,4523.5C 1679.9,4521.93 1677.9,4521.26 1675.5,4521.5C 1675.59,4417.57 1680.76,4313.91 1691,4210.5C 1695.89,4168.49 1702.89,4126.83 1712,4085.5C 1713.7,4079.65 1715.54,4073.98 1717.5,4068.5 Z"/></g>
<g><path style="opacity:1" fill="#acc0fc" d="M 4497.5,4168.5 C 4490.17,4168.5 4482.83,4168.5 4475.5,4168.5C 4475.59,4156.49 4475.92,4144.49 4476.5,4132.5C 4477.32,4129.02 4477.82,4125.36 4478,4121.5C 4484.61,4137.16 4491.11,4152.82 4497.5,4168.5 Z"/></g>
<g><path style="opacity:1" fill="#7599ea" d="M 4310.5,4164.5 C 4313.01,4180.01 4315.34,4195.68 4317.5,4211.5C 4116.5,4210.17 3915.5,4210.17 3714.5,4211.5C 3540.33,4210.5 3366,4210.17 3191.5,4210.5C 3188.32,4252.37 3184.65,4294.21 3180.5,4336C 3180.53,4337.07 3180.86,4337.9 3181.5,4338.5C 3176.96,4387.1 3172.63,4435.76 3168.5,4484.5C 3166.85,4500.17 3168.69,4516.17 3174,4532.5C 3183.43,4554.23 3200.09,4565.23 3224,4565.5C 3247.02,4565.47 3270.18,4565.47 3293.5,4565.5C 3293.5,4574.17 3293.5,4582.83 3293.5,4591.5C 3481.83,4591.5 3670.17,4591.5 3858.5,4591.5C 3995.83,4591.5 4133.17,4591.5 4270.5,4591.5C 4270.5,4591.83 4270.5,4592.17 4270.5,4592.5C 3907.17,4592.5 3543.83,4592.5 3180.5,4592.5C 3178.4,4591.39 3176.07,4590.72 3173.5,4590.5C 3156.18,4586.02 3144.35,4575.35 3138,4558.5C 3132.92,4540.85 3131.25,4522.85 3133,4504.5C 3141.33,4406.84 3149.5,4309.18 3157.5,4211.5C 2898.33,4210.5 2639,4210.17 2379.5,4210.5C 2397.25,4195.78 2415.59,4181.78 2434.5,4168.5C 3059.83,4168.5 3685.17,4168.5 4310.5,4168.5C 4310.5,4167.17 4310.5,4165.83 4310.5,4164.5 Z"/></g>
<g><path style="opacity:1" fill="#7499ea" d="M 4475.5,4168.5 C 4482.83,4168.5 4490.17,4168.5 4497.5,4168.5C 4503.44,4182.63 4509.77,4196.63 4516.5,4210.5C 4502.17,4210.5 4487.83,4210.5 4473.5,4210.5C 4474.54,4196.53 4475.21,4182.53 4475.5,4168.5 Z"/></g>
<g><path style="opacity:1" fill="#7499ea" d="M 4682.5,4168.5 C 4807.17,4168.5 4931.83,4168.5 5056.5,4168.5C 5033.9,4182.81 5010.9,4196.64 4987.5,4210C 4888.49,4209.84 4789.83,4210.67 4691.5,4212.5C 4687.9,4198.07 4684.9,4183.4 4682.5,4168.5 Z"/></g>
<g><path style="opacity:1" fill="#afc6f2" d="M 2377.5,4209.5 C 2378.17,4209.83 2378.83,4210.17 2379.5,4210.5C 2639,4210.17 2898.33,4210.5 3157.5,4211.5C 2897.16,4212.17 2637.16,4211.5 2377.5,4209.5 Z"/></g>
<g><path style="opacity:1" fill="#5888dd" d="M 3714.5,4211.5 C 3713.65,4217.81 3712.98,4224.15 3712.5,4230.5C 3691.02,4235.5 3669.35,4240.33 3647.5,4245C 3492.19,4276.49 3336.86,4307.66 3181.5,4338.5C 3180.86,4337.9 3180.53,4337.07 3180.5,4336C 3184.65,4294.21 3188.32,4252.37 3191.5,4210.5C 3366,4210.17 3540.33,4210.5 3714.5,4211.5 Z"/></g>
<g><path style="opacity:1" fill="#e9f2f9" d="M 4473.5,4210.5 C 4487.83,4210.5 4502.17,4210.5 4516.5,4210.5C 4552.91,4290.32 4590.74,4369.65 4630,4448.5C 4636.88,4458.69 4646.38,4464.35 4658.5,4465.5C 4657.77,4487.82 4657.27,4510.16 4657,4532.5C 4655.4,4547.32 4649.57,4560.15 4639.5,4571C 4633.07,4576.09 4625.73,4579.09 4617.5,4580C 4612.01,4581.98 4609.01,4585.81 4608.5,4591.5C 4556.91,4592.5 4505.24,4592.83 4453.5,4592.5C 4456.23,4578.16 4457.56,4563.66 4457.5,4549C 4456.93,4531.83 4456.26,4514.66 4455.5,4497.5C 4463.21,4402.09 4469.21,4306.42 4473.5,4210.5 Z"/></g>
<g><path style="opacity:1" fill="#e9f2f9" d="M 4317.5,4211.5 C 4329.45,4301.33 4342.28,4390.99 4356,4480.5C 4363.74,4493.74 4374.24,4504.07 4387.5,4511.5C 4382.89,4525.96 4374.22,4537.46 4361.5,4546C 4339.47,4559.79 4315.47,4568.46 4289.5,4572C 4279.56,4575.11 4273.23,4581.61 4270.5,4591.5C 4133.17,4591.5 3995.83,4591.5 3858.5,4591.5C 3858.5,4582.83 3858.5,4574.17 3858.5,4565.5C 3826.82,4565.76 3795.15,4565.43 3763.5,4564.5C 3742.97,4563.6 3724.31,4557.44 3707.5,4546C 3694.53,4535.02 3687.86,4521.02 3687.5,4504C 3690.26,4468.47 3693.26,4432.97 3696.5,4397.5C 3701.35,4341.78 3706.69,4286.12 3712.5,4230.5C 3712.98,4224.15 3713.65,4217.81 3714.5,4211.5C 3915.5,4210.17 4116.5,4210.17 4317.5,4211.5 Z"/></g>
<g><path style="opacity:1" fill="#90aef4" d="M 3712.5,4230.5 C 3706.69,4286.12 3701.35,4341.78 3696.5,4397.5C 3520.55,4430.83 3344.55,4463.83 3168.5,4496.5C 3168.5,4492.5 3168.5,4488.5 3168.5,4484.5C 3172.63,4435.76 3176.96,4387.1 3181.5,4338.5C 3336.86,4307.66 3492.19,4276.49 3647.5,4245C 3669.35,4240.33 3691.02,4235.5 3712.5,4230.5 Z"/></g>
<g><path style="opacity:1" fill="#e8f1f9" d="M 1843.5,4243.5 C 1852.27,4337.03 1865.6,4429.87 1883.5,4522C 1884.44,4523.48 1885.78,4524.48 1887.5,4525C 1890.21,4525.4 1892.87,4525.9 1895.5,4526.5C 1897.57,4543.91 1900.4,4561.24 1904,4578.5C 1905.3,4583.09 1907.13,4587.42 1909.5,4591.5C 1897.83,4592.83 1886.17,4592.83 1874.5,4591.5C 1871.76,4578.93 1864.09,4571.09 1851.5,4568C 1827.99,4563.72 1806.32,4555.05 1786.5,4542C 1779.7,4537.37 1773.7,4531.87 1768.5,4525.5C 1771.2,4525.53 1773.7,4524.87 1776,4523.5C 1785.31,4466.28 1797.14,4409.61 1811.5,4353.5C 1821.39,4318.59 1831.22,4283.59 1841,4248.5C 1841.37,4246.51 1842.21,4244.84 1843.5,4243.5 Z"/></g>
<g><path style="opacity:1" fill="#a8d2a0" d="M 1474.5,4591.5 C 1389.5,4591.5 1304.5,4591.5 1219.5,4591.5C 1230.33,4583.92 1242.33,4578.76 1255.5,4576C 1275.08,4573.86 1294.75,4572.86 1314.5,4573C 1323.38,4572.48 1332.05,4571.14 1340.5,4569C 1307.7,4544.76 1274.03,4521.76 1239.5,4500C 1230.67,4492.5 1222.5,4484.33 1215,4475.5C 1211.22,4469.95 1208.56,4463.95 1207,4457.5C 1204.49,4447.04 1207.65,4438.88 1216.5,4433C 1237.01,4421.08 1257.01,4421.75 1276.5,4435C 1290.21,4447.38 1301.71,4461.55 1311,4477.5C 1326.88,4506.26 1339.72,4536.26 1349.5,4567.5C 1356.54,4566.42 1363.54,4565.09 1370.5,4563.5C 1356.59,4522.1 1340.09,4481.76 1321,4442.5C 1307.92,4422 1294.58,4401.66 1281,4381.5C 1274.62,4371.07 1269.62,4360.07 1266,4348.5C 1262.99,4336.78 1265.83,4326.95 1274.5,4319C 1290.9,4309.57 1307.9,4308.24 1325.5,4315C 1338.82,4324.16 1348.99,4335.99 1356,4350.5C 1365.44,4371.16 1373.11,4392.5 1379,4414.5C 1389.86,4460.96 1397.36,4507.96 1401.5,4555.5C 1402.5,4555.83 1403.5,4556.17 1404.5,4556.5C 1414.17,4554.06 1424,4552.73 1434,4552.5C 1451.69,4552.57 1465.36,4559.9 1475,4574.5C 1477.15,4580.3 1476.98,4585.96 1474.5,4591.5 Z"/></g>
<g><path style="opacity:1" fill="#a8d2a0" d="M 5171.5,4330.5 C 5218.53,4329.55 5230.36,4349.55 5207,4390.5C 5195.39,4409.1 5183.39,4427.44 5171,4445.5C 5157.47,4470.24 5145.8,4495.91 5136,4522.5C 5130.52,4537.1 5125.36,4551.77 5120.5,4566.5C 5126.57,4567.08 5132.57,4568.08 5138.5,4569.5C 5146.85,4547.14 5156.02,4525.14 5166,4503.5C 5175.85,4482.63 5189.02,4464.13 5205.5,4448C 5213.51,4441.24 5222.68,4437.41 5233,4436.5C 5244.29,4436.61 5254.79,4439.45 5264.5,4445C 5271.99,4451.15 5274.49,4458.98 5272,4468.5C 5266.98,4482.53 5258.48,4494.03 5246.5,4503C 5213.28,4524.89 5180.62,4547.55 5148.5,4571C 5169.38,4573.89 5190.38,4575.23 5211.5,4575C 5229.01,4576.04 5245.01,4581.37 5259.5,4591C 5180.83,4591.67 5102.17,4591.67 5023.5,4591C 5020.95,4585.51 5021.12,4580.01 5024,4574.5C 5033.32,4561.51 5045.99,4555.17 5062,4555.5C 5072.25,4556.1 5082.42,4557.44 5092.5,4559.5C 5095.74,4502.57 5105.91,4446.91 5123,4392.5C 5129.78,4372.77 5140.28,4355.27 5154.5,4340C 5159.86,4336.1 5165.53,4332.94 5171.5,4330.5 Z"/></g>
<g><path style="opacity:1" fill="#7a9feb" d="M 3696.5,4397.5 C 3693.26,4432.97 3690.26,4468.47 3687.5,4504C 3687.86,4521.02 3694.53,4535.02 3707.5,4546C 3724.31,4557.44 3742.97,4563.6 3763.5,4564.5C 3607,4565.5 3450.33,4565.83 3293.5,4565.5C 3270.18,4565.47 3247.02,4565.47 3224,4565.5C 3200.09,4565.23 3183.43,4554.23 3174,4532.5C 3168.69,4516.17 3166.85,4500.17 3168.5,4484.5C 3168.5,4488.5 3168.5,4492.5 3168.5,4496.5C 3344.55,4463.83 3520.55,4430.83 3696.5,4397.5 Z"/></g>
<g><path style="opacity:1" fill="#204480" d="M 4713.5,4439.5 C 4719.97,4448.07 4727.13,4456.07 4735,4463.5C 4738.33,4468.17 4741.67,4472.83 4745,4477.5C 4752.63,4490.07 4752.29,4502.41 4744,4514.5C 4734.62,4524.87 4725.62,4535.54 4717,4546.5C 4714.61,4551 4712.61,4555.67 4711,4560.5C 4709.87,4572.43 4705.37,4582.77 4697.5,4591.5C 4667.83,4591.5 4638.17,4591.5 4608.5,4591.5C 4609.01,4585.81 4612.01,4581.98 4617.5,4580C 4625.73,4579.09 4633.07,4576.09 4639.5,4571C 4649.57,4560.15 4655.4,4547.32 4657,4532.5C 4657.27,4510.16 4657.77,4487.82 4658.5,4465.5C 4669.76,4463.77 4680.76,4460.93 4691.5,4457C 4700.49,4453.17 4707.82,4447.34 4713.5,4439.5 Z"/></g>
<g><path style="opacity:1" fill="#1d3154" d="M 6100.5,4448.5 C 6111.66,4459.16 6121.16,4471.16 6129,4484.5C 6131.34,4490.63 6132.01,4496.96 6131,4503.5C 6124.58,4515.6 6116.24,4526.27 6106,4535.5C 6097.76,4545.65 6093.1,4557.32 6092,4570.5C 6088.85,4578.81 6083.68,4585.48 6076.5,4590.5C 6075.5,4590.83 6074.83,4591.5 6074.5,4592.5C 6049.71,4592.48 6024.71,4592.48 5999.5,4592.5C 5999.5,4589.5 5999.5,4586.5 5999.5,4583.5C 5999.71,4582.08 6000.21,4580.74 6001,4579.5C 6005.92,4574.96 6011.75,4572.46 6018.5,4572C 6021.63,4570.6 6024.63,4568.93 6027.5,4567C 6038.5,4556.21 6044.34,4543.05 6045,4527.5C 6044.29,4510.83 6044.45,4494.16 6045.5,4477.5C 6064.99,4470.01 6083.32,4460.34 6100.5,4448.5 Z"/></g>
<g><path style="opacity:1" fill="#1d3154" d="M 4455.5,4497.5 C 4456.26,4514.66 4456.93,4531.83 4457.5,4549C 4457.56,4563.66 4456.23,4578.16 4453.5,4592.5C 4392.65,4592.49 4331.65,4592.49 4270.5,4592.5C 4270.5,4592.17 4270.5,4591.83 4270.5,4591.5C 4273.23,4581.61 4279.56,4575.11 4289.5,4572C 4315.47,4568.46 4339.47,4559.79 4361.5,4546C 4374.22,4537.46 4382.89,4525.96 4387.5,4511.5C 4389.81,4512.32 4392.15,4513.15 4394.5,4514C 4417.12,4516.28 4437.45,4510.78 4455.5,4497.5 Z"/></g>
<g><path style="opacity:1" fill="#1d3154" d="M 5622.5,4521.5 C 5643.64,4534.86 5666.64,4539.52 5691.5,4535.5C 5691.67,4546.84 5691.5,4558.17 5691,4569.5C 5690.57,4577.14 5689.07,4584.47 5686.5,4591.5C 5685.83,4591.5 5685.5,4591.83 5685.5,4592.5C 5628.83,4592.5 5572.17,4592.5 5515.5,4592.5C 5517.78,4582.05 5524.11,4575.22 5534.5,4572C 5556.6,4568.93 5577.27,4561.93 5596.5,4551C 5608.06,4543.73 5616.72,4533.89 5622.5,4521.5 Z"/></g>
<g><path style="opacity:1" fill="#113c67" d="M 1681.5,4523.5 C 1689.77,4525.48 1698.1,4527.32 1706.5,4529C 1727.47,4531.83 1748.13,4530.66 1768.5,4525.5C 1773.7,4531.87 1779.7,4537.37 1786.5,4542C 1806.32,4555.05 1827.99,4563.72 1851.5,4568C 1864.09,4571.09 1871.76,4578.93 1874.5,4591.5C 1814.76,4591.17 1755.1,4591.5 1695.5,4592.5C 1695.67,4591.51 1695.34,4590.84 1694.5,4590.5C 1687.05,4568.84 1682.72,4546.51 1681.5,4523.5 Z"/></g>
<g><path style="opacity:1" fill="#15447c" d="M 1980.5,4521.5 C 1980.39,4522.12 1980.06,4522.62 1979.5,4523C 2002.48,4547.16 2030.48,4561.82 2063.5,4567C 2077.04,4570.04 2085.38,4578.21 2088.5,4591.5C 2028.83,4591.5 1969.17,4591.5 1909.5,4591.5C 1907.13,4587.42 1905.3,4583.09 1904,4578.5C 1900.4,4561.24 1897.57,4543.91 1895.5,4526.5C 1924.4,4533.31 1952.74,4531.64 1980.5,4521.5 Z"/></g>
<g><path style="opacity:1" fill="#aec2fe" d="M 3763.5,4564.5 C 3795.15,4565.43 3826.82,4565.76 3858.5,4565.5C 3858.5,4574.17 3858.5,4582.83 3858.5,4591.5C 3670.17,4591.5 3481.83,4591.5 3293.5,4591.5C 3293.5,4582.83 3293.5,4574.17 3293.5,4565.5C 3450.33,4565.83 3607,4565.5 3763.5,4564.5 Z"/></g>
<g><path style="opacity:1" fill="#8092a1" d="M 1694.5,4590.5 C 1695.34,4590.84 1695.67,4591.51 1695.5,4592.5C 1415.17,4592.5 1134.83,4592.5 854.5,4592.5C 940.332,4591.5 1026.33,4591.17 1112.5,4591.5C 1148.17,4591.5 1183.83,4591.5 1219.5,4591.5C 1304.5,4591.5 1389.5,4591.5 1474.5,4591.5C 1548,4591.83 1621.34,4591.5 1694.5,4590.5 Z"/></g>
<g><path style="opacity:1" fill="#8796ad" d="M 3173.5,4590.5 C 3176.07,4590.72 3178.4,4591.39 3180.5,4592.5C 2816.33,4592.83 2452.33,4592.5 2088.5,4591.5C 2450.33,4591.83 2812,4591.5 3173.5,4590.5 Z"/></g>
<g><path style="opacity:1" fill="#223862" d="M 1874.5,4591.5 C 1886.17,4592.83 1897.83,4592.83 1909.5,4591.5C 1969.17,4591.5 2028.83,4591.5 2088.5,4591.5C 2452.33,4592.5 2816.33,4592.83 3180.5,4592.5C 3543.83,4592.5 3907.17,4592.5 4270.5,4592.5C 4331.65,4592.49 4392.65,4592.49 4453.5,4592.5C 4505.24,4592.83 4556.91,4592.5 4608.5,4591.5C 4638.17,4591.5 4667.83,4591.5 4697.5,4591.5C 4970,4592.5 5242.67,4592.83 5515.5,4592.5C 5572.17,4592.5 5628.83,4592.5 5685.5,4592.5C 5790.17,4592.5 5894.83,4592.5 5999.5,4592.5C 6024.71,4592.48 6049.71,4592.48 6074.5,4592.5C 6267.5,4592.5 6460.5,4592.5 6653.5,4592.5C 6657.9,4593.83 6659.57,4596.83 6658.5,4601.5C 6659.63,4606.75 6657.63,4609.92 6652.5,4611C 5686,4611.17 4719.5,4611.33 3753,4611.5C 2786.5,4611.33 1820,4611.17 853.5,4611C 849.614,4609.06 847.947,4605.9 848.5,4601.5C 847.796,4596.55 849.796,4593.55 854.5,4592.5C 1134.83,4592.5 1415.17,4592.5 1695.5,4592.5C 1755.1,4591.5 1814.76,4591.17 1874.5,4591.5 Z"/></g>
<g><path style="opacity:1" fill="#8695ac" d="M 5999.5,4583.5 C 5999.5,4586.5 5999.5,4589.5 5999.5,4592.5C 5894.83,4592.5 5790.17,4592.5 5685.5,4592.5C 5685.5,4591.83 5685.83,4591.5 5686.5,4591.5C 5790.5,4591.5 5894.5,4591.5 5998.5,4591.5C 5998.19,4588.61 5998.53,4585.95 5999.5,4583.5 Z"/></g>
<g><path style="opacity:1" fill="#8d99af" d="M 6076.5,4590.5 C 6198,4591.5 6319.67,4591.83 6441.5,4591.5C 6512.34,4591.17 6583,4591.5 6653.5,4592.5C 6460.5,4592.5 6267.5,4592.5 6074.5,4592.5C 6074.83,4591.5 6075.5,4590.83 6076.5,4590.5 Z"/></g>
</svg>
