<?xml version="1.0" encoding="UTF-8" standalone="no"?>
<svg
   xmlns:dc="http://purl.org/dc/elements/1.1/"
   xmlns:cc="http://creativecommons.org/ns#"
   xmlns:rdf="http://www.w3.org/1999/02/22-rdf-syntax-ns#"
   xmlns:svg="http://www.w3.org/2000/svg"
   xmlns="http://www.w3.org/2000/svg"
   viewBox="0 0 4266.6665 2666.6667"
   height="2666.6667"
   width="4266.6665"
   xml:space="preserve"
   id="svg2"
   version="1.1"><metadata
     id="metadata8"><rdf:RDF><cc:Work
         rdf:about=""><dc:format>image/svg+xml</dc:format><dc:type
           rdf:resource="http://purl.org/dc/dcmitype/StillImage" /></cc:Work></rdf:RDF></metadata><defs
     id="defs6" /><g
     transform="matrix(1.3333333,0,0,-1.3333333,0,2666.6667)"
     id="g10"><g
       transform="scale(0.1)"
       id="g12"><g
         transform="scale(1.96319)"
         id="g14"><path
           id="path16"
           style="fill:#ebf3fa;fill-opacity:1;fill-rule:nonzero;stroke:none"
           d="M 16300,0 H 0 V 10187.5 H 16300 V 0" /></g><g
         transform="scale(1.50611)"
         id="g18"><path
           id="path20"
           style="fill:#dfebfa;fill-opacity:1;fill-rule:nonzero;stroke:none"
           d="m 16214.6,8500.23 h -430.2 v 959.57 c -6.7,3.82 -13.2,7.63 -19.9,11.46 h -128.2 v 0.45 h -746.2 v -0.45 h -0.6 v -143.85 h 0.6 v -98.92 h -0.6 v -143.8 h 0.6 v -99.28 h -0.6 v -143.85 h 0.6 v -0.52 l -79,0.52 V 9594 h -837.3 v -95.31 h -0.5 V 9354.9 h 0.5 v -126.41 h -0.5 v -143.8 h 0.5 v -99.28 h -0.5 v -143.85 h 0.5 v -91.86 h -0.5 v -143.84 h 0.5 V 8514 h -0.5 v -143.84 h 0.5 v -86.5 h -0.5 v -91.34 h 0.5 v -9.95 h -943.7 v -823.2 h -352.7 v -207.34 h -380.1 v 357.11 h -683.9 v 970.2 h -106.9 v 96.65 h -15.3 v -96.65 h -88.7 v 0.15 H 10959 v 96.5 h -15.4 v -96.5 H 10828 v -487.91 l -574.4,2.69 V 7692.91 H 9766.61 V 9554.5 H 8323.69 V 7560.21 h -440.67 v 1078.4 H 6440.09 V 1661.83 l 9859.91,37.58 -85.4,6800.82" /></g><path
         id="path22"
         style="fill:#dfebfa;fill-opacity:1;fill-rule:nonzero;stroke:none"
         d="M 9701.54,11097.4 V 2574.6 H 7850.06 v 8522.8 h 1851.48" /><path
         id="path24"
         style="fill:#eef6ff;fill-opacity:1;fill-rule:nonzero;stroke:none"
         d="m 14709.6,13914.9 h -1614.1 v 475.2 h 1614.1 v -475.2" /><path
         id="path26"
         style="fill:#eef6ff;fill-opacity:1;fill-rule:nonzero;stroke:none"
         d="m 14709.6,13183.4 h -1614.1 v 475.2 h 1614.1 v -475.2" /><path
         id="path28"
         style="fill:#eef6ff;fill-opacity:1;fill-rule:nonzero;stroke:none"
         d="m 14709.6,12436.6 h -1614.1 v 475.3 h 1614.1 v -475.3" /><path
         id="path30"
         style="fill:#eef6ff;fill-opacity:1;fill-rule:nonzero;stroke:none"
         d="m 14709.6,11677.9 h -1614.1 v 475.3 h 1614.1 v -475.3" /><path
         id="path32"
         style="fill:#eef6ff;fill-opacity:1;fill-rule:nonzero;stroke:none"
         d="m 14709.6,10945.9 h -1614.1 v 475.3 h 1614.1 v -475.3" /><g
         transform="scale(1.3407)"
         id="g34"><path
           id="path36"
           style="fill:#eef6ff;fill-opacity:1;fill-rule:nonzero;stroke:none"
           d="m 16300,10562.4 h -602 v 215.3 h 602 v -215.3" /></g><g
         transform="scale(1.3407)"
         id="g38"><path
           id="path40"
           style="fill:#eef6ff;fill-opacity:1;fill-rule:nonzero;stroke:none"
           d="m 16300,10231 h -602 v 215.3 h 602 V 10231" /></g><g
         transform="scale(1.3407)"
         id="g42"><path
           id="path44"
           style="fill:#eef6ff;fill-opacity:1;fill-rule:nonzero;stroke:none"
           d="m 16300,9892.78 h -602 v 215.32 h 602 v -215.32" /></g><g
         transform="scale(1.3407)"
         id="g46"><path
           id="path48"
           style="fill:#eef6ff;fill-opacity:1;fill-rule:nonzero;stroke:none"
           d="m 16300,9549.12 h -602 v 215.28 h 602 v -215.28" /></g><g
         transform="scale(1.3407)"
         id="g50"><path
           id="path52"
           style="fill:#eef6ff;fill-opacity:1;fill-rule:nonzero;stroke:none"
           d="m 16300,9217.53 h -602 v 215.28 h 602 v -215.28" /></g><g
         transform="scale(1.3407)"
         id="g54"><path
           id="path56"
           style="fill:#eef6ff;fill-opacity:1;fill-rule:nonzero;stroke:none"
           d="m 16300,8852.59 h -602 v 215.28 h 602 v -215.28" /></g><g
         transform="scale(1.3407)"
         id="g58"><path
           id="path60"
           style="fill:#eef6ff;fill-opacity:1;fill-rule:nonzero;stroke:none"
           d="m 16300,8521.24 h -602 v 215.27 h 602 v -215.27" /></g><g
         transform="scale(1.3407)"
         id="g62"><path
           id="path64"
           style="fill:#eef6ff;fill-opacity:1;fill-rule:nonzero;stroke:none"
           d="m 16300,8182.97 h -602 v 215.27 h 602 v -215.27" /></g><g
         transform="scale(1.3407)"
         id="g66"><path
           id="path68"
           style="fill:#eef6ff;fill-opacity:1;fill-rule:nonzero;stroke:none"
           d="m 16300,7839.31 h -602 v 215.28 h 602 v -215.28" /></g><g
         transform="scale(1.3407)"
         id="g70"><path
           id="path72"
           style="fill:#eef6ff;fill-opacity:1;fill-rule:nonzero;stroke:none"
           d="m 16300,7507.72 h -602 V 7723 h 602 v -215.28" /></g><g
         transform="scale(1.42545)"
         id="g74"><path
           id="path76"
           style="fill:#eef6ff;fill-opacity:1;fill-rule:nonzero;stroke:none"
           d="m 16300,9801.64 h -566.2 v 202.46 h 566.2 v -202.46" /></g><g
         transform="scale(1.42545)"
         id="g78"><path
           id="path80"
           style="fill:#eef6ff;fill-opacity:1;fill-rule:nonzero;stroke:none"
           d="m 16300,9489.99 h -566.2 v 202.48 h 566.2 v -202.48" /></g><g
         transform="scale(1.42545)"
         id="g82"><path
           id="path84"
           style="fill:#eef6ff;fill-opacity:1;fill-rule:nonzero;stroke:none"
           d="m 16300,9171.83 h -566.2 v 202.48 h 566.2 v -202.48" /></g><g
         transform="scale(1.42545)"
         id="g86"><path
           id="path88"
           style="fill:#eef6ff;fill-opacity:1;fill-rule:nonzero;stroke:none"
           d="m 16300,8848.61 h -566.2 v 202.48 h 566.2 v -202.48" /></g><g
         transform="scale(1.42545)"
         id="g90"><path
           id="path92"
           style="fill:#eef6ff;fill-opacity:1;fill-rule:nonzero;stroke:none"
           d="m 16300,8536.74 h -566.2 v 202.47 h 566.2 v -202.47" /></g><g
         transform="scale(1.42545)"
         id="g94"><path
           id="path96"
           style="fill:#eef6ff;fill-opacity:1;fill-rule:nonzero;stroke:none"
           d="m 16300,8211.59 h -566.2 v 202.47 h 566.2 v -202.47" /></g><g
         transform="scale(1.42545)"
         id="g98"><path
           id="path100"
           style="fill:#eef6ff;fill-opacity:1;fill-rule:nonzero;stroke:none"
           d="m 16300,7899.93 h -566.2 v 202.48 h 566.2 v -202.48" /></g><g
         transform="scale(1.42545)"
         id="g102"><path
           id="path104"
           style="fill:#eef6ff;fill-opacity:1;fill-rule:nonzero;stroke:none"
           d="m 16300,7581.77 h -566.2 v 202.48 h 566.2 v -202.48" /></g><g
         transform="scale(1.42545)"
         id="g106"><path
           id="path108"
           style="fill:#eef6ff;fill-opacity:1;fill-rule:nonzero;stroke:none"
           d="m 16300,7258.54 h -566.2 v 202.48 h 566.2 v -202.48" /></g><g
         transform="scale(1.42545)"
         id="g110"><path
           id="path112"
           style="fill:#eef6ff;fill-opacity:1;fill-rule:nonzero;stroke:none"
           d="m 16300,6946.66 h -566.2 v 202.49 h 566.2 v -202.49" /></g><g
         transform="scale(1.42545)"
         id="g114"><path
           id="path116"
           style="fill:#eef6ff;fill-opacity:1;fill-rule:nonzero;stroke:none"
           d="m 16300,6589.02 h -566.2 v 202.46 h 566.2 v -202.46" /></g><g
         transform="scale(1.42545)"
         id="g118"><path
           id="path120"
           style="fill:#eef6ff;fill-opacity:1;fill-rule:nonzero;stroke:none"
           d="m 16300,6277.33 h -566.2 v 202.46 h 566.2 v -202.46" /></g><g
         transform="scale(1.42545)"
         id="g122"><path
           id="path124"
           style="fill:#eef6ff;fill-opacity:1;fill-rule:nonzero;stroke:none"
           d="m 16300,5959.18 h -566.2 v 202.46 h 566.2 v -202.46" /></g><g
         transform="scale(1.42545)"
         id="g126"><path
           id="path128"
           style="fill:#eef6ff;fill-opacity:1;fill-rule:nonzero;stroke:none"
           d="m 16300,5635.91 h -566.2 v 202.54 h 566.2 v -202.54" /></g><g
         transform="scale(1.42545)"
         id="g130"><path
           id="path132"
           style="fill:#eef6ff;fill-opacity:1;fill-rule:nonzero;stroke:none"
           d="m 16300,5324.08 h -566.2 v 202.46 h 566.2 v -202.46" /></g><g
         transform="scale(1.22266)"
         id="g134"><path
           id="path136"
           style="fill:#dfebfa;fill-opacity:1;fill-rule:nonzero;stroke:none"
           d="m 16300,10070.6 h -32.8 v 481.7 h 32.8 v -481.7" /></g><g
         transform="scale(1.26542)"
         id="g138"><path
           id="path140"
           style="fill:#dfebfa;fill-opacity:1;fill-rule:nonzero;stroke:none"
           d="m 16300,9694.15 h -49.2 v 901.25 h 49.2 v -901.25" /></g><path
         id="path142"
         style="fill:#dfebfa;fill-opacity:1;fill-rule:nonzero;stroke:none"
         d="m 12706.6,14390.1 h -26 v 210 h 26 v -210" /><path
         id="path144"
         style="fill:#dfebfa;fill-opacity:1;fill-rule:nonzero;stroke:none"
         d="m 13256.7,14390.1 h -25.9 v 210 h 25.9 v -210" /><path
         id="path146"
         style="fill:#dfebfa;fill-opacity:1;fill-rule:nonzero;stroke:none"
         d="m 14517.8,14390.1 h -25.9 v 210 h 25.9 v -210" /><g
         transform="scale(1.30008)"
         id="g148"><path
           id="path150"
           style="fill:#dfebfa;fill-opacity:1;fill-rule:nonzero;stroke:none"
           d="m 16300,11114.4 h -15.5 v 124.7 h 15.5 v -124.7" /></g><g
         transform="scale(1.35816)"
         id="g152"><path
           id="path154"
           style="fill:#dfebfa;fill-opacity:1;fill-rule:nonzero;stroke:none"
           d="m 16300,10639.1 h -14.8 v 119.4 h 14.8 v -119.4" /></g><path
         id="path156"
         style="fill:#dfebfa;fill-opacity:1;fill-rule:nonzero;stroke:none"
         d="m 14024.8,14390.1 h -25.9 v 210 h 25.9 v -210" /><g
         transform="scale(1.45772)"
         id="g158"><path
           id="path160"
           style="fill:#afcdfb;fill-opacity:1;fill-rule:nonzero;stroke:none"
           d="m 15887,3482.02 c -161.3,-61.13 -1229.6,-173.35 -1185.6,-308.64 44.1,-135.28 790.7,-271.79 1177.7,-99.67 0,0 -314,-1146.66 -902.3,-1160.03 -588.5,-13.31 -811.1,325.58 -1174.5,310.69 -363.5,-14.75 -615.2,-142.9 -423.7,-218.56 191.5,-75.74 793.4,61.53 1113.5,-151.41 47,-31.21 92.6,-60.64 134.5,-88.49 25.1,-16.81 49,-33.06 71.1,-48.91 h -2140.3 c 0.1,17.35 -0.1,33.68 -0.4,48.91 -2,90.07 -9.6,141.73 -9.6,141.73 0,0 -1107.6,459.01 -716.1,1305.94 0,0 330.6,530.63 731.4,704.39 0,0 -82.4,-1203.66 142.4,-1205.1 225,-1.58 -4.7,1347.86 -4.7,1347.86 0,0 1032.2,655.68 1466.5,664.88 0,0 -542.9,-1230.01 -324.5,-1176.09 218.3,53.92 842.7,1307.52 842.7,1307.52 0,0 1097.6,340.33 1356.3,-303.28 258.6,-643.74 7,-1010.55 -154.4,-1071.74" /></g><g
         transform="scale(1.11601)"
         id="g162"><path
           id="path164"
           style="fill:#cde0fb;fill-opacity:1;fill-rule:nonzero;stroke:none"
           d="m 9294.34,15570.4 c 256.45,729.6 1495.56,404.5 1495.56,404.5 0,0 757.2,-1365.6 1003.1,-1414.9 245.8,-49.3 -419.4,1293.9 -419.4,1293.9 484.2,11.2 1666.1,-668.4 1666.1,-668.4 0,0 -189.4,-1514.3 61,-1501.5 250.5,12.7 99.4,1349.4 99.4,1349.4 455,-173.9 849.3,-748.7 849.3,-748.7 477.8,-924 -733.4,-1489.8 -733.4,-1489.8 0,0 -54.3,-526.2 226.9,-1155 v -0.1 c 0,0 65.2,-117 125.9,-312.4 l -126.8,9.4 c -7.8,34.7 -16.8,68.5 -27.2,101 0.1,0.2 0,0.4 -0.2,0.5 -0.2,0.5 -0.2,1 -0.4,1.4 -7.3,20.3 -17.7,49.1 -30.8,84.2 0,0.1 0,0.1 0,0.2 0,0 -0.1,0 0,0.1 -33.3,78.7 -55.3,136.7 -68.9,178.4 -0.1,0.1 -0.1,0.3 -0.1,0.4 -98.6,246.7 -243,569.3 -349.8,642.6 0,0 15.4,18.7 31.4,56.2 -10,-17.9 -20.4,-36.6 -31.4,-56.2 -251.4,-449.3 -1342.8,-446.9 -1938.6,-278.3 -595.7,168.6 -319.5,319.8 26.6,572.7 346.1,252.9 1023.2,129.7 1232.8,223.4 209.6,93.7 -77.1,224 -482.6,222.7 -405.5,-1.4 -636.9,-389.8 -1292.9,-403.9 -655.89,-14.1 -1062.07,1247.8 -1062.07,1247.8 439.51,-172.7 1264.37,16 1306.77,168.9 42.4,152.8 -1153.01,225.2 -1335.71,285.4 -182.62,60.2 -480.91,456.5 -224.55,1186.1" /></g><g
         transform="scale(1.30461)"
         id="g166"><path
           id="path168"
           style="fill:#dfebf9;fill-opacity:1;fill-rule:nonzero;stroke:none"
           d="m 16130.1,12615.8 c -169.9,483.4 -990.9,268 -990.9,268 0,0 -501.6,-904.8 -664.5,-937.4 -162.9,-32.7 277.9,857.3 277.9,857.3 -320.9,7.4 -1103.9,-442.9 -1103.9,-442.9 0,0 125.5,-1003.2 -40.5,-994.8 -165.8,8.5 -65.7,894 -65.7,894 -301.5,-115.2 -562.7,-496 -562.7,-496 -316.6,-612.2 485.9,-987 485.9,-987 0,0 35.9,-348.7 -150.4,-765.3 v 0 c 0,0 -43.2,-77.58 -83.4,-206.99 l 84,6.19 c 5.2,23.04 11.2,45.37 18,66.92 0,0.15 0,0.27 0.1,0.38 0.1,0.32 0.2,0.62 0.4,0.93 4.7,13.42 11.6,32.5 20.3,55.78 0,0.03 0,0.06 0,0.08 0,0.05 0.1,0.06 0,0.11 22,52.16 36.7,90.6 45.7,118.2 0,0.1 0,0.2 0,0.2 65.3,163.5 161.1,377.2 231.8,425.8 0,0 -10.2,12.4 -20.8,37.2 6.6,-11.9 13.5,-24.2 20.8,-37.2 166.6,-297.7 889.6,-296.1 1284.3,-184.4 394.8,111.7 211.7,211.9 -17.5,379.4 -229.4,167.6 -677.9,86 -816.8,148.1 -138.9,62.1 51,148.4 319.8,147.5 268.6,-0.9 421.8,-258.2 856.5,-267.6 434.6,-9.3 703.6,826.7 703.6,826.7 -291.1,-114.4 -837.5,10.6 -865.7,111.9 -28.1,101.2 763.8,149.2 884.9,189.1 121.1,39.9 318.7,302.4 148.8,785.8" /></g><path
         id="path170"
         style="fill:#afcdfb;fill-opacity:1;fill-rule:nonzero;stroke:none"
         d="m 9330.2,9234.8 c 205.66,848 1633.4,622.6 1633.4,622.6 0,0 1003.8,-1447.7 1285.3,-1475.4 281.6,-27.6 -616.5,1405.4 -616.5,1405.4 542.3,67 1945.7,-562.7 1945.7,-562.7 0,0 -42.1,-1721.2 237.6,-1678.7 279.7,42.6 -40.5,1526 -40.5,1526 530.4,-143.9 1037.8,-744.8 1037.8,-744.8 640.4,-983.4 -655.5,-1755 -655.5,-1755 0,0 -1.7,-596.8 384.8,-1271.1 v 0 c 0,0 86.5,-124.1 176.7,-336.5 l -143.5,-3.8 c -12.7,38.1 -26.6,74.9 -41.9,110.3 0,0.2 -0.1,0.4 -0.3,0.6 -0.2,0.5 -0.4,1 -0.6,1.5 -10.4,21.9 -25.4,53.1 -44,91.1 l -0.1,0.1 c 0,0.1 -0.1,0.1 -0.1,0.2 -46.1,84.6 -77.4,147.2 -97.3,192.5 -0.1,0.1 -0.2,0.3 -0.2,0.4 -138.5,265.8 -337,611.7 -465.1,682 0,0 15.3,22.7 29,66.6 -9.3,-21.3 -18.9,-43.4 -29,-66.6 -231.6,-532.7 -1457,-653 -2144.8,-530.9 -687.8,122.2 -394.7,323 -34.7,646 360,322.9 1134,260.8 1358.7,389.6 224.8,128.9 -111.7,242.8 -566.8,195.6 -455.1,-47.2 -671.1,-509.3 -1405.9,-599 -734.8,-89.7 -1332.82,1281.1 -1332.82,1281.1 512.82,-144.4 1417.42,160.5 1447.92,336.8 30.4,176.3 -1319.71,122.9 -1531.59,170 -211.87,47 -591.38,458.2 -385.71,1306.1" /><g
         transform="scale(1.40613)"
         id="g172"><path
           id="path174"
           style="fill:#afcdfb;fill-opacity:1;fill-rule:nonzero;stroke:none"
           d="m 16032.2,6023.7 c 267.8,452.59 -443.5,955.68 -443.5,955.68 0,0 -1042.2,-202.97 -1175.4,-96.51 -133.2,106.53 857.2,347.56 857.2,347.56 -206,257.03 -1076.8,575.28 -1076.8,575.28 0,0 -705.6,-760.91 -808.5,-624.91 -102.9,135.98 659.2,641.85 659.2,641.85 -289.5,160.91 -761.3,114.86 -761.3,114.86 -690.1,-155.33 -455,-1033.45 -455,-1033.45 0,0 -250.3,-258.44 -700.7,-387.02 v 0 c 0,0 -89.5,-17.21 -217.8,-71.04 l 60.3,-61.95 c 21.5,11.1 43.1,21.2 64.5,30.01 0.1,0.14 0.2,0.14 0.4,0.14 0.3,0.15 0.6,0.29 0.9,0.36 13.7,5.12 33.3,12.3 57.3,20.84 0.1,0 0.1,0 0.1,0 0,0.07 0.1,0 0.1,0.07 55.5,17.14 95.4,31.01 123,42.17 0.1,0 0.2,0.07 0.2,0.15 171.6,56.53 402.8,122.39 487.6,98.85 0,0 3,16.21 15.5,40.96 -4.9,-13.08 -10.1,-26.67 -15.5,-40.96 -124,-327.43 354.5,-894.73 702.9,-1131.19 348.4,-236.47 306.3,-26.53 286.7,264.34 -19.7,290.8 -380,589.49 -422.8,739.62 -42.9,150.13 150.3,57.82 327,-153.97 176.6,-211.72 75.5,-502.02 355,-849.78 279.6,-347.76 1114.3,-7.4 1114.3,-7.4 -282.2,153.33 -544.5,665.38 -483.5,754.35 60.9,88.89 621.5,-501.95 732.7,-570.72 111.3,-68.77 448,-50.85 715.9,401.81" /></g><g
         transform="scale(1.2386)"
         id="g176"><path
           id="path178"
           style="fill:#ffffff;fill-opacity:1;fill-rule:nonzero;stroke:none"
           d="m 15738.4,2058.22 h -4935.8 c -310.2,0 -561.6,251.41 -561.6,561.6 v 9441.98 c 0,310.2 251.4,561.7 561.6,561.7 h 4935.8 c 310.2,0 561.6,-251.5 561.6,-561.7 V 2619.82 c 0,-310.19 -251.4,-561.6 -561.6,-561.6" /></g><g
         transform="scale(1.24395)"
         id="g180"><path
           id="path182"
           style="fill:#2b478b;fill-opacity:1;fill-rule:nonzero;stroke:none"
           d="m 10756.1,12498.9 c -269.6,0 -489,-219.3 -489,-489 V 2608.54 c 0,-269.62 219.4,-489 489,-489 h 4914.5 c 269.7,0 489,219.38 489,489 v 9401.36 c 0,269.7 -219.3,489 -489,489 z M 15670.6,1979.18 h -4914.5 c -347,0 -629.4,282.32 -629.4,629.36 v 9401.36 c 0,347.1 282.4,629.4 629.4,629.4 h 4914.5 c 347.1,0 629.4,-282.3 629.4,-629.4 V 2608.54 c 0,-347.04 -282.3,-629.36 -629.4,-629.36" /></g><path
         id="path184"
         style="fill:#dceaff;fill-opacity:1;fill-rule:nonzero;stroke:none"
         d="M 15543.5,13074.3 H 13032.6 V 14140 h 2510.9 v -1065.7" /><path
         id="path186"
         style="fill:#dceaff;fill-opacity:1;fill-rule:nonzero;stroke:none"
         d="m 15543.5,11658.1 h -2510.9 v 1065.6 h 2510.9 v -1065.6" /><g
         transform="scale(1.06148)"
         id="g188"><path
           id="path190"
           style="fill:#dceaff;fill-opacity:1;fill-rule:nonzero;stroke:none"
           d="m 15220.2,10969.2 v 2365.4 H 16300 v -2365.4 h -1079.8" /></g><g
         transform="scale(1.0116)"
         id="g192"><path
           id="path194"
           style="fill:#dceaff;fill-opacity:1;fill-rule:nonzero;stroke:none"
           d="m 13939.6,8016.65 c 0,651.74 528.3,1180.21 1180.2,1180.21 651.8,0 1180.2,-528.47 1180.2,-1180.21 0,-651.85 -528.4,-1180.32 -1180.2,-1180.32 -651.9,0 -1180.2,528.47 -1180.2,1180.32" /></g><g
         transform="scale(1.21918)"
         id="g196"><path
           id="path198"
           style="fill:#dceaff;fill-opacity:1;fill-rule:nonzero;stroke:none"
           d="M 16300,6499.62 H 10689.7 V 6651.7 H 16300 v -152.08" /></g><g
         transform="scale(1.2078)"
         id="g200"><path
           id="path202"
           style="fill:#dceaff;fill-opacity:1;fill-rule:nonzero;stroke:none"
           d="m 16300,9255.33 h -5509.7 v 153.5 H 16300 v -153.5" /></g><path
         id="path204"
         style="fill:#dceaff;fill-opacity:1;fill-rule:nonzero;stroke:none"
         d="m 15268.9,4847 v 6339.7 h 185.4 V 4847 h -185.4" /><g
         transform="scale(1.21918)"
         id="g206"><path
           id="path208"
           style="fill:#dceaff;fill-opacity:1;fill-rule:nonzero;stroke:none"
           d="M 16147.9,6503.81 V 11703.8 H 16300 V 6503.81 h -152.1" /></g><g
         transform="scale(1.09081)"
         id="g210"><path
           id="path212"
           style="fill:#dceaff;fill-opacity:1;fill-rule:nonzero;stroke:none"
           d="m 16130,4443.49 v 8519.31 h 170 V 4443.49 h -170" /></g><path
         id="path214"
         style="fill:#ffffff;fill-opacity:1;fill-rule:nonzero;stroke:none"
         d="m 14491,8109.6 c 0,444 360,804 804.1,804 444.1,0 804.1,-360 804.1,-804 0,-444.1 -360,-804.1 -804.1,-804.1 -444.1,0 -804.1,360 -804.1,804.1" /><g
         transform="scale(1.01929)"
         id="g216"><path
           id="path218"
           style="fill:#dceaff;fill-opacity:1;fill-rule:nonzero;stroke:none"
           d="m 16300,9347.15 h -899.6 V 10744.4 H 16300 V 9347.15" /></g><path
         id="path220"
         style="fill:#dceaff;fill-opacity:1;fill-rule:nonzero;stroke:none"
         d="m 13926.5,8856.6 h -893.9 v 1023.3 h 893.9 V 8856.6" /><path
         id="path222"
         style="fill:#dceaff;fill-opacity:1;fill-rule:nonzero;stroke:none"
         d="m 14831.4,10057.8 h -1798.8 v 893.9 h 1798.8 v -893.9" /><g
         transform="scale(1.06815)"
         id="g224"><path
           id="path226"
           style="fill:#dceaff;fill-opacity:1;fill-rule:nonzero;stroke:none"
           d="m 16300,9424.17 h -600.6 v 828.73 h 600.6 v -828.73" /></g><g
         transform="scale(1.06815)"
         id="g228"><path
           id="path230"
           style="fill:#dceaff;fill-opacity:1;fill-rule:nonzero;stroke:none"
           d="m 16300,7864.65 h -600.6 V 9249.57 H 16300 V 7864.65" /></g><g
         transform="scale(1.06815)"
         id="g232"><path
           id="path234"
           style="fill:#dceaff;fill-opacity:1;fill-rule:nonzero;stroke:none"
           d="m 16300,6434.22 h -600.6 v 820.02 h 600.6 v -820.02" /></g><g
         transform="scale(1.14784)"
         id="g236"><path
           id="path238"
           style="fill:#dceaff;fill-opacity:1;fill-rule:nonzero;stroke:none"
           d="m 16300,7318.61 h -450.9 V 9541.1 H 16300 V 7318.61" /></g><g
         transform="scale(1.1975)"
         id="g240"><path
           id="path242"
           style="fill:#dceaff;fill-opacity:1;fill-rule:nonzero;stroke:none"
           d="m 16300,7015.13 h -535.6 V 9145.46 H 16300 V 7015.13" /></g><g
         transform="scale(1.19434)"
         id="g244"><path
           id="path246"
           style="fill:#dceaff;fill-opacity:1;fill-rule:nonzero;stroke:none"
           d="m 16300,9732.14 h -764.4 V 11868.1 H 16300 V 9732.14" /></g><g
         transform="scale(1.21918)"
         id="g248"><path
           id="path250"
           style="fill:#dceaff;fill-opacity:1;fill-rule:nonzero;stroke:none"
           d="M 16300,3975.63 H 14841.1 V 6279.07 H 16300 V 3975.63" /></g><g
         transform="scale(1.06815)"
         id="g252"><path
           id="path254"
           style="fill:#dceaff;fill-opacity:1;fill-rule:nonzero;stroke:none"
           d="M 16300,4537.76 H 14642.7 V 5532.1 H 16300 v -994.34" /></g><g
         transform="scale(1.06815)"
         id="g256"><path
           id="path258"
           style="fill:#dceaff;fill-opacity:1;fill-rule:nonzero;stroke:none"
           d="m 16300,5719.62 h -1657.3 v 527.09 H 16300 v -527.09" /></g><path
         id="path260"
         style="fill:#dceaff;fill-opacity:1;fill-rule:nonzero;stroke:none"
         d="m 14622.7,4847 h -1590.1 v 1825.4 h 1590.1 V 4847" /><path
         id="path262"
         style="fill:#dceaff;fill-opacity:1;fill-rule:nonzero;stroke:none"
         d="m 13702.1,6841.3 h -669.5 v 983.6 h 669.5 v -983.6" /><g
         transform="scale(1.21918)"
         id="g264"><path
           id="path266"
           style="fill:#f99746;fill-opacity:1;fill-rule:nonzero;stroke:none"
           d="m 15578,2730.04 c -330.4,0 -631.9,175.61 -799.3,454.73 -224.8,374.84 -640.7,626.57 -1116.8,626.57 H 10689.7 V 2700.26 c 0,-189.22 156.6,-342.52 349.8,-342.52 h 3587.2 329.5 1060.9 c 156.3,0 282.9,124.01 282.9,276.99 v 95.31 h -722" /></g><g
         transform="scale(1.19539)"
         id="g268"><path
           id="path270"
           style="fill:#f99746;fill-opacity:1;fill-rule:nonzero;stroke:none"
           d="m 15487,3403.67 c 0,224.53 182,406.56 406.5,406.56 224.5,0 406.5,-182.03 406.5,-406.56 0,-224.53 -182,-406.48 -406.5,-406.48 -224.5,0 -406.5,181.95 -406.5,406.48" /></g><g
         transform="scale(1.17679)"
         id="g272"><path
           id="path274"
           style="fill:#ffffff;fill-opacity:1;fill-rule:nonzero;stroke:none"
           d="m 15901.5,3438.52 398.5,199.19 -122.8,-439.25 -98.1,167.91 -177.6,72.15" /></g><g
         transform="scale(1.05196)"
         id="g276"><path
           id="path278"
           style="fill:#ffffff;fill-opacity:1;fill-rule:nonzero;stroke:none"
           d="m 16300,3366.58 h -2528.1 v 107.99 H 16300 v -107.99" /></g><path
         id="path280"
         style="fill:#ed7d2b;fill-opacity:1;fill-rule:nonzero;stroke:none"
         d="m 14487.4,3541.5 h -1212.2 v 113.6 h 1212.2 v -113.6" /><path
         id="path282"
         style="fill:#233862;fill-opacity:1;fill-rule:nonzero;stroke:none"
         d="m 14284.3,3989.5 907.6,-399.6 -926.9,-413.9 148.2,406.8 -128.9,406.7" /><g
         transform="scale(1.08512)"
         id="g284"><path
           id="path286"
           style="fill:#ffffff;fill-opacity:1;fill-rule:nonzero;stroke:none"
           d="m 15951.6,3316.03 c 0,96.21 78,174.18 174.2,174.18 96.2,0 174.2,-77.97 174.2,-174.18 0,-96.21 -78,-174.17 -174.2,-174.17 -96.2,0 -174.2,77.96 -174.2,174.17" /></g><g
         transform="scale(1.23317)"
         id="g288"><path
           id="path290"
           style="fill:#afcdfb;fill-opacity:1;fill-rule:nonzero;stroke:none"
           d="m 16300,11818 h -5941.3 v 313 c 0,261.3 211.9,473.2 473.3,473.2 h 4989.9 c 264,0 478.1,-214 478.1,-478.1 V 11818" /></g><g
         transform="scale(1.68556)"
         id="g292"><path
           id="path294"
           style="fill:#ffb27d;fill-opacity:1;fill-rule:nonzero;stroke:none"
           d="m 16289.3,6138.77 c -25.2,-67.78 -68.9,-146.45 -114.8,-166.01 -51.9,-22.17 -73.7,-53.53 -73.7,-53.53 l -41.9,24.39 -50.1,29.14 c 0,0 1.1,5.57 3.6,14.64 2.4,9.03 6.1,21.61 11.3,35.54 0,0 15.3,19.77 5.9,44.62 -9.4,24.79 -7.5,63.14 8.5,86.55 16.2,23.36 31.6,80.94 41.3,79.23 23.5,-4.03 -11.5,-83.18 -1.5,-97.86 9.1,-13.28 20.4,-8.72 22.6,-7.71 0.1,0.09 0.2,0.13 0.3,0.22 65.8,28.92 145.6,184.83 180.9,163.8 13.3,-7.9 18.3,-124.15 7.6,-153.02" /></g><g
         transform="scale(1.69355)"
         id="g296"><path
           id="path298"
           style="fill:#2b478b;fill-opacity:1;fill-rule:nonzero;stroke:none"
           d="m 15985.9,6015.85 82,-57.64 c 5.8,-4.07 13.9,-2.66 17.9,3.13 l 210.1,298.93 c 4.1,5.8 2.7,13.87 -3.1,17.94 l -82,57.63 c -5.8,4.07 -13.8,2.67 -17.9,-3.13 l -210.1,-298.92 c -4.1,-5.8 -2.7,-13.88 3.1,-17.94" /></g><g
         transform="scale(1.69765)"
         id="g300"><path
           id="path302"
           style="fill:#233862;fill-opacity:1;fill-rule:nonzero;stroke:none"
           d="m 16022.2,5948.69 48,-33.71 c 4.4,-3.09 10.5,-2.02 13.6,2.38 l 213.1,303.23 c 3.1,4.4 2,10.52 -2.4,13.61 l -47.9,33.71 c -4.4,3.09 -10.6,2.02 -13.6,-2.38 l -213.2,-303.23 c -3,-4.39 -2,-10.52 2.4,-13.61" /></g><g
         transform="scale(1.66748)"
         id="g304"><path
           id="path306"
           style="fill:#233862;fill-opacity:1;fill-rule:nonzero;stroke:none"
           d="m 15041,6545.57 c 0,0 423.8,-739.26 577.6,-875.27 l 563.7,420.35 c 0,0 81.8,-25.09 117.7,-107.18 0,0 -342.4,-697.53 -679.5,-727.09 -337.1,-29.63 -810.2,836.02 -810.2,836.02 l 230.7,453.17" /></g><g
         transform="scale(1.44136)"
         id="g308"><path
           id="path310"
           style="fill:#233862;fill-opacity:1;fill-rule:nonzero;stroke:none"
           d="m 16291.1,1755.78 h -283.3 c -35.7,19.42 -67.5,63.69 -77.5,129.81 -13.9,91.3 -116.2,141.04 -138.3,215.69 -22.1,74.66 91.2,179.7 91.2,179.7 l 19,24.49 19.8,25.32 188,-44.26 c 0,0 4.7,-44.82 7.5,-101.85 2,-41.14 3.1,-88.67 0.8,-130.43 -5.6,-99.49 27.8,-206.68 116.3,-226.11 65.4,-14.29 62.4,-53.08 56.5,-72.36" /></g><g
         transform="scale(1.58595)"
         id="g312"><path
           id="path314"
           style="fill:#233862;fill-opacity:1;fill-rule:nonzero;stroke:none"
           d="m 16300,1595.7 h -588.8 c -28.3,34.55 -17.9,162.11 -13.6,203.73 0.9,8.38 1.5,13.3 1.5,13.3 0,0 201.1,160.79 228.7,37.64 0.8,-3.84 1.8,-7.63 3,-11.35 34.8,-115.19 190.8,-167.53 280.9,-182.1 58.6,-9.52 80.3,-39.97 88.3,-61.22" /></g><g
         transform="scale(1.57504)"
         id="g316"><path
           id="path318"
           style="fill:#f99746;fill-opacity:1;fill-rule:nonzero;stroke:none"
           d="m 16300,4916.27 c 0,0 -30.8,-383.61 -66.9,-844.68 -49.1,-626.27 -108.1,-1395.59 -114,-1541.36 -10.1,-253.08 -50.6,-657.89 -50.6,-657.89 0,0 -96.1,-96.19 -288.5,-55.62 0,0 -171.4,577.89 -220.4,1189.31 -0.7,10.03 -1.5,20.12 -2.2,30.22 -45.6,622.46 -116.4,1933.16 -116.4,1933.16 l 859,-53.14" /></g><g
         transform="scale(1.57504)"
         id="g320"><path
           id="path322"
           style="fill:#ed7d2b;fill-opacity:1;fill-rule:nonzero;stroke:none"
           d="m 16300,4916.27 c 0,0 -30.8,-383.61 -66.9,-844.68 l -673.5,-1065.56 c -0.7,10.03 -1.5,20.12 -2.2,30.22 -45.6,622.46 -116.4,1933.16 -116.4,1933.16 l 859,-53.14" /></g><g
         transform="scale(1.56147)"
         id="g324"><path
           id="path326"
           style="fill:#f99746;fill-opacity:1;fill-rule:nonzero;stroke:none"
           d="m 16300,4912.99 c 0,0 -559,-1401.18 -926.5,-2059.66 -367.5,-658.48 -482.4,-842.21 -482.4,-842.21 0,0 -210.5,84.21 -229.7,141.66 0,0 140.6,1271.23 386.7,1581.07 139,175.15 302.4,700.62 310.1,884.35 7.6,183.81 49.8,547.5 49.8,547.5 l 892,-252.71" /></g><g
         transform="scale(1.54814)"
         id="g328"><path
           id="path330"
           style="fill:#ffb27d;fill-opacity:1;fill-rule:nonzero;stroke:none"
           d="m 16300,7015.52 c -220.3,-69.52 -601.5,118.09 -601.5,118.09 0,0 203.2,152.44 192.5,469.4 l 170.3,-137.27 115.7,-93.23 c 0,0 -0.4,-54.97 -13.1,-151.3 -3.4,-25.33 -7.5,-53.58 -12.7,-84.45 94.5,-51.91 148.8,-121.24 148.8,-121.24" /></g><g
         transform="scale(1.53646)"
         id="g332"><path
           id="path334"
           style="fill:#ed975d;fill-opacity:1;fill-rule:nonzero;stroke:none"
           d="m 16300,7428.56 c 0,0 -0.5,-55.38 -13.2,-152.45 -129.2,22.17 -275.7,230.96 -275.7,230.96 65.7,18.99 123.3,22.4 172.3,15.43 l 116.6,-93.94" /></g><g
         transform="scale(1.55177)"
         id="g336"><path
           id="path338"
           style="fill:#ffb27d;fill-opacity:1;fill-rule:nonzero;stroke:none"
           d="m 16206.4,7360.49 c 0,0 -363,-60.31 -397.1,166.35 -34.1,226.65 -103.8,371.52 126.5,419.61 230.4,48.09 288.5,-31.61 318.3,-104.5 29.7,-72.89 45.9,-459.93 -47.7,-481.46" /></g><g
         transform="scale(1.57829)"
         id="g340"><path
           id="path342"
           style="fill:#2b478b;fill-opacity:1;fill-rule:nonzero;stroke:none"
           d="m 16290.2,4874.21 c -6.5,-5.39 -14,-8.62 -22.6,-8.62 -81.2,1.07 -317.9,-43.97 -518.1,-23.45 -168.8,16.23 -318.2,66.22 -478.6,138.13 -21.3,9.57 -70.3,35.73 -69.2,59.56 0.7,26.1 3.3,63.86 6.5,111.51 11.4,165.62 31.2,450.42 11.9,779.07 -3.5,61.21 -5.3,121.91 -5.5,181.66 -1.7,445.34 86.6,837.07 264.1,969.65 15.1,10.86 108.2,-34.62 193.7,-76.79 79,-38.97 158,-43.27 232.6,-28.17 l 74.7,-65.98 c 90.9,-84.4 190.4,-199.12 233.7,-373.32 36.8,-148.24 58.4,-415.57 70.3,-692.58 5.5,-125.52 9.8,-252.11 10.9,-372.24 v -4.31 c 1,-11.91 1,-24.9 1,-36.81 4.4,-308.37 0,-552.94 -5.4,-557.31" /></g><g
         transform="scale(1.51747)"
         id="g344"><path
           id="path346"
           style="fill:#233862;fill-opacity:1;fill-rule:nonzero;stroke:none"
           d="m 15817.8,5357.81 c 11.8,172.26 32.4,468.48 12.3,810.3 -3.6,63.66 -5.5,126.79 -5.7,188.94 76.8,186.49 139.7,321.74 139.7,321.74 h 193.8 c 0,0 142.1,-970.46 -340.1,-1320.98" /></g><g
         transform="scale(1.48409)"
         id="g348"><path
           id="path350"
           style="fill:#233862;fill-opacity:1;fill-rule:nonzero;stroke:none"
           d="m 15158.5,4353.72 845.2,-120.41 c 109.9,-15.7 212.7,61.46 228.4,171.49 l 52.2,366.22 c 15.7,109.96 -61.5,212.79 -171.5,228.49 l -845.1,120.41 c -110,15.7 -212.8,-61.52 -228.5,-171.49 l -52.1,-366.21 c -15.7,-110.04 61.4,-212.8 171.4,-228.5" /></g><g
         transform="scale(1.47298)"
         id="g352"><path
           id="path354"
           style="fill:#2b478b;fill-opacity:1;fill-rule:nonzero;stroke:none"
           d="m 15617.2,5207.33 c 1.7,11.13 10.4,19.55 20.9,21.32 2.6,0.34 5.1,0.4 7.6,0.06 l 37.9,-5.36 140.1,-20.03 76.4,-10.86 c 13.7,-1.97 23.2,-14.73 21.3,-28.44 l -11.3,-79.64 -304.2,43.38 z m 665.1,-280.18 v 0.07 c -23.8,59.87 -75.5,107.2 -141,123.22 v 0 c -0.1,0 -0.2,0 -0.2,0.06 -6.4,1.57 -12.9,2.86 -19.6,3.81 l -169.6,24.1 11.4,79.63 c 2.5,17.79 -2.1,35.51 -12.9,49.97 -10.8,14.39 -26.6,23.76 -44.4,26.27 l -44.2,6.32 -178,25.38 -32.1,4.55 c -36.8,5.23 -71.1,-20.43 -76.3,-57.23 l -11.3,-79.63 -292.6,41.75 c -111.3,15.82 -215.2,-62.19 -231.1,-173.46 l -53.2,-373.25 c -15.9,-111.27 62.2,-215.21 173.4,-231.03 l 850,-121.18 c 15,-2.18 29.8,-2.58 44.3,-1.43 h 0.1 c 0,0 0,0 0.1,0 23.2,1.76 45.6,7.6 66.3,16.77 62.5,27.56 109.9,85.88 120.3,158.11 l 53.1,373.26 c 5.2,36.39 0.4,71.96 -12.5,103.94" /></g><g
         transform="scale(1.44004)"
         id="g356"><path
           id="path358"
           style="fill:#ffb27d;fill-opacity:1;fill-rule:nonzero;stroke:none"
           d="m 16284.4,5610.74 c 0,0 -45.7,-60.91 -47.5,-85.28 -12.3,-164.99 63.1,-187.84 -132.1,-279.51 0,0 -83.3,-31.73 -84.8,32.92 -1.4,64.72 57.9,65.76 47,156.38 -12.5,104.45 -11.2,105.42 57.4,160 l 45.4,75 114.6,-59.51" /></g><g
         transform="scale(1.52099)"
         id="g360"><path
           id="path362"
           style="fill:#2b478b;fill-opacity:1;fill-rule:nonzero;stroke:none"
           d="m 15307.6,5267.94 c 69.7,-13.61 145.1,-8.09 145.1,-8.09 0,0 206.7,638.53 233.4,696.85 26.5,58.32 613.9,748.7 613.9,748.7 l -244.7,612.36 c 0,0 -635.3,-1061.19 -699.8,-1210.31 -106.6,-246.41 -143.6,-798.82 -143.6,-798.82 0,0 41,-30.04 95.7,-40.69" /></g><g
         transform="scale(1.56383)"
         id="g364"><path
           id="path366"
           style="fill:#2b478b;fill-opacity:1;fill-rule:nonzero;stroke:none"
           d="m 15687,7490.4 c 0,0 37,6.18 31,57.1 -5.9,50.91 -5.8,117.47 35.6,105.06 41.4,-12.4 43.4,-45.55 60.4,-26.19 17,19.36 17.3,100.9 140.5,106.59 123.2,5.67 173.3,-37.21 230.5,-12.02 57.3,25.18 60.3,111.88 60.3,111.88 0,0 -16.2,-30.96 -40.8,-40.8 0,0 95.5,130.71 -15.1,220.34 -110.7,89.62 -223.4,30.95 -287.5,27.07 -141.1,-8.54 -232.2,-17.01 -278.3,-109.7 -46.1,-92.7 -27.1,-350.1 63.4,-439.33" /></g><g
         transform="scale(1.43903)"
         id="g368"><path
           id="path370"
           style="fill:#ffb27d;fill-opacity:1;fill-rule:nonzero;stroke:none"
           d="m 16223.7,5542.06 c 0,0 44.1,-45.93 46.8,-65.04 9,-61.36 29.5,-87.84 19.2,-94.58 -21.3,-13.83 -49.6,31.62 -63.1,72.34 -13.5,40.79 -2.9,87.28 -2.9,87.28" /></g><g
         transform="scale(1.77153)"
         id="g372"><path
           id="path374"
           style="fill:#2e3552;fill-opacity:1;fill-rule:nonzero;stroke:none"
           d="m 16300,1425.27 v -9.15 c 0,-15.35 -7.8,-27.88 -17.3,-27.88 H 955.408 c -9.502,0 -17.279,12.53 -17.279,27.88 v 9.15 c 0,15.29 7.777,27.83 17.279,27.83 H 16282.7 c 9.5,0 17.3,-12.54 17.3,-27.83" /></g><path
         id="path376"
         style="fill:#f99746;fill-opacity:1;fill-rule:nonzero;stroke:none"
         d="m 6333.22,12453.9 c -287.18,0 -519.99,232.8 -519.99,520 0,287.2 232.81,520 519.99,520 287.19,0 520,-232.8 520,-520 0,-287.2 -232.81,-520 -520,-520 z m 0,1525.5 c -570.35,0 -1032.71,-485 -1032.71,-1083.3 0,-598.3 1032.71,-1775.1 1032.71,-1775.1 0,0 1032.72,1176.8 1032.72,1775.1 0,598.3 -462.36,1083.3 -1032.72,1083.3" /><path
         id="path378"
         style="fill:#415da5;fill-opacity:1;fill-rule:nonzero;stroke:none"
         d="m 8181.13,6958.2 c -25.92,87.2 23.77,178.9 110.98,204.8 87.22,25.9 178.94,-23.8 204.86,-111 25.92,-87.2 -23.77,-178.9 -110.99,-204.8 -87.21,-26 -178.93,23.7 -204.85,111" /><path
         id="path380"
         style="fill:#2c3a64;fill-opacity:1;fill-rule:nonzero;stroke:none"
         d="m 6706.66,9544.3 c -1.13,15.3 -19.17,179.9 -270.9,179.1 0,0 124.18,-10.1 147.57,-63.6 0,0 -86.69,64 -154.43,39.8 -67.75,-24.2 -103.51,-145.8 -102.43,-185.3 1.08,-39.5 43.94,-165.4 87.85,-174.6 16.64,-3.5 35.57,-1.7 52.7,1.9 -10.9,-18.5 -21.5,-38.9 -31.51,-61.6 -92.59,-209.6 18.41,-407 102.5,-381.6 53.93,16.3 72.83,-76.1 72.83,-76.1 l 513.12,448.3 c 0,0 -209.45,394.9 -417.3,273.7" /><path
         id="path382"
         style="fill:#ed975d;fill-opacity:1;fill-rule:nonzero;stroke:none"
         d="m 6529.99,6836.2 c 0,0 94.52,-196.6 213.98,-469.1 134.01,-305.5 299.29,-706.5 397.74,-1032.5 52.06,-172.5 85.48,-323.9 85.58,-429.2 0.03,-36.1 -139.3,-182.9 -179.52,-238.9 -253.88,-353.3 -600.65,-825.1 -600.65,-825.1 l -94.64,23.7 c 0,0 132.57,590.2 325.73,884.8 37.98,57.9 144.99,128.5 139.9,134.8 -0.03,0.1 -0.07,0.1 -0.19,0.2 -16.67,20.9 -58.27,73.3 -115,148 -156.58,206 -428.4,581.5 -610.45,930.8 -11.33,21.8 -22.36,43.5 -32.95,65 -95.98,195 -159.32,377.6 -153.13,513 l 623.6,294.5" /><path
         id="path384"
         style="fill:#233862;fill-opacity:1;fill-rule:nonzero;stroke:none"
         d="m 6268.55,3842.3 65.14,-41.2 c 24,-10.4 44.1,-14.3 68.33,-25.5 36.8,-17 43.63,-40.9 44.72,-46 0.15,-0.7 0.19,-1.1 0.19,-1.1 l 276.71,-175.1 c 13.24,5.6 21.13,32.8 25.31,53.9 2.87,14.3 -1.22,29.1 -10.93,40.1 -23.96,27.1 -77.02,71.2 -99.65,152.7 -12.77,45.8 -81.27,190.1 -81.27,190.1 l -0.51,0.5 c -2.54,1.6 -16.79,5.4 -96.42,-5.5 -41.15,-5.7 -52.36,77.8 -52.36,77.8 0,0 -13.08,-1.7 -27.86,-10.8 -11.77,-7.2 -24.6,-19.2 -32.83,-38.8 -11.64,-27.5 -54.28,-65.4 -84.74,-90 -18.47,-14.9 -32.42,-25 -32.42,-25 0,0 -13.01,-13.6 38.59,-56.1" /><path
         id="path386"
         style="fill:#233862;fill-opacity:1;fill-rule:nonzero;stroke:none"
         d="m 6379.95,4052.2 c 8.61,-20.8 27.78,-63.2 47.76,-79.8 26.95,-22.4 129.39,17.8 129.39,17.8 l -0.51,0.5 c -2.54,1.6 -16.79,5.4 -96.42,-5.5 -41.15,-5.7 -52.36,77.8 -52.36,77.8 0,0 -13.08,-1.7 -27.86,-10.8" /><path
         id="path388"
         style="fill:#233862;fill-opacity:1;fill-rule:nonzero;stroke:none"
         d="m 6268.55,3842.3 65.14,-41.2 c 24,-10.4 44.1,-14.3 68.33,-25.5 36.8,-17 43.63,-40.9 44.72,-46 0.15,-0.7 0.19,-1.1 0.19,-1.1 l 276.71,-175.1 c 13.24,5.6 21.13,32.8 25.31,53.9 -3.68,12.8 -31.31,-25.6 -39.98,-29 -8.66,-3.5 -227.19,140.5 -234.08,157.8 -6.9,17.4 -34.91,57.9 -96.38,78.9 -53.5,18.3 -103.97,90.1 -116.13,108.4 -18.47,-14.9 -32.42,-25 -32.42,-25 0,0 -13.01,-13.6 38.59,-56.1" /><path
         id="path390"
         style="fill:#415da5;fill-opacity:1;fill-rule:nonzero;stroke:none"
         d="m 6609.68,3668.1 -743.2,2324.6 125.33,40.1 743.19,-2324.6 -125.32,-40.1" /><path
         id="path392"
         style="fill:#f99746;fill-opacity:1;fill-rule:nonzero;stroke:none"
         d="M 6547.25,3661.6 4793.09,3814.1 8046.34,6013.7 7860.23,5632.6 5174.33,3913.1 6558.64,3792.7 6547.25,3661.6" /><path
         id="path394"
         style="fill:#f99746;fill-opacity:1;fill-rule:nonzero;stroke:none"
         d="m 6783.67,3764.6 -110.56,71.3 1349.77,2162.2 157.17,-162.6 -1396.38,-2070.9" /><path
         id="path396"
         style="fill:#415da5;fill-opacity:1;fill-rule:nonzero;stroke:none"
         d="m 6967.96,4072.9 246.9,-142.5 c 29.02,-16.8 39.05,-54.2 22.3,-83.2 v 0 c -16.75,-29.1 -54.2,-39.1 -83.21,-22.3 l -246.9,142.5 c -29.02,16.8 -39.05,54.2 -22.3,83.2 v 0 c 16.75,29 54.2,39.1 83.21,22.3" /><path
         id="path398"
         style="fill:#415da5;fill-opacity:1;fill-rule:nonzero;stroke:none"
         d="m 7016.89,3980.9 -311.31,-344.4 -28.73,24.9 311.32,344.5 28.72,-25" /><path
         id="path400"
         style="fill:#f99746;fill-opacity:1;fill-rule:nonzero;stroke:none"
         d="m 6014.31,5161.2 c -18.54,-6.5 -39.02,-4.4 -55.83,5.8 v 0 c -591.72,357.5 -1410.36,223.1 -1647.18,173.4 l -0.39,-0.1 c -13.05,-2.7 -25.32,7.2 -25.32,20.6 v 46.2 c 0,35.4 25.87,65.4 60.86,70.6 128.1,19.1 427.4,60.1 594.6,60.8 4.52,0 9.04,0 13.54,0 374.54,0 698.02,-67 963.81,-199.5 54.28,-27 117.19,-30.8 174.4,-10.7 l 72.93,25.6 c 41.66,14.6 87.3,-7.3 101.94,-48.9 v 0 c 9.45,-27 -4.69,-56.4 -31.6,-65.9 l -221.76,-77.9" /><path
         id="path402"
         style="fill:#415da5;fill-opacity:1;fill-rule:nonzero;stroke:none"
         d="m 5464.35,6062.1 c 0,0 -23.76,107.8 43.86,115.1 67.62,7.4 314.33,-45.6 380.12,-38.3 65.79,7.3 409.37,63.9 469.68,5.5 60.31,-58.5 34.72,-109.7 -85.9,-120.7 -120.62,-10.9 -281.44,-31 -327.12,-69.4 -45.69,-38.4 -376.47,-151.7 -480.64,107.8" /><path
         id="path404"
         style="fill:#415da5;fill-opacity:1;fill-rule:nonzero;stroke:none"
         d="m 6343.38,3688.2 c 0,181.6 147.28,328.9 328.96,328.9 181.68,0 328.95,-147.3 328.95,-328.9 0,-181.7 -147.27,-329 -328.95,-329 -181.68,0 -328.96,147.3 -328.96,329" /><path
         id="path406"
         style="fill:#afcdfb;fill-opacity:1;fill-rule:nonzero;stroke:none"
         d="m 4882.16,3870.8 -365.5,1018.6 27.52,9.9 365.51,-1018.6 -27.53,-9.9" /><path
         id="path408"
         style="fill:#afcdfb;fill-opacity:1;fill-rule:nonzero;stroke:none"
         d="m 3873.4,3401.8 -11.53,26.9 1034.2,444.3 679.89,971.2 23.96,-16.7 -684.66,-978.1 -3.82,-1.7 -1038.04,-445.9" /><path
         id="path410"
         style="fill:#afcdfb;fill-opacity:1;fill-rule:nonzero;stroke:none"
         d="m 4495.55,2738.1 -27.74,9.2 c 7.32,22 407.18,1074.3 424.19,1119 l 10.39,27.4 644.3,-1018.9 -24.71,-15.6 -613.03,969.4 C 4762.49,3443.2 4501.12,2754.8 4495.55,2738.1" /><path
         id="path412"
         style="fill:#afcdfb;fill-opacity:1;fill-rule:nonzero;stroke:none"
         d="m 4903.19,3919.9 -1147.69,197.3 4.96,28.8 1147.68,-197.3 -4.95,-28.8" /><path
         id="path414"
         style="fill:#afcdfb;fill-opacity:1;fill-rule:nonzero;stroke:none"
         d="m 4992.64,3936.9 -27.74,9.3 336.26,1008.8 27.74,-9.3 -336.26,-1008.8" /><path
         id="path416"
         style="fill:#afcdfb;fill-opacity:1;fill-rule:nonzero;stroke:none"
         d="m 4903.34,3845.9 -4.28,2.2 -1052.66,533.7 13.22,26 1048.37,-531.4 1128.32,189.2 4.84,-28.8 -1137.81,-190.9" /><path
         id="path418"
         style="fill:#afcdfb;fill-opacity:1;fill-rule:nonzero;stroke:none"
         d="m 5330.41,2774.6 c -6.24,18.4 -276.36,683.1 -427.61,1054.8 l -584.23,-919.1 -24.67,15.7 614.63,966.9 10.68,-26.2 c 17.62,-43.3 431.56,-1060.7 438.93,-1082.8 l -27.73,-9.3" /><path
         id="path420"
         style="fill:#afcdfb;fill-opacity:1;fill-rule:nonzero;stroke:none"
         d="m 3774.75,3678.6 -4.3,28.9 1133.07,168.1 4.3,-28.9 -1133.07,-168.1" /><path
         id="path422"
         style="fill:#afcdfb;fill-opacity:1;fill-rule:nonzero;stroke:none"
         d="m 4836.15,4012.4 -628.67,723.7 22.07,19.2 628.67,-723.7 -22.07,-19.2" /><path
         id="path424"
         style="fill:#afcdfb;fill-opacity:1;fill-rule:nonzero;stroke:none"
         d="m 4869.07,2719.6 -29.14,2.4 87.72,1060 29.14,-2.5 -87.72,-1059.9" /><path
         id="path426"
         style="fill:#afcdfb;fill-opacity:1;fill-rule:nonzero;stroke:none"
         d="m 5847.65,3213.2 -1001.48,694.4 16.66,24.1 1001.48,-694.5 -16.66,-24" /><path
         id="path428"
         style="fill:#afcdfb;fill-opacity:1;fill-rule:nonzero;stroke:none"
         d="m 4075.39,3076 -20.77,20.6 836.42,843.7 v 1097.8 h 29.25 V 3928.2 L 4075.39,3076" /><path
         id="path430"
         style="fill:#699dee;fill-opacity:1;fill-rule:nonzero;stroke:none"
         d="m 4690.02,3861.2 c 0,119.1 96.55,215.6 215.65,215.6 119.1,0 215.64,-96.5 215.64,-215.6 0,-119.1 -96.54,-215.7 -215.64,-215.7 -119.1,0 -215.65,96.6 -215.65,215.7" /><path
         id="path432"
         style="fill:#415da5;fill-opacity:1;fill-rule:nonzero;stroke:none"
         d="m 4905.67,4950.4 c -600.6,0 -1089.21,-488.6 -1089.21,-1089.2 0,-600.6 488.61,-1089.2 1089.21,-1089.2 194.1,0 384.61,51.6 550.94,149.3 161.58,95 296.81,230.8 391.08,392.7 96.29,165.4 147.18,354.6 147.18,547.2 0,600.6 -488.61,1089.2 -1089.2,1089.2 z m 0,-2353.9 c -697.34,0 -1264.65,567.3 -1264.65,1264.7 0,697.3 567.31,1264.6 1264.65,1264.6 697.33,0 1264.64,-567.3 1264.64,-1264.6 0,-223.6 -59.13,-443.3 -171,-635.4 -109.39,-188 -266.32,-345.5 -453.82,-455.7 C 5352.24,2656.5 5131,2596.5 4905.67,2596.5" /><path
         id="path434"
         style="fill:#f99746;fill-opacity:1;fill-rule:nonzero;stroke:none"
         d="m 4915.35,4922.6 c -589.42,0 -1068.95,-479.5 -1068.95,-1068.9 0,-589.5 479.53,-1069 1068.95,-1069 589.43,0 1068.96,479.5 1068.96,1069 0,589.4 -479.53,1068.9 -1068.96,1068.9 z m 0,-2182.9 c -614.23,0 -1113.94,499.7 -1113.94,1114 0,614.2 499.71,1113.9 1113.94,1113.9 614.23,0 1113.95,-499.7 1113.95,-1113.9 0,-614.3 -499.72,-1114 -1113.95,-1114" /><path
         id="path436"
         style="fill:#afcdfb;fill-opacity:1;fill-rule:nonzero;stroke:none"
         d="m 9006.25,3870.8 -365.5,1018.6 27.52,9.9 365.51,-1018.6 -27.53,-9.9" /><path
         id="path438"
         style="fill:#afcdfb;fill-opacity:1;fill-rule:nonzero;stroke:none"
         d="m 7997.49,3401.8 -11.53,26.9 1034.21,444.3 679.88,971.2 23.96,-16.7 -684.65,-978.1 -3.83,-1.7 -1038.04,-445.9" /><path
         id="path440"
         style="fill:#afcdfb;fill-opacity:1;fill-rule:nonzero;stroke:none"
         d="m 8619.64,2738.1 -27.74,9.2 c 7.33,22 407.18,1074.3 424.19,1119 l 10.39,27.4 644.31,-1018.9 -24.72,-15.6 -613.03,969.4 C 8886.58,3443.2 8625.21,2754.8 8619.64,2738.1" /><path
         id="path442"
         style="fill:#afcdfb;fill-opacity:1;fill-rule:nonzero;stroke:none"
         d="m 9027.28,3919.9 -1147.69,197.3 4.96,28.8 1147.69,-197.3 -4.96,-28.8" /><path
         id="path444"
         style="fill:#afcdfb;fill-opacity:1;fill-rule:nonzero;stroke:none"
         d="m 9116.73,3936.9 -27.74,9.3 336.26,1008.8 27.75,-9.3 -336.27,-1008.8" /><path
         id="path446"
         style="fill:#afcdfb;fill-opacity:1;fill-rule:nonzero;stroke:none"
         d="m 9027.44,3845.9 -4.29,2.2 -1052.66,533.7 13.23,26 1048.36,-531.4 1128.32,189.2 4.8,-28.8 -1137.76,-190.9" /><path
         id="path448"
         style="fill:#afcdfb;fill-opacity:1;fill-rule:nonzero;stroke:none"
         d="m 9454.5,2774.6 c -6.24,18.4 -276.36,683.1 -427.61,1054.8 l -584.22,-919.1 -24.68,15.7 614.63,966.9 10.68,-26.2 c 17.62,-43.3 431.56,-1060.7 438.94,-1082.8 l -27.74,-9.3" /><path
         id="path450"
         style="fill:#afcdfb;fill-opacity:1;fill-rule:nonzero;stroke:none"
         d="m 7898.84,3678.6 -4.29,28.9 1133.06,168.1 4.3,-28.9 -1133.07,-168.1" /><path
         id="path452"
         style="fill:#afcdfb;fill-opacity:1;fill-rule:nonzero;stroke:none"
         d="m 8960.24,4012.4 -628.67,723.7 22.08,19.2 628.66,-723.7 -22.07,-19.2" /><path
         id="path454"
         style="fill:#afcdfb;fill-opacity:1;fill-rule:nonzero;stroke:none"
         d="m 8993.16,2719.6 -29.14,2.4 87.72,1060 29.14,-2.5 -87.72,-1059.9" /><path
         id="path456"
         style="fill:#afcdfb;fill-opacity:1;fill-rule:nonzero;stroke:none"
         d="m 9971.74,3213.2 -1001.48,694.4 16.66,24.1 1001.48,-694.5 -16.66,-24" /><path
         id="path458"
         style="fill:#afcdfb;fill-opacity:1;fill-rule:nonzero;stroke:none"
         d="m 8199.48,3076 -20.76,20.6 836.42,843.7 v 1097.8 h 29.24 V 3928.2 L 8199.48,3076" /><path
         id="path460"
         style="fill:#415da5;fill-opacity:1;fill-rule:nonzero;stroke:none"
         d="m 9029.76,4950.4 c -600.59,0 -1089.21,-488.6 -1089.21,-1089.2 0,-600.6 488.62,-1089.2 1089.21,-1089.2 194.1,0 384.62,51.6 550.94,149.3 161.58,95 296.81,230.8 391.09,392.7 96.31,165.4 147.21,354.6 147.21,547.2 0,600.6 -488.65,1089.2 -1089.24,1089.2 z m 0,-2353.9 c -697.33,0 -1264.65,567.3 -1264.65,1264.7 0,697.3 567.32,1264.6 1264.65,1264.6 697.33,0 1264.64,-567.3 1264.64,-1264.6 0,-223.6 -59.1,-443.3 -171,-635.4 -109.4,-188 -266.32,-345.5 -453.82,-455.7 -193.25,-113.6 -414.49,-173.6 -639.82,-173.6" /><path
         id="path462"
         style="fill:#f99746;fill-opacity:1;fill-rule:nonzero;stroke:none"
         d="m 9039.44,4922.6 c -589.42,0 -1068.95,-479.5 -1068.95,-1068.9 0,-589.5 479.53,-1069 1068.95,-1069 589.43,0 1068.96,479.5 1068.96,1069 0,589.4 -479.53,1068.9 -1068.96,1068.9 z m 0,-2182.9 c -614.23,0 -1113.94,499.7 -1113.94,1114 0,614.2 499.71,1113.9 1113.94,1113.9 614.23,0 1113.96,-499.7 1113.96,-1113.9 0,-614.3 -499.73,-1114 -1113.96,-1114" /><path
         id="path464"
         style="fill:#ed975d;fill-opacity:1;fill-rule:nonzero;stroke:none"
         d="m 7012.59,8355.9 c 0,0 -178.75,-100.6 -157.72,-355.4 21.04,-254.7 254.83,-656.3 432.57,-755.9 140.77,-79 547.97,-202.2 547.97,-202.2 l 14.65,110.6 c 0,0 -331.34,216.3 -403.02,290.2 -153.77,158.5 -300.16,974.3 -434.45,912.7" /><path
         id="path466"
         style="fill:#ffb27d;fill-opacity:1;fill-rule:nonzero;stroke:none"
         d="m 6994.8,7783 c -8.13,-57.4 -23.25,-106.8 -41.94,-153.8 -15.57,-39.4 -33.58,-76.9 -52.12,-116 -54.28,-114.9 -182.19,-171.5 -186.51,-392.3 -1.46,-76.1 -64.9,-247.4 -29,-371.5 176.84,-611.9 -980.27,-55.5 -917.62,107 124.54,323 302.43,509.8 298.7,775.8 0.03,0.7 -0.12,1.3 -0.21,2 -1.12,12.9 -2.87,47.5 -4.84,93.1 -4.83,111.7 -11.12,289.8 -13.4,379.9 -0.09,2.1 -0.1,4.2 -0.17,6.2 -0.94,38.6 -2.11,66.5 -3.61,73.9 86.02,366 283.97,367.6 351.54,366.4 25.03,-0.4 51.33,-2 72.94,-3.8 42.44,24.1 115.9,136.7 153.98,321.9 l 15.42,-6.6 259.44,-110.3 c 0,0 -23.99,-83.9 -40.98,-164.1 -13.28,-62.7 -22.21,-123.1 -12.2,-139.5 20.41,-7.4 32.61,-12.1 32.61,-12.1 0,0 0,-0.1 0.07,-0.3 4.57,-10.3 159.34,-364.7 117.9,-655.9" /><path
         id="path468"
         style="fill:#ed975d;fill-opacity:1;fill-rule:nonzero;stroke:none"
         d="m 6952.86,7629.2 c -15.57,-39.4 -33.58,-76.9 -52.12,-116 -54.28,-114.9 -182.19,-171.5 -186.51,-392.3 -3.91,-0.4 -7.88,-0.8 -11.92,-1.1 -474.5,-37.1 -636.21,514.4 -636.21,514.4 -1.12,12.9 -2.87,47.5 -4.84,93.1 l 856.27,-1.4 c 0,0 17.66,-38.8 35.33,-96.7" /><path
         id="path470"
         style="fill:#ffffff;fill-opacity:1;fill-rule:nonzero;stroke:none"
         d="m 7073.29,7890.5 c -2.38,-7.1 -5.07,-14.1 -8.02,-21.2 -82.23,-196.1 -157.7,-359.9 -157.7,-359.9 -2.23,1.3 -4.53,2.5 -6.83,3.8 -55.35,30.5 -121.11,53.6 -191.34,71 -59.01,14.7 -121.21,25.4 -182.98,33 -191.37,23.8 -379.29,18.9 -460.11,15 -0.09,0.7 -0.12,1.3 -0.21,2 -3.92,44.5 -15.03,346 -18.24,473 -0.09,2.1 -0.1,4.2 -0.17,6.2 18.92,15.1 37.3,29.1 54.29,42.5 54.47,42.9 95.03,79.3 95.98,124.2 0.37,17.6 -0.88,35.7 -3.36,53.8 -1.15,8.5 -2.57,17 -4.17,25.4 -17.17,89.2 -57.59,169 -57.59,169 93.28,42 262.78,25.4 262.78,25.4 0,0 0.16,-9.3 0.6,-24.6 1.73,-61.7 8.24,-219.8 29.14,-248.9 26.06,-36.3 483.77,-182.7 505.76,-131.2 21.58,50.6 -51.44,281.2 -54.22,289.9 -0.07,0.2 -0.07,0.3 -0.07,0.3 153.46,-53.7 209.4,-101.5 209.4,-101.5 -88.91,-62.6 50.56,-257.6 -12.94,-447.2" /><path
         id="path472"
         style="fill:#ed975d;fill-opacity:1;fill-rule:nonzero;stroke:none"
         d="m 6897.43,8754.9 c 0,0 -24,-83.9 -40.99,-164.1 -150.57,36 -201.69,190.9 -218.46,274.4 l 259.45,-110.3" /><path
         id="path474"
         style="fill:#ffb27d;fill-opacity:1;fill-rule:nonzero;stroke:none"
         d="m 6932.09,8668.3 c 0,0 -359.59,69.2 -313.09,292.5 46.51,223.2 31.42,382.5 262.98,347.8 231.56,-34.7 258.27,-129.1 260.88,-207.4 2.6,-78.3 -116.02,-445.1 -210.77,-432.9" /><path
         id="path476"
         style="fill:#2c3a64;fill-opacity:1;fill-rule:nonzero;stroke:none"
         d="m 7158.2,9227.5 c -41.33,78.7 -86.28,72.8 -113.96,57.5 -173.33,148.7 -332.88,15.9 -332.88,15.9 -57.52,-155.1 -192.23,-222.7 -192.23,-222.7 0,0 56.86,-54 215.55,-46.8 48.47,2.2 96.39,26.3 139.6,58.6 -82.34,-89.4 -180.69,-145.6 -180.69,-145.6 197.28,45.5 321.9,280.5 334.63,305.5 17.77,-24.3 51.95,-76 56.34,-120.6 5.96,-60.6 -10.52,-179.2 24.42,-182.4 0,0 111.21,162.5 49.22,280.6" /><path
         id="path478"
         style="fill:#ffb27d;fill-opacity:1;fill-rule:nonzero;stroke:none"
         d="m 7366.9,7038.6 -25.84,-110.3 c 0,0 -603.35,82.4 -800.58,197.2 -197.23,114.8 -495.84,789.6 -519.4,1074.8 -1.27,15.2 -2.07,29.6 -2.39,43.4 -7.18,246.3 114.15,284.6 114.15,284.6 48.56,22.3 108.91,-61 172.82,-191 134.09,-272.9 283.95,-751.9 372.99,-893.7 68.4,-108.8 688.25,-405 688.25,-405" /><path
         id="path480"
         style="fill:#ffffff;fill-opacity:1;fill-rule:nonzero;stroke:none"
         d="m 6305.66,8337.3 c -165.45,39 -286.97,-93.6 -286.97,-93.6 -7.18,246.3 114.15,284.6 114.15,284.6 48.56,22.3 108.91,-61 172.82,-191" /><path
         id="path482"
         style="fill:#ffffff;fill-opacity:1;fill-rule:nonzero;stroke:none"
         d="m 7086.23,8337.7 c 0,0 69.43,-145.8 83.72,-183.9 0,0 -89.45,-0.6 -131.2,-87.9 0,0 -5.44,248.3 47.48,271.8" /><path
         id="path484"
         style="fill:#ffb27d;fill-opacity:1;fill-rule:nonzero;stroke:none"
         d="m 5755.97,6832.3 c 0,0 -267.48,-424 63.05,-657.2 330.55,-233.2 1443.39,-344.8 1388.83,-390 -166.91,-138.4 -318.54,-351.2 -310.56,-1625.4 l 82.47,-42.5 c 0,0 793.58,1726.4 740.38,1932.1 -35.22,136.2 -1192.69,873.3 -1964.17,783" /><path
         id="path486"
         style="fill:#f99746;fill-opacity:1;fill-rule:nonzero;stroke:none"
         d="m 6397.62,5950 c 0,0 -674.31,111.7 -743.87,349.7 -51.96,177.8 -67.34,250.4 238.25,825 0,0 127.68,-242.6 794.19,-186.4 0,0 -3.41,-31.5 -3.41,-74.1 0.85,-70.7 11.92,-171.1 67.25,-200 0.85,-0.9 2.55,-0.9 3.41,-1.7 87.67,-40 223.48,-120.8 243.91,-128.4 0.85,0 -409.05,-78.5 -599.73,-584.1" /><path
         id="path488"
         style="fill:#233862;fill-opacity:1;fill-rule:nonzero;stroke:none"
         d="m 6785.55,4097.9 69.48,-33.3 c 25.03,-7.6 45.45,-9.1 70.82,-17.4 38.53,-12.7 48.09,-35.6 49.77,-40.6 0.23,-0.6 0.31,-1 0.31,-1 l 295.15,-141.8 c 12.52,7.1 17.19,35.1 18.89,56.5 1.19,14.5 -4.58,28.8 -15.5,38.5 -26.95,24.1 -84.77,61.8 -116.71,140.1 -17.99,44 -102.78,179.4 -102.78,179.4 l -0.57,0.5 c -2.7,1.2 -17.31,3.4 -95.13,-16.7 -40.21,-10.4 -61.04,71.2 -61.04,71.2 0,0 -12.8,-3.2 -26.41,-14 -10.85,-8.5 -22.22,-21.9 -28.11,-42.3 -8.36,-28.7 -46.32,-71.3 -73.72,-99.3 -16.61,-16.9 -29.3,-28.5 -29.3,-28.5 0,0 -11.33,-15.1 44.85,-51.3" /><path
         id="path490"
         style="fill:#233862;fill-opacity:1;fill-rule:nonzero;stroke:none"
         d="m 6871.83,4319.3 c 10.97,-19.7 34.92,-59.5 56.7,-73.7 29.37,-19.2 126.45,32.7 126.45,32.7 l -0.57,0.5 c -2.7,1.2 -17.31,3.4 -95.13,-16.7 -40.21,-10.4 -61.04,71.2 -61.04,71.2 0,0 -12.8,-3.2 -26.41,-14" /><path
         id="path492"
         style="fill:#233862;fill-opacity:1;fill-rule:nonzero;stroke:none"
         d="m 6785.55,4097.9 69.48,-33.3 c 25.03,-7.6 45.45,-9.1 70.82,-17.4 38.53,-12.7 48.09,-35.6 49.77,-40.6 0.23,-0.6 0.31,-1 0.31,-1 l 295.15,-141.8 c 12.52,7.1 17.19,35.1 18.89,56.5 -5.13,12.3 -28.11,-29.1 -36.33,-33.5 -8.21,-4.4 -241.97,113.2 -250.83,129.6 -8.86,16.5 -41.39,53.4 -104.89,67.2 -55.25,11.9 -113.72,77.4 -127.92,94.1 -16.61,-16.9 -29.3,-28.5 -29.3,-28.5 0,0 -11.33,-15.1 44.85,-51.3" /><path
         id="path494"
         style="fill:#415da5;fill-opacity:1;fill-rule:nonzero;stroke:none"
         d="m 8462.96,5499.3 c -18.79,47.3 -62.82,76.7 -110.44,79.8 -545.94,1254.2 -551.8,1264 -560.05,1277.5 l -78.94,-156.4 c -4.19,6.8 298.06,-665.1 513.78,-1157.6 l -30.81,-12.3 751.72,-1608.7 121.83,49.7 -607.09,1528" /><path
         id="path496"
         style="fill:#415da5;fill-opacity:1;fill-rule:nonzero;stroke:none"
         d="m 8304.44,6847.4 -959.24,-240.7 -16.66,193.7 959.25,240.8 16.65,-193.8" /><path
         id="path498"
         style="fill:#ffb27d;fill-opacity:1;fill-rule:nonzero;stroke:none"
         d="m 7366.9,7038.6 c 0,0 90.34,-59.2 154.18,-56.5 63.84,2.6 144.97,-24 144.97,-24 0,0 85.13,-25.2 93.11,-126.3 0,0 -0.38,-29.3 -134.34,12 -29.29,9 -99.75,-8 -123.69,0 -23.94,7.9 -96.68,86.5 -160.07,84.5 l 25.84,110.3" /><path
         id="path500"
         style="fill:#ed975d;fill-opacity:1;fill-rule:nonzero;stroke:none"
         d="m 7850.06,7153 c 0,0 90.34,-59.2 154.18,-56.5 63.84,2.6 144.97,-24 144.97,-24 0,0 85.12,-25.2 93.1,-126.3 0,0 -1.84,-41.6 -134.33,11.9 -36.34,14.7 -99.75,-7.9 -123.69,0 -23.94,8 -111.68,75.4 -172.43,92 l 38.2,102.9" /><path
         id="path502"
         style="fill:#415da5;fill-opacity:1;fill-rule:nonzero;stroke:none"
         d="m 7161.15,6669.8 c -25.92,87.2 23.77,178.9 110.98,204.8 87.22,26 178.93,-23.7 204.86,-110.9 25.92,-87.3 -23.77,-179 -110.99,-204.9 -87.22,-25.9 -178.93,23.8 -204.85,111" /><path
         id="path504"
         style="fill:#699dee;fill-opacity:1;fill-rule:nonzero;stroke:none"
         d="m 8814.11,3861.2 c 0,119.1 96.55,215.6 215.65,215.6 119.1,0 215.65,-96.5 215.65,-215.6 0,-119.1 -96.55,-215.7 -215.65,-215.7 -119.1,0 -215.65,96.6 -215.65,215.7" /><g
         transform="scale(1.12371)"
         id="g506"><path
           id="path508"
           style="fill:#f99746;fill-opacity:1;fill-rule:nonzero;stroke:none"
           d="m 15763.9,10702 c -149,0 -269.9,120.9 -269.9,269.9 0,149.1 120.9,270 269.9,270 149.1,0 269.9,-120.9 269.9,-270 0,-149 -120.8,-269.9 -269.9,-269.9 z m 0,791.9 c -296.1,0 -536.1,-251.8 -536.1,-562.3 0,-310.6 536.1,-921.4 536.1,-921.4 0,0 536.1,610.8 536.1,921.4 0,310.5 -240,562.3 -536.1,562.3" /></g><g
         transform="scale(1.09077)"
         id="g510"><path
           id="path512"
           style="fill:#f99746;fill-opacity:1;fill-rule:nonzero;stroke:none"
           d="m 16300,7262.83 h -1382.2 l 1.3,61.43 c 0.1,2.47 4.1,248.81 -99.8,493.22 -135.1,318.22 -383.4,485.07 -737.9,496.07 -288.2,9.08 -515.5,-68.66 -675.3,-230.84 -283.6,-287.87 -265.7,-752.31 -265.5,-756.99 l 2.9,-62.8 -62.9,-0.09 H 10675.5 L 7772.14,9482.66 H 5801.57 v 120.06 h 2011.2 L 10716.1,7382.93 h 2304.5 c 4.3,147.78 41.9,521.56 299.3,783.39 184.3,187.39 441.7,277.23 765.2,267.24 506.8,-15.77 740,-320.14 846.3,-572.71 81.4,-193.72 101.6,-383.49 106.5,-477.92 h 1142 V 9791.44 H 16300 V 7262.83" /></g><g
         transform="scale(1.10347)"
         id="g514"><path
           id="path516"
           style="fill:#ffffff;fill-opacity:1;fill-rule:nonzero;stroke:none"
           d="m 15806.1,9811.37 c 0,136.41 110.6,247.03 247,247.03 136.3,0 246.9,-110.62 246.9,-247.03 0,-136.39 -110.6,-246.97 -246.9,-246.97 -136.4,0 -247,110.58 -247,246.97" /></g><g
         transform="scale(1.1066)"
         id="g518"><path
           id="path520"
           style="fill:#f99746;fill-opacity:1;fill-rule:nonzero;stroke:none"
           d="m 16007.7,9983.89 c -110.5,0 -200.3,-89.83 -200.3,-200.25 0,-110.43 89.8,-200.26 200.3,-200.26 110.4,0 200.2,89.83 200.2,200.26 0,110.42 -89.8,200.25 -200.2,200.25 z m 0,-492.56 c -161.3,0 -292.4,131.13 -292.4,292.31 0,161.17 131.1,292.26 292.4,292.26 161.2,0 292.3,-131.09 292.3,-292.26 0,-161.18 -131.1,-292.31 -292.3,-292.31" /></g><path
         id="path522"
         style="fill:#ffffff;fill-opacity:1;fill-rule:nonzero;stroke:none"
         d="m 6060.69,10407.7 c 0,150.5 122.02,272.5 272.53,272.5 150.52,0 272.54,-122 272.54,-272.5 0,-150.5 -122.02,-272.5 -272.54,-272.5 -150.51,0 -272.53,122 -272.53,272.5" /><path
         id="path524"
         style="fill:#f99746;fill-opacity:1;fill-rule:nonzero;stroke:none"
         d="m 6333.23,10629.3 c -122.19,0 -221.61,-99.4 -221.61,-221.6 0,-122.2 99.42,-221.6 221.61,-221.6 122.19,0 221.6,99.4 221.6,221.6 0,122.2 -99.41,221.6 -221.6,221.6 z m 0,-545.1 c -178.37,0 -323.47,145.2 -323.47,323.5 0,178.4 145.1,323.5 323.47,323.5 178.35,0 323.46,-145.1 323.46,-323.5 0,-178.3 -145.11,-323.5 -323.46,-323.5" /><path
         id="path526"
         style="fill:#ffffff;fill-opacity:1;fill-rule:nonzero;stroke:none"
         d="m 14012,8016.9 c 0,150.5 122,272.5 272.5,272.5 150.5,0 272.5,-122 272.5,-272.5 0,-150.6 -122,-272.6 -272.5,-272.6 -150.5,0 -272.5,122 -272.5,272.6" /><path
         id="path528"
         style="fill:#f99746;fill-opacity:1;fill-rule:nonzero;stroke:none"
         d="m 14284.5,8238.5 c -122.2,0 -221.6,-99.4 -221.6,-221.6 0,-122.2 99.4,-221.7 221.6,-221.7 122.2,0 221.6,99.5 221.6,221.7 0,122.2 -99.4,221.6 -221.6,221.6 z m 0,-545.1 c -178.4,0 -323.5,145.1 -323.5,323.5 0,178.3 145.1,323.4 323.5,323.4 178.4,0 323.5,-145.1 323.5,-323.4 0,-178.4 -145.1,-323.5 -323.5,-323.5" /><path
         id="path530"
         style="fill:#ffffff;fill-opacity:1;fill-rule:nonzero;stroke:none"
         d="m 13793,14840.2 -89.6,-64.3 -90.1,63.6 c 19.9,28.1 52.9,46.7 90.1,46.7 36.9,0 69.6,-18.1 89.6,-46" /><path
         id="path532"
         style="fill:#ffffff;fill-opacity:1;fill-rule:nonzero;stroke:none"
         d="m 13703.4,15042.9 c -90.1,0 -169.8,-44.8 -218.1,-113.3 l 56.9,-40 c 35.8,50.7 94.7,83.7 161.2,83.7 65.9,0 124.4,-32.6 160.2,-82.5 l 56.7,40.6 c -48.6,67.6 -127.8,111.5 -216.9,111.5" /><path
         id="path534"
         style="fill:#ffffff;fill-opacity:1;fill-rule:nonzero;stroke:none"
         d="m 13703.4,15340.9 c -190.7,0 -359.3,-94.8 -461.5,-239.7 l 56.9,-39.9 c 89.7,126.8 237.6,209.9 404.6,209.9 165.6,0 312.6,-81.7 402.4,-206.9 l 56.5,40.6 c -102.5,142.8 -269.9,236 -458.9,236" /><path
         id="path536"
         style="fill:#ffffff;fill-opacity:1;fill-rule:nonzero;stroke:none"
         d="m 13703.4,15177.8 c -135.7,0 -256,-67.1 -329.1,-169.9 l 56.9,-40 c 60.6,84.8 160,140.3 272.2,140.3 111.2,0 209.9,-54.6 270.8,-138.2 l 56.4,40.4 c -73.4,101.5 -192.8,167.4 -327.2,167.4" /><g
         transform="scale(1.71689)"
         id="g538"><path
           id="path540"
           style="fill:#cde0fb;fill-opacity:1;fill-rule:nonzero;stroke:none"
           d="m 15877.3,7723.06 c -117.5,0 -212.8,95.28 -212.8,212.81 0,117.54 95.3,212.82 212.8,212.82 117.6,0 212.8,-95.28 212.8,-212.82 0,-117.53 -95.2,-212.81 -212.8,-212.81 z m 0,624.35 c -233.4,0 -422.6,-198.49 -422.6,-443.35 0,-244.86 422.6,-726.5 422.6,-726.5 0,0 422.7,481.64 422.7,726.5 0,244.86 -189.2,443.35 -422.7,443.35" /></g><g
         transform="scale(1.80175)"
         id="g542"><path
           id="path544"
           style="fill:#cde0fb;fill-opacity:1;fill-rule:nonzero;stroke:none"
           d="m 15908.7,3204.43 -52.2,22.15 386.9,911.72 v 1228.47 l -517.6,16.87 v 750.6 l -486.5,486.5 40,40.06 503.1,-503.1 v -719.22 l 517.6,-16.93 V 4126.76 l -2.2,-5.33 -389.1,-917" /></g><g
         transform="scale(1.77234)"
         id="g546"><path
           id="path548"
           style="fill:#ffffff;fill-opacity:1;fill-rule:nonzero;stroke:none"
           d="m 15992.4,3245.32 c 0,84.92 68.9,153.75 153.8,153.75 84.9,0 153.8,-68.83 153.8,-153.75 0,-84.92 -68.9,-153.75 -153.8,-153.75 -84.9,0 -153.8,68.83 -153.8,153.75" /></g><g
         transform="scale(1.77547)"
         id="g550"><path
           id="path552"
           style="fill:#cde0fb;fill-opacity:1;fill-rule:nonzero;stroke:none"
           d="m 16117.7,3364.36 c -68.7,0 -124.7,-55.99 -124.7,-124.76 0,-68.83 56,-124.76 124.7,-124.76 68.9,0 124.8,55.93 124.8,124.76 0,68.77 -55.9,124.76 -124.8,124.76 z m 0,-307.02 c -100.4,0 -182.2,81.78 -182.2,182.26 0,100.48 81.8,182.21 182.2,182.21 100.5,0 182.3,-81.73 182.3,-182.21 0,-100.48 -81.8,-182.26 -182.3,-182.26" /></g><g
         transform="scale(1.81534)"
         id="g554"><path
           id="path556"
           style="fill:#ffffff;fill-opacity:1;fill-rule:nonzero;stroke:none"
           d="m 15999.8,5353.81 c 0,82.9 67.2,150.11 150.1,150.11 82.9,0 150.1,-67.21 150.1,-150.11 0,-82.96 -67.2,-150.17 -150.1,-150.17 -82.9,0 -150.1,67.21 -150.1,150.17" /></g><g
         transform="scale(1.81848)"
         id="g558"><path
           id="path560"
           style="fill:#cde0fb;fill-opacity:1;fill-rule:nonzero;stroke:none"
           d="m 16122,5466.38 c -67.1,0 -121.8,-54.66 -121.8,-121.8 0,-67.2 54.7,-121.86 121.8,-121.86 67.2,0 121.9,54.66 121.9,121.86 0,67.14 -54.7,121.8 -121.9,121.8 z m 0,-299.75 c -98.1,0 -177.9,79.79 -177.9,177.95 0,98.1 79.8,177.9 177.9,177.9 98.2,0 178,-79.8 178,-177.9 0,-98.16 -79.8,-177.95 -178,-177.95" /></g><g
         transform="scale(1.69378)"
         id="g562"><path
           id="path564"
           style="fill:#cde0fb;fill-opacity:1;fill-rule:nonzero;stroke:none"
           d="m 16164,7064.1 c 0,37.55 30.5,67.98 68,67.98 37.6,0 68,-30.43 68,-67.98 0,-37.54 -30.4,-67.97 -68,-67.97 -37.5,0 -68,30.43 -68,67.97" /></g><g
         transform="scale(1.10684)"
         id="g566"><path
           id="path568"
           style="fill:#ffffff;fill-opacity:1;fill-rule:nonzero;stroke:none"
           d="m 15708.4,11117.4 c 0,163.4 132.5,295.8 295.8,295.8 163.4,0 295.8,-132.4 295.8,-295.8 0,-163.4 -132.4,-295.8 -295.8,-295.8 -163.3,0 -295.8,132.4 -295.8,295.8" /></g></g></g></svg>